G04 (created by PCBNEW (2013-07-07 BZR 4022)-stable) date 2015-10-06 15:27:07*
%MOIN*%
G04 Gerber Fmt 3.4, Leading zero omitted, Abs format*
%FSLAX34Y34*%
G01*
G70*
G90*
G04 APERTURE LIST*
%ADD10C,0.00393701*%
%ADD11C,0.06*%
%ADD12R,0.125984X0.125984*%
%ADD13C,0.055*%
%ADD14R,0.055X0.055*%
%ADD15C,0.056*%
%ADD16C,0.035*%
%ADD17C,0.0275591*%
%ADD18C,0.0177165*%
%ADD19C,0.01*%
G04 APERTURE END LIST*
G54D10*
G54D11*
X13302Y-16540D03*
X13302Y-17525D03*
X13302Y-18509D03*
X7594Y-18509D03*
X7594Y-16540D03*
G54D12*
X10350Y-15280D03*
G54D13*
X20287Y-3637D03*
X20287Y-4637D03*
X20287Y-5637D03*
X20287Y-6637D03*
X20287Y-7637D03*
X20287Y-8637D03*
G54D14*
X20287Y-9637D03*
X662Y-13637D03*
G54D13*
X662Y-12637D03*
X662Y-11637D03*
X662Y-10637D03*
X662Y-9637D03*
X662Y-8637D03*
X662Y-7637D03*
X662Y-6637D03*
X662Y-5637D03*
X662Y-4637D03*
X662Y-3637D03*
X662Y-2637D03*
X662Y-1637D03*
X662Y-637D03*
X20275Y-2650D03*
G54D15*
X9200Y-11575D03*
X10000Y-11575D03*
G54D14*
X19475Y-17650D03*
G54D13*
X19475Y-16650D03*
X17450Y-18500D03*
X17450Y-16500D03*
X14450Y-18500D03*
X14450Y-16500D03*
X6475Y-18475D03*
X6475Y-16475D03*
X3475Y-18475D03*
X3475Y-16475D03*
G54D14*
X6200Y-13000D03*
G54D13*
X7200Y-13000D03*
X8200Y-13000D03*
X9200Y-13000D03*
G54D14*
X4900Y-4125D03*
G54D13*
X5900Y-4125D03*
X6900Y-4125D03*
X7900Y-4125D03*
G54D14*
X20200Y-11150D03*
G54D13*
X20200Y-12150D03*
X20200Y-13150D03*
G54D14*
X1550Y-15125D03*
G54D13*
X1550Y-16125D03*
G54D14*
X1550Y-17325D03*
G54D13*
X1550Y-18325D03*
G54D16*
X12825Y-5625D03*
X17775Y-6675D03*
X13775Y-8425D03*
X11875Y-7800D03*
X3775Y-13300D03*
X4750Y-13000D03*
X12575Y-4900D03*
X14075Y-5750D03*
X14575Y-5750D03*
X9425Y-9025D03*
X9800Y-6450D03*
X15275Y-2700D03*
X15275Y-3150D03*
X13125Y-14275D03*
G54D17*
X13650Y-5175D02*
X13275Y-5175D01*
X13275Y-5175D02*
X12825Y-5625D01*
X13650Y-5175D02*
X16275Y-5175D01*
X16275Y-5175D02*
X17775Y-6675D01*
X20200Y-12150D02*
X17500Y-12150D01*
X17500Y-12150D02*
X13775Y-8425D01*
G54D18*
X17500Y-12150D02*
X13775Y-8425D01*
G54D17*
X662Y-12637D02*
X912Y-12637D01*
X9550Y-4000D02*
X9925Y-4000D01*
X912Y-12637D02*
X9550Y-4000D01*
X13575Y-4000D02*
X19650Y-4000D01*
X9925Y-4000D02*
X13575Y-4000D01*
X19650Y-4000D02*
X20287Y-4637D01*
X11875Y-7800D02*
X11875Y-12200D01*
X11875Y-12200D02*
X10325Y-13750D01*
X10325Y-13750D02*
X4225Y-13750D01*
X4225Y-13750D02*
X3775Y-13300D01*
X9525Y-5675D02*
X11800Y-5675D01*
X11800Y-5675D02*
X12575Y-4900D01*
X5050Y-10150D02*
X4750Y-10450D01*
X4750Y-10450D02*
X4750Y-13000D01*
X9525Y-5675D02*
X5050Y-10150D01*
X10350Y-15280D02*
X10350Y-15825D01*
X13302Y-17525D02*
X12050Y-17525D01*
X10350Y-15825D02*
X12050Y-17525D01*
X1550Y-16125D02*
X975Y-16125D01*
X975Y-16125D02*
X662Y-16437D01*
X662Y-13637D02*
X662Y-16437D01*
X662Y-16437D02*
X662Y-17962D01*
X662Y-17962D02*
X1025Y-18325D01*
X1025Y-18325D02*
X1550Y-18325D01*
X3475Y-18475D02*
X1700Y-18475D01*
X1700Y-18475D02*
X1550Y-18325D01*
X17450Y-18500D02*
X18625Y-18500D01*
X18625Y-18500D02*
X19475Y-17650D01*
X19475Y-17650D02*
X19975Y-17650D01*
X20300Y-13250D02*
X20200Y-13150D01*
X20300Y-17325D02*
X20300Y-13250D01*
X19975Y-17650D02*
X20300Y-17325D01*
X10350Y-17450D02*
X10350Y-15280D01*
X14450Y-18500D02*
X14450Y-18025D01*
X13950Y-17525D02*
X13302Y-17525D01*
X14450Y-18025D02*
X13950Y-17525D01*
X7594Y-18509D02*
X9290Y-18509D01*
X9290Y-18509D02*
X10350Y-17450D01*
X7594Y-18509D02*
X6509Y-18509D01*
X6509Y-18509D02*
X6475Y-18475D01*
X3475Y-18475D02*
X6475Y-18475D01*
X3475Y-16475D02*
X6475Y-16475D01*
X14450Y-16500D02*
X17450Y-16500D01*
X20200Y-11150D02*
X18675Y-11150D01*
X14575Y-7050D02*
X14575Y-5750D01*
X18675Y-11150D02*
X14575Y-7050D01*
X9800Y-8650D02*
X9800Y-9825D01*
X9800Y-9825D02*
X10750Y-10775D01*
X10050Y-13000D02*
X9200Y-13000D01*
X10750Y-12300D02*
X10050Y-13000D01*
X10750Y-10775D02*
X10750Y-12300D01*
X9800Y-6450D02*
X9800Y-8650D01*
X9800Y-8650D02*
X9425Y-9025D01*
X9800Y-6450D02*
X13375Y-6450D01*
X13375Y-6450D02*
X14075Y-5750D01*
X14575Y-5750D02*
X14075Y-5750D01*
G54D18*
X9800Y-8650D02*
X9425Y-9025D01*
G54D17*
X15275Y-3150D02*
X14900Y-3525D01*
X8500Y-3525D02*
X7900Y-4125D01*
X14900Y-3525D02*
X8500Y-3525D01*
X15275Y-3150D02*
X15275Y-2700D01*
X13125Y-14275D02*
X17100Y-14275D01*
X17100Y-14275D02*
X19475Y-16650D01*
G54D10*
G36*
X10362Y-12139D02*
X9889Y-12612D01*
X9554Y-12612D01*
X9497Y-12555D01*
X9304Y-12475D01*
X9096Y-12474D01*
X8903Y-12554D01*
X8755Y-12702D01*
X8699Y-12835D01*
X8645Y-12703D01*
X8497Y-12555D01*
X8304Y-12475D01*
X8096Y-12474D01*
X7903Y-12554D01*
X7755Y-12702D01*
X7699Y-12835D01*
X7645Y-12703D01*
X7497Y-12555D01*
X7304Y-12475D01*
X7096Y-12474D01*
X6903Y-12554D01*
X6755Y-12702D01*
X6725Y-12774D01*
X6725Y-12774D01*
X6724Y-12675D01*
X6686Y-12583D01*
X6616Y-12512D01*
X6524Y-12474D01*
X6312Y-12475D01*
X6250Y-12537D01*
X6250Y-12950D01*
X6257Y-12950D01*
X6257Y-13050D01*
X6250Y-13050D01*
X6250Y-13057D01*
X6150Y-13057D01*
X6150Y-13050D01*
X6150Y-12950D01*
X6150Y-12537D01*
X6087Y-12475D01*
X5875Y-12474D01*
X5783Y-12512D01*
X5713Y-12583D01*
X5675Y-12675D01*
X5674Y-12774D01*
X5675Y-12887D01*
X5737Y-12950D01*
X6150Y-12950D01*
X6150Y-13050D01*
X5737Y-13050D01*
X5675Y-13112D01*
X5674Y-13225D01*
X5675Y-13324D01*
X5690Y-13362D01*
X4986Y-13362D01*
X4990Y-13360D01*
X5110Y-13241D01*
X5174Y-13084D01*
X5175Y-12915D01*
X5137Y-12825D01*
X5137Y-10610D01*
X5324Y-10424D01*
X5324Y-10424D01*
X5324Y-10424D01*
X9375Y-6373D01*
X9374Y-6534D01*
X9412Y-6624D01*
X9412Y-8489D01*
X9274Y-8627D01*
X9184Y-8664D01*
X9064Y-8783D01*
X9000Y-8940D01*
X8999Y-9109D01*
X9064Y-9265D01*
X9183Y-9385D01*
X9340Y-9449D01*
X9412Y-9449D01*
X9412Y-9825D01*
X9441Y-9973D01*
X9525Y-10099D01*
X10362Y-10935D01*
X10362Y-11187D01*
X10300Y-11125D01*
X10105Y-11045D01*
X9895Y-11044D01*
X9700Y-11125D01*
X9599Y-11225D01*
X9500Y-11125D01*
X9305Y-11045D01*
X9095Y-11044D01*
X8900Y-11125D01*
X8750Y-11274D01*
X8670Y-11469D01*
X8669Y-11679D01*
X8750Y-11874D01*
X8899Y-12024D01*
X9094Y-12104D01*
X9304Y-12105D01*
X9499Y-12024D01*
X9600Y-11924D01*
X9699Y-12024D01*
X9894Y-12104D01*
X10104Y-12105D01*
X10299Y-12024D01*
X10362Y-11962D01*
X10362Y-12139D01*
X10362Y-12139D01*
G37*
G54D19*
X10362Y-12139D02*
X9889Y-12612D01*
X9554Y-12612D01*
X9497Y-12555D01*
X9304Y-12475D01*
X9096Y-12474D01*
X8903Y-12554D01*
X8755Y-12702D01*
X8699Y-12835D01*
X8645Y-12703D01*
X8497Y-12555D01*
X8304Y-12475D01*
X8096Y-12474D01*
X7903Y-12554D01*
X7755Y-12702D01*
X7699Y-12835D01*
X7645Y-12703D01*
X7497Y-12555D01*
X7304Y-12475D01*
X7096Y-12474D01*
X6903Y-12554D01*
X6755Y-12702D01*
X6725Y-12774D01*
X6725Y-12774D01*
X6724Y-12675D01*
X6686Y-12583D01*
X6616Y-12512D01*
X6524Y-12474D01*
X6312Y-12475D01*
X6250Y-12537D01*
X6250Y-12950D01*
X6257Y-12950D01*
X6257Y-13050D01*
X6250Y-13050D01*
X6250Y-13057D01*
X6150Y-13057D01*
X6150Y-13050D01*
X6150Y-12950D01*
X6150Y-12537D01*
X6087Y-12475D01*
X5875Y-12474D01*
X5783Y-12512D01*
X5713Y-12583D01*
X5675Y-12675D01*
X5674Y-12774D01*
X5675Y-12887D01*
X5737Y-12950D01*
X6150Y-12950D01*
X6150Y-13050D01*
X5737Y-13050D01*
X5675Y-13112D01*
X5674Y-13225D01*
X5675Y-13324D01*
X5690Y-13362D01*
X4986Y-13362D01*
X4990Y-13360D01*
X5110Y-13241D01*
X5174Y-13084D01*
X5175Y-12915D01*
X5137Y-12825D01*
X5137Y-10610D01*
X5324Y-10424D01*
X5324Y-10424D01*
X5324Y-10424D01*
X9375Y-6373D01*
X9374Y-6534D01*
X9412Y-6624D01*
X9412Y-8489D01*
X9274Y-8627D01*
X9184Y-8664D01*
X9064Y-8783D01*
X9000Y-8940D01*
X8999Y-9109D01*
X9064Y-9265D01*
X9183Y-9385D01*
X9340Y-9449D01*
X9412Y-9449D01*
X9412Y-9825D01*
X9441Y-9973D01*
X9525Y-10099D01*
X10362Y-10935D01*
X10362Y-11187D01*
X10300Y-11125D01*
X10105Y-11045D01*
X9895Y-11044D01*
X9700Y-11125D01*
X9599Y-11225D01*
X9500Y-11125D01*
X9305Y-11045D01*
X9095Y-11044D01*
X8900Y-11125D01*
X8750Y-11274D01*
X8670Y-11469D01*
X8669Y-11679D01*
X8750Y-11874D01*
X8899Y-12024D01*
X9094Y-12104D01*
X9304Y-12105D01*
X9499Y-12024D01*
X9600Y-11924D01*
X9699Y-12024D01*
X9894Y-12104D01*
X10104Y-12105D01*
X10299Y-12024D01*
X10362Y-11962D01*
X10362Y-12139D01*
G54D10*
G36*
X20730Y-3337D02*
X20585Y-3192D01*
X20467Y-3143D01*
X20547Y-3110D01*
X20572Y-3017D01*
X20275Y-2720D01*
X20204Y-2791D01*
X20204Y-2650D01*
X19907Y-2352D01*
X19814Y-2377D01*
X19745Y-2574D01*
X19756Y-2782D01*
X19814Y-2922D01*
X19907Y-2947D01*
X20204Y-2650D01*
X20204Y-2791D01*
X19977Y-3017D01*
X20002Y-3110D01*
X20102Y-3145D01*
X19990Y-3192D01*
X19842Y-3339D01*
X19762Y-3532D01*
X19762Y-3634D01*
X19650Y-3612D01*
X15361Y-3612D01*
X15425Y-3547D01*
X15515Y-3510D01*
X15635Y-3391D01*
X15699Y-3234D01*
X15700Y-3065D01*
X15662Y-2975D01*
X15662Y-2874D01*
X15699Y-2784D01*
X15700Y-2615D01*
X15635Y-2459D01*
X15516Y-2339D01*
X15359Y-2275D01*
X15190Y-2274D01*
X15034Y-2339D01*
X14914Y-2458D01*
X14850Y-2615D01*
X14849Y-2784D01*
X14887Y-2874D01*
X14887Y-2975D01*
X14877Y-2999D01*
X14739Y-3137D01*
X8500Y-3137D01*
X8351Y-3166D01*
X8225Y-3250D01*
X7876Y-3599D01*
X7796Y-3599D01*
X7603Y-3679D01*
X7455Y-3827D01*
X7399Y-3960D01*
X7345Y-3828D01*
X7197Y-3680D01*
X7004Y-3600D01*
X6796Y-3599D01*
X6603Y-3679D01*
X6455Y-3827D01*
X6399Y-3960D01*
X6345Y-3828D01*
X6197Y-3680D01*
X6004Y-3600D01*
X5796Y-3599D01*
X5603Y-3679D01*
X5455Y-3827D01*
X5425Y-3899D01*
X5425Y-3899D01*
X5424Y-3800D01*
X5386Y-3708D01*
X5316Y-3637D01*
X5224Y-3599D01*
X5012Y-3600D01*
X4950Y-3662D01*
X4950Y-4075D01*
X4957Y-4075D01*
X4957Y-4175D01*
X4950Y-4175D01*
X4950Y-4587D01*
X5012Y-4650D01*
X5224Y-4650D01*
X5316Y-4612D01*
X5386Y-4541D01*
X5424Y-4449D01*
X5425Y-4350D01*
X5425Y-4350D01*
X5454Y-4422D01*
X5602Y-4569D01*
X5795Y-4649D01*
X6003Y-4650D01*
X6197Y-4570D01*
X6344Y-4422D01*
X6400Y-4289D01*
X6454Y-4422D01*
X6602Y-4569D01*
X6795Y-4649D01*
X7003Y-4650D01*
X7197Y-4570D01*
X7344Y-4422D01*
X7400Y-4289D01*
X7454Y-4422D01*
X7602Y-4569D01*
X7795Y-4649D01*
X8003Y-4650D01*
X8197Y-4570D01*
X8344Y-4422D01*
X8424Y-4229D01*
X8424Y-4148D01*
X8660Y-3912D01*
X9088Y-3912D01*
X4850Y-8151D01*
X4850Y-4587D01*
X4850Y-4175D01*
X4850Y-4075D01*
X4850Y-3662D01*
X4787Y-3600D01*
X4575Y-3599D01*
X4483Y-3637D01*
X4413Y-3708D01*
X4375Y-3800D01*
X4374Y-3899D01*
X4375Y-4012D01*
X4437Y-4075D01*
X4850Y-4075D01*
X4850Y-4175D01*
X4437Y-4175D01*
X4375Y-4237D01*
X4374Y-4350D01*
X4375Y-4449D01*
X4413Y-4541D01*
X4483Y-4612D01*
X4575Y-4650D01*
X4787Y-4650D01*
X4850Y-4587D01*
X4850Y-8151D01*
X1136Y-11865D01*
X1187Y-11742D01*
X1187Y-11533D01*
X1107Y-11340D01*
X960Y-11192D01*
X827Y-11137D01*
X959Y-11082D01*
X1107Y-10935D01*
X1187Y-10742D01*
X1187Y-10533D01*
X1107Y-10340D01*
X960Y-10192D01*
X827Y-10137D01*
X959Y-10082D01*
X1107Y-9935D01*
X1187Y-9742D01*
X1187Y-9533D01*
X1107Y-9340D01*
X960Y-9192D01*
X827Y-9137D01*
X959Y-9082D01*
X1107Y-8935D01*
X1187Y-8742D01*
X1187Y-8533D01*
X1107Y-8340D01*
X960Y-8192D01*
X827Y-8137D01*
X959Y-8082D01*
X1107Y-7935D01*
X1187Y-7742D01*
X1187Y-7533D01*
X1107Y-7340D01*
X960Y-7192D01*
X827Y-7137D01*
X959Y-7082D01*
X1107Y-6935D01*
X1187Y-6742D01*
X1187Y-6533D01*
X1107Y-6340D01*
X960Y-6192D01*
X827Y-6137D01*
X959Y-6082D01*
X1107Y-5935D01*
X1187Y-5742D01*
X1187Y-5533D01*
X1107Y-5340D01*
X960Y-5192D01*
X827Y-5137D01*
X959Y-5082D01*
X1107Y-4935D01*
X1187Y-4742D01*
X1187Y-4533D01*
X1107Y-4340D01*
X960Y-4192D01*
X827Y-4137D01*
X959Y-4082D01*
X1107Y-3935D01*
X1187Y-3742D01*
X1187Y-3533D01*
X1107Y-3340D01*
X960Y-3192D01*
X827Y-3137D01*
X959Y-3082D01*
X1107Y-2935D01*
X1187Y-2742D01*
X1187Y-2533D01*
X1107Y-2340D01*
X960Y-2192D01*
X827Y-2137D01*
X959Y-2082D01*
X1107Y-1935D01*
X1187Y-1742D01*
X1187Y-1533D01*
X1107Y-1340D01*
X960Y-1192D01*
X827Y-1137D01*
X959Y-1082D01*
X1107Y-935D01*
X1187Y-742D01*
X1187Y-533D01*
X1107Y-340D01*
X1062Y-294D01*
X20730Y-294D01*
X20730Y-2375D01*
X20642Y-2352D01*
X20572Y-2423D01*
X20572Y-2282D01*
X20547Y-2189D01*
X20350Y-2120D01*
X20142Y-2131D01*
X20002Y-2189D01*
X19977Y-2282D01*
X20275Y-2579D01*
X20572Y-2282D01*
X20572Y-2423D01*
X20345Y-2650D01*
X20642Y-2947D01*
X20730Y-2924D01*
X20730Y-3337D01*
X20730Y-3337D01*
G37*
G54D19*
X20730Y-3337D02*
X20585Y-3192D01*
X20467Y-3143D01*
X20547Y-3110D01*
X20572Y-3017D01*
X20275Y-2720D01*
X20204Y-2791D01*
X20204Y-2650D01*
X19907Y-2352D01*
X19814Y-2377D01*
X19745Y-2574D01*
X19756Y-2782D01*
X19814Y-2922D01*
X19907Y-2947D01*
X20204Y-2650D01*
X20204Y-2791D01*
X19977Y-3017D01*
X20002Y-3110D01*
X20102Y-3145D01*
X19990Y-3192D01*
X19842Y-3339D01*
X19762Y-3532D01*
X19762Y-3634D01*
X19650Y-3612D01*
X15361Y-3612D01*
X15425Y-3547D01*
X15515Y-3510D01*
X15635Y-3391D01*
X15699Y-3234D01*
X15700Y-3065D01*
X15662Y-2975D01*
X15662Y-2874D01*
X15699Y-2784D01*
X15700Y-2615D01*
X15635Y-2459D01*
X15516Y-2339D01*
X15359Y-2275D01*
X15190Y-2274D01*
X15034Y-2339D01*
X14914Y-2458D01*
X14850Y-2615D01*
X14849Y-2784D01*
X14887Y-2874D01*
X14887Y-2975D01*
X14877Y-2999D01*
X14739Y-3137D01*
X8500Y-3137D01*
X8351Y-3166D01*
X8225Y-3250D01*
X7876Y-3599D01*
X7796Y-3599D01*
X7603Y-3679D01*
X7455Y-3827D01*
X7399Y-3960D01*
X7345Y-3828D01*
X7197Y-3680D01*
X7004Y-3600D01*
X6796Y-3599D01*
X6603Y-3679D01*
X6455Y-3827D01*
X6399Y-3960D01*
X6345Y-3828D01*
X6197Y-3680D01*
X6004Y-3600D01*
X5796Y-3599D01*
X5603Y-3679D01*
X5455Y-3827D01*
X5425Y-3899D01*
X5425Y-3899D01*
X5424Y-3800D01*
X5386Y-3708D01*
X5316Y-3637D01*
X5224Y-3599D01*
X5012Y-3600D01*
X4950Y-3662D01*
X4950Y-4075D01*
X4957Y-4075D01*
X4957Y-4175D01*
X4950Y-4175D01*
X4950Y-4587D01*
X5012Y-4650D01*
X5224Y-4650D01*
X5316Y-4612D01*
X5386Y-4541D01*
X5424Y-4449D01*
X5425Y-4350D01*
X5425Y-4350D01*
X5454Y-4422D01*
X5602Y-4569D01*
X5795Y-4649D01*
X6003Y-4650D01*
X6197Y-4570D01*
X6344Y-4422D01*
X6400Y-4289D01*
X6454Y-4422D01*
X6602Y-4569D01*
X6795Y-4649D01*
X7003Y-4650D01*
X7197Y-4570D01*
X7344Y-4422D01*
X7400Y-4289D01*
X7454Y-4422D01*
X7602Y-4569D01*
X7795Y-4649D01*
X8003Y-4650D01*
X8197Y-4570D01*
X8344Y-4422D01*
X8424Y-4229D01*
X8424Y-4148D01*
X8660Y-3912D01*
X9088Y-3912D01*
X4850Y-8151D01*
X4850Y-4587D01*
X4850Y-4175D01*
X4850Y-4075D01*
X4850Y-3662D01*
X4787Y-3600D01*
X4575Y-3599D01*
X4483Y-3637D01*
X4413Y-3708D01*
X4375Y-3800D01*
X4374Y-3899D01*
X4375Y-4012D01*
X4437Y-4075D01*
X4850Y-4075D01*
X4850Y-4175D01*
X4437Y-4175D01*
X4375Y-4237D01*
X4374Y-4350D01*
X4375Y-4449D01*
X4413Y-4541D01*
X4483Y-4612D01*
X4575Y-4650D01*
X4787Y-4650D01*
X4850Y-4587D01*
X4850Y-8151D01*
X1136Y-11865D01*
X1187Y-11742D01*
X1187Y-11533D01*
X1107Y-11340D01*
X960Y-11192D01*
X827Y-11137D01*
X959Y-11082D01*
X1107Y-10935D01*
X1187Y-10742D01*
X1187Y-10533D01*
X1107Y-10340D01*
X960Y-10192D01*
X827Y-10137D01*
X959Y-10082D01*
X1107Y-9935D01*
X1187Y-9742D01*
X1187Y-9533D01*
X1107Y-9340D01*
X960Y-9192D01*
X827Y-9137D01*
X959Y-9082D01*
X1107Y-8935D01*
X1187Y-8742D01*
X1187Y-8533D01*
X1107Y-8340D01*
X960Y-8192D01*
X827Y-8137D01*
X959Y-8082D01*
X1107Y-7935D01*
X1187Y-7742D01*
X1187Y-7533D01*
X1107Y-7340D01*
X960Y-7192D01*
X827Y-7137D01*
X959Y-7082D01*
X1107Y-6935D01*
X1187Y-6742D01*
X1187Y-6533D01*
X1107Y-6340D01*
X960Y-6192D01*
X827Y-6137D01*
X959Y-6082D01*
X1107Y-5935D01*
X1187Y-5742D01*
X1187Y-5533D01*
X1107Y-5340D01*
X960Y-5192D01*
X827Y-5137D01*
X959Y-5082D01*
X1107Y-4935D01*
X1187Y-4742D01*
X1187Y-4533D01*
X1107Y-4340D01*
X960Y-4192D01*
X827Y-4137D01*
X959Y-4082D01*
X1107Y-3935D01*
X1187Y-3742D01*
X1187Y-3533D01*
X1107Y-3340D01*
X960Y-3192D01*
X827Y-3137D01*
X959Y-3082D01*
X1107Y-2935D01*
X1187Y-2742D01*
X1187Y-2533D01*
X1107Y-2340D01*
X960Y-2192D01*
X827Y-2137D01*
X959Y-2082D01*
X1107Y-1935D01*
X1187Y-1742D01*
X1187Y-1533D01*
X1107Y-1340D01*
X960Y-1192D01*
X827Y-1137D01*
X959Y-1082D01*
X1107Y-935D01*
X1187Y-742D01*
X1187Y-533D01*
X1107Y-340D01*
X1062Y-294D01*
X20730Y-294D01*
X20730Y-2375D01*
X20642Y-2352D01*
X20572Y-2423D01*
X20572Y-2282D01*
X20547Y-2189D01*
X20350Y-2120D01*
X20142Y-2131D01*
X20002Y-2189D01*
X19977Y-2282D01*
X20275Y-2579D01*
X20572Y-2282D01*
X20572Y-2423D01*
X20345Y-2650D01*
X20642Y-2947D01*
X20730Y-2924D01*
X20730Y-3337D01*
G54D10*
G36*
X20730Y-18880D02*
X20729Y-18880D01*
X20729Y-13225D01*
X20725Y-13137D01*
X20725Y-12046D01*
X20645Y-11853D01*
X20497Y-11705D01*
X20425Y-11675D01*
X20524Y-11675D01*
X20616Y-11637D01*
X20686Y-11566D01*
X20724Y-11474D01*
X20725Y-11375D01*
X20725Y-10825D01*
X20687Y-10733D01*
X20616Y-10663D01*
X20524Y-10625D01*
X20425Y-10624D01*
X19875Y-10624D01*
X19783Y-10662D01*
X19713Y-10733D01*
X19701Y-10762D01*
X18835Y-10762D01*
X14962Y-6889D01*
X14962Y-5924D01*
X14999Y-5834D01*
X15000Y-5665D01*
X14957Y-5562D01*
X16114Y-5562D01*
X17377Y-6825D01*
X17414Y-6915D01*
X17533Y-7035D01*
X17690Y-7099D01*
X17859Y-7100D01*
X18015Y-7035D01*
X18135Y-6916D01*
X18199Y-6759D01*
X18200Y-6590D01*
X18135Y-6434D01*
X18016Y-6314D01*
X17925Y-6277D01*
X16549Y-4900D01*
X16423Y-4816D01*
X16275Y-4787D01*
X13650Y-4787D01*
X13275Y-4787D01*
X13126Y-4816D01*
X13000Y-4900D01*
X12999Y-4901D01*
X13000Y-4815D01*
X12935Y-4659D01*
X12816Y-4539D01*
X12659Y-4475D01*
X12490Y-4474D01*
X12334Y-4539D01*
X12214Y-4658D01*
X12177Y-4749D01*
X11639Y-5287D01*
X9525Y-5287D01*
X9376Y-5316D01*
X9250Y-5400D01*
X4775Y-9875D01*
X4775Y-9875D01*
X4475Y-10175D01*
X4391Y-10301D01*
X4362Y-10450D01*
X4362Y-12825D01*
X4325Y-12915D01*
X4324Y-13084D01*
X4389Y-13240D01*
X4508Y-13360D01*
X4514Y-13362D01*
X4385Y-13362D01*
X4172Y-13149D01*
X4135Y-13059D01*
X4016Y-12939D01*
X3859Y-12875D01*
X3690Y-12874D01*
X3534Y-12939D01*
X3414Y-13058D01*
X3350Y-13215D01*
X3349Y-13384D01*
X3414Y-13540D01*
X3533Y-13660D01*
X3624Y-13697D01*
X3950Y-14024D01*
X4076Y-14108D01*
X4225Y-14137D01*
X10325Y-14137D01*
X10473Y-14108D01*
X10599Y-14024D01*
X12149Y-12474D01*
X12149Y-12474D01*
X12205Y-12390D01*
X12233Y-12348D01*
X12233Y-12348D01*
X12262Y-12200D01*
X12262Y-12200D01*
X12262Y-7974D01*
X12299Y-7884D01*
X12300Y-7715D01*
X12235Y-7559D01*
X12116Y-7439D01*
X11959Y-7375D01*
X11790Y-7374D01*
X11634Y-7439D01*
X11514Y-7558D01*
X11450Y-7715D01*
X11449Y-7884D01*
X11487Y-7974D01*
X11487Y-12039D01*
X11115Y-12410D01*
X11137Y-12300D01*
X11137Y-12300D01*
X11137Y-10775D01*
X11108Y-10626D01*
X11024Y-10500D01*
X10187Y-9664D01*
X10187Y-8650D01*
X10187Y-6837D01*
X13375Y-6837D01*
X13523Y-6808D01*
X13649Y-6724D01*
X14187Y-6186D01*
X14187Y-7050D01*
X14216Y-7198D01*
X14300Y-7324D01*
X18400Y-11424D01*
X18526Y-11508D01*
X18675Y-11537D01*
X19701Y-11537D01*
X19712Y-11566D01*
X19783Y-11636D01*
X19875Y-11674D01*
X19974Y-11675D01*
X19974Y-11675D01*
X19903Y-11704D01*
X19845Y-11762D01*
X17660Y-11762D01*
X14172Y-8274D01*
X14135Y-8184D01*
X14016Y-8064D01*
X13859Y-8000D01*
X13690Y-7999D01*
X13534Y-8064D01*
X13414Y-8183D01*
X13350Y-8340D01*
X13349Y-8509D01*
X13414Y-8665D01*
X13533Y-8785D01*
X13624Y-8822D01*
X17225Y-12424D01*
X17225Y-12424D01*
X17351Y-12508D01*
X17351Y-12508D01*
X17376Y-12513D01*
X17500Y-12537D01*
X19845Y-12537D01*
X19902Y-12594D01*
X20028Y-12647D01*
X19927Y-12689D01*
X19902Y-12782D01*
X20200Y-13079D01*
X20497Y-12782D01*
X20472Y-12689D01*
X20362Y-12650D01*
X20497Y-12595D01*
X20644Y-12447D01*
X20724Y-12254D01*
X20725Y-12046D01*
X20725Y-13137D01*
X20718Y-13017D01*
X20660Y-12877D01*
X20567Y-12852D01*
X20270Y-13150D01*
X20567Y-13447D01*
X20660Y-13422D01*
X20729Y-13225D01*
X20729Y-18880D01*
X20497Y-18880D01*
X20497Y-13517D01*
X20200Y-13220D01*
X20129Y-13291D01*
X20129Y-13150D01*
X19832Y-12852D01*
X19739Y-12877D01*
X19670Y-13074D01*
X19681Y-13282D01*
X19739Y-13422D01*
X19832Y-13447D01*
X20129Y-13150D01*
X20129Y-13291D01*
X19902Y-13517D01*
X19927Y-13610D01*
X20124Y-13679D01*
X20332Y-13668D01*
X20472Y-13610D01*
X20497Y-13517D01*
X20497Y-18880D01*
X20000Y-18880D01*
X20000Y-16546D01*
X19920Y-16353D01*
X19772Y-16205D01*
X19579Y-16125D01*
X19498Y-16125D01*
X17374Y-14000D01*
X17248Y-13916D01*
X17100Y-13887D01*
X13299Y-13887D01*
X13209Y-13850D01*
X13040Y-13849D01*
X12884Y-13914D01*
X12764Y-14033D01*
X12700Y-14190D01*
X12699Y-14359D01*
X12764Y-14515D01*
X12883Y-14635D01*
X13040Y-14699D01*
X13209Y-14700D01*
X13299Y-14662D01*
X16939Y-14662D01*
X18949Y-16673D01*
X18949Y-16753D01*
X19029Y-16947D01*
X19177Y-17094D01*
X19249Y-17124D01*
X19249Y-17124D01*
X19150Y-17125D01*
X19058Y-17163D01*
X18987Y-17233D01*
X18949Y-17325D01*
X18950Y-17537D01*
X19012Y-17600D01*
X19425Y-17600D01*
X19425Y-17592D01*
X19525Y-17592D01*
X19525Y-17600D01*
X19937Y-17600D01*
X20000Y-17537D01*
X20000Y-17325D01*
X19962Y-17233D01*
X19891Y-17163D01*
X19799Y-17125D01*
X19700Y-17124D01*
X19700Y-17124D01*
X19772Y-17095D01*
X19919Y-16947D01*
X19999Y-16754D01*
X20000Y-16546D01*
X20000Y-18880D01*
X20000Y-18880D01*
X20000Y-17974D01*
X20000Y-17762D01*
X19937Y-17700D01*
X19525Y-17700D01*
X19525Y-18112D01*
X19587Y-18175D01*
X19700Y-18175D01*
X19799Y-18174D01*
X19891Y-18136D01*
X19962Y-18066D01*
X20000Y-17974D01*
X20000Y-18880D01*
X19425Y-18880D01*
X19425Y-18112D01*
X19425Y-17700D01*
X19012Y-17700D01*
X18950Y-17762D01*
X18949Y-17974D01*
X18987Y-18066D01*
X19058Y-18136D01*
X19150Y-18174D01*
X19249Y-18175D01*
X19362Y-18175D01*
X19425Y-18112D01*
X19425Y-18880D01*
X17979Y-18880D01*
X17979Y-18575D01*
X17975Y-18487D01*
X17975Y-16396D01*
X17895Y-16203D01*
X17747Y-16055D01*
X17554Y-15975D01*
X17346Y-15974D01*
X17153Y-16054D01*
X17095Y-16112D01*
X14804Y-16112D01*
X14747Y-16055D01*
X14554Y-15975D01*
X14346Y-15974D01*
X14153Y-16054D01*
X14005Y-16202D01*
X13925Y-16395D01*
X13924Y-16603D01*
X14004Y-16797D01*
X14152Y-16944D01*
X14345Y-17024D01*
X14553Y-17025D01*
X14747Y-16945D01*
X14804Y-16887D01*
X17095Y-16887D01*
X17152Y-16944D01*
X17345Y-17024D01*
X17553Y-17025D01*
X17747Y-16945D01*
X17894Y-16797D01*
X17974Y-16604D01*
X17975Y-16396D01*
X17975Y-18487D01*
X17968Y-18367D01*
X17910Y-18227D01*
X17817Y-18202D01*
X17747Y-18273D01*
X17747Y-18132D01*
X17722Y-18039D01*
X17525Y-17970D01*
X17317Y-17981D01*
X17177Y-18039D01*
X17152Y-18132D01*
X17450Y-18429D01*
X17747Y-18132D01*
X17747Y-18273D01*
X17520Y-18500D01*
X17817Y-18797D01*
X17910Y-18772D01*
X17979Y-18575D01*
X17979Y-18880D01*
X17743Y-18880D01*
X17747Y-18867D01*
X17450Y-18570D01*
X17379Y-18641D01*
X17379Y-18500D01*
X17082Y-18202D01*
X16989Y-18227D01*
X16920Y-18424D01*
X16931Y-18632D01*
X16989Y-18772D01*
X17082Y-18797D01*
X17379Y-18500D01*
X17379Y-18641D01*
X17152Y-18867D01*
X17156Y-18880D01*
X14979Y-18880D01*
X14979Y-18575D01*
X14968Y-18367D01*
X14910Y-18227D01*
X14817Y-18202D01*
X14747Y-18273D01*
X14747Y-18132D01*
X14722Y-18039D01*
X14525Y-17970D01*
X14317Y-17981D01*
X14177Y-18039D01*
X14152Y-18132D01*
X14450Y-18429D01*
X14747Y-18132D01*
X14747Y-18273D01*
X14520Y-18500D01*
X14817Y-18797D01*
X14910Y-18772D01*
X14979Y-18575D01*
X14979Y-18880D01*
X14743Y-18880D01*
X14747Y-18867D01*
X14450Y-18570D01*
X14379Y-18641D01*
X14379Y-18500D01*
X14082Y-18202D01*
X13989Y-18227D01*
X13920Y-18424D01*
X13931Y-18632D01*
X13989Y-18772D01*
X14082Y-18797D01*
X14379Y-18500D01*
X14379Y-18641D01*
X14152Y-18867D01*
X14156Y-18880D01*
X13857Y-18880D01*
X13857Y-17606D01*
X13852Y-17513D01*
X13852Y-16431D01*
X13769Y-16229D01*
X13614Y-16074D01*
X13412Y-15990D01*
X13193Y-15990D01*
X12991Y-16074D01*
X12836Y-16228D01*
X12752Y-16430D01*
X12752Y-16649D01*
X12836Y-16851D01*
X12990Y-17006D01*
X13047Y-17030D01*
X13014Y-17043D01*
X12987Y-17139D01*
X13302Y-17454D01*
X13617Y-17139D01*
X13590Y-17043D01*
X13555Y-17031D01*
X13613Y-17007D01*
X13768Y-16852D01*
X13852Y-16650D01*
X13852Y-16431D01*
X13852Y-17513D01*
X13846Y-17388D01*
X13784Y-17237D01*
X13688Y-17209D01*
X13373Y-17525D01*
X13688Y-17840D01*
X13784Y-17812D01*
X13857Y-17606D01*
X13857Y-18880D01*
X13709Y-18880D01*
X13768Y-18821D01*
X13852Y-18619D01*
X13852Y-18400D01*
X13769Y-18198D01*
X13614Y-18043D01*
X13558Y-18019D01*
X13590Y-18006D01*
X13617Y-17910D01*
X13302Y-17595D01*
X13232Y-17666D01*
X13232Y-17525D01*
X12916Y-17209D01*
X12821Y-17237D01*
X12747Y-17443D01*
X12758Y-17661D01*
X12821Y-17812D01*
X12916Y-17840D01*
X13232Y-17525D01*
X13232Y-17666D01*
X12987Y-17910D01*
X13014Y-18006D01*
X13049Y-18018D01*
X12991Y-18042D01*
X12836Y-18197D01*
X12752Y-18399D01*
X12752Y-18618D01*
X12836Y-18820D01*
X12896Y-18880D01*
X11229Y-18880D01*
X11229Y-15960D01*
X11229Y-14601D01*
X11191Y-14509D01*
X11121Y-14439D01*
X11029Y-14401D01*
X10930Y-14400D01*
X10462Y-14400D01*
X10400Y-14463D01*
X10400Y-15230D01*
X11167Y-15230D01*
X11229Y-15168D01*
X11229Y-14601D01*
X11229Y-15960D01*
X11229Y-15393D01*
X11167Y-15330D01*
X10400Y-15330D01*
X10400Y-16098D01*
X10462Y-16160D01*
X10930Y-16160D01*
X11029Y-16160D01*
X11121Y-16122D01*
X11191Y-16052D01*
X11229Y-15960D01*
X11229Y-18880D01*
X10300Y-18880D01*
X10300Y-16098D01*
X10300Y-15330D01*
X10300Y-15230D01*
X10300Y-14463D01*
X10237Y-14400D01*
X9769Y-14400D01*
X9670Y-14401D01*
X9578Y-14439D01*
X9508Y-14509D01*
X9470Y-14601D01*
X9470Y-15168D01*
X9532Y-15230D01*
X10300Y-15230D01*
X10300Y-15330D01*
X9532Y-15330D01*
X9470Y-15393D01*
X9470Y-15960D01*
X9508Y-16052D01*
X9578Y-16122D01*
X9670Y-16160D01*
X9769Y-16160D01*
X10237Y-16160D01*
X10300Y-16098D01*
X10300Y-18880D01*
X8148Y-18880D01*
X8014Y-18880D01*
X8025Y-18869D01*
X7980Y-18824D01*
X8075Y-18797D01*
X8148Y-18591D01*
X8144Y-18497D01*
X8144Y-16431D01*
X8060Y-16229D01*
X7906Y-16074D01*
X7703Y-15990D01*
X7485Y-15990D01*
X7282Y-16074D01*
X7128Y-16228D01*
X7044Y-16430D01*
X7043Y-16649D01*
X7127Y-16851D01*
X7282Y-17006D01*
X7484Y-17090D01*
X7703Y-17090D01*
X7905Y-17007D01*
X8060Y-16852D01*
X8143Y-16650D01*
X8144Y-16431D01*
X8144Y-18497D01*
X8137Y-18372D01*
X8075Y-18221D01*
X7980Y-18194D01*
X7909Y-18264D01*
X7909Y-18123D01*
X7881Y-18027D01*
X7675Y-17954D01*
X7457Y-17965D01*
X7306Y-18027D01*
X7278Y-18123D01*
X7594Y-18438D01*
X7909Y-18123D01*
X7909Y-18264D01*
X7664Y-18509D01*
X7670Y-18514D01*
X7599Y-18585D01*
X7594Y-18579D01*
X7588Y-18585D01*
X7523Y-18520D01*
X7517Y-18514D01*
X7523Y-18509D01*
X7208Y-18194D01*
X7112Y-18221D01*
X7039Y-18427D01*
X7050Y-18646D01*
X7112Y-18797D01*
X7208Y-18824D01*
X7162Y-18869D01*
X7173Y-18880D01*
X7004Y-18880D01*
X7004Y-18550D01*
X7000Y-18462D01*
X7000Y-16371D01*
X6920Y-16178D01*
X6772Y-16030D01*
X6579Y-15950D01*
X6371Y-15949D01*
X6178Y-16029D01*
X6120Y-16087D01*
X3829Y-16087D01*
X3772Y-16030D01*
X3579Y-15950D01*
X3371Y-15949D01*
X3178Y-16029D01*
X3030Y-16177D01*
X2950Y-16370D01*
X2949Y-16578D01*
X3029Y-16772D01*
X3177Y-16919D01*
X3370Y-16999D01*
X3578Y-17000D01*
X3772Y-16920D01*
X3829Y-16862D01*
X6120Y-16862D01*
X6177Y-16919D01*
X6370Y-16999D01*
X6578Y-17000D01*
X6772Y-16920D01*
X6919Y-16772D01*
X6999Y-16579D01*
X7000Y-16371D01*
X7000Y-18462D01*
X6993Y-18342D01*
X6935Y-18202D01*
X6842Y-18177D01*
X6772Y-18248D01*
X6772Y-18107D01*
X6747Y-18014D01*
X6550Y-17945D01*
X6342Y-17956D01*
X6202Y-18014D01*
X6177Y-18107D01*
X6475Y-18404D01*
X6772Y-18107D01*
X6772Y-18248D01*
X6545Y-18475D01*
X6842Y-18772D01*
X6935Y-18747D01*
X7004Y-18550D01*
X7004Y-18880D01*
X6762Y-18880D01*
X6772Y-18842D01*
X6475Y-18545D01*
X6404Y-18616D01*
X6404Y-18475D01*
X6107Y-18177D01*
X6014Y-18202D01*
X5945Y-18399D01*
X5956Y-18607D01*
X6014Y-18747D01*
X6107Y-18772D01*
X6404Y-18475D01*
X6404Y-18616D01*
X6177Y-18842D01*
X6187Y-18880D01*
X4004Y-18880D01*
X4004Y-18550D01*
X3993Y-18342D01*
X3935Y-18202D01*
X3842Y-18177D01*
X3772Y-18248D01*
X3772Y-18107D01*
X3747Y-18014D01*
X3550Y-17945D01*
X3342Y-17956D01*
X3202Y-18014D01*
X3177Y-18107D01*
X3475Y-18404D01*
X3772Y-18107D01*
X3772Y-18248D01*
X3545Y-18475D01*
X3842Y-18772D01*
X3935Y-18747D01*
X4004Y-18550D01*
X4004Y-18880D01*
X3762Y-18880D01*
X3772Y-18842D01*
X3475Y-18545D01*
X3404Y-18616D01*
X3404Y-18475D01*
X3107Y-18177D01*
X3014Y-18202D01*
X2945Y-18399D01*
X2956Y-18607D01*
X3014Y-18747D01*
X3107Y-18772D01*
X3404Y-18475D01*
X3404Y-18616D01*
X3177Y-18842D01*
X3187Y-18880D01*
X2079Y-18880D01*
X2079Y-18400D01*
X2079Y-16200D01*
X2075Y-16111D01*
X2075Y-15350D01*
X2075Y-14800D01*
X2037Y-14708D01*
X1966Y-14638D01*
X1874Y-14600D01*
X1775Y-14599D01*
X1225Y-14599D01*
X1187Y-14615D01*
X1187Y-13962D01*
X1187Y-13750D01*
X1125Y-13687D01*
X712Y-13687D01*
X712Y-14100D01*
X775Y-14162D01*
X887Y-14162D01*
X987Y-14162D01*
X1079Y-14124D01*
X1149Y-14053D01*
X1187Y-13962D01*
X1187Y-14615D01*
X1133Y-14637D01*
X1063Y-14708D01*
X1025Y-14800D01*
X1024Y-14899D01*
X1024Y-15449D01*
X1062Y-15541D01*
X1133Y-15611D01*
X1225Y-15649D01*
X1312Y-15650D01*
X1277Y-15664D01*
X1252Y-15757D01*
X1550Y-16054D01*
X1847Y-15757D01*
X1822Y-15664D01*
X1781Y-15650D01*
X1874Y-15650D01*
X1966Y-15612D01*
X2036Y-15541D01*
X2074Y-15449D01*
X2075Y-15350D01*
X2075Y-16111D01*
X2068Y-15992D01*
X2010Y-15852D01*
X1917Y-15827D01*
X1620Y-16125D01*
X1917Y-16422D01*
X2010Y-16397D01*
X2079Y-16200D01*
X2079Y-18400D01*
X2075Y-18311D01*
X2075Y-17550D01*
X2075Y-17000D01*
X2037Y-16908D01*
X1966Y-16838D01*
X1874Y-16800D01*
X1847Y-16800D01*
X1847Y-16492D01*
X1550Y-16195D01*
X1479Y-16266D01*
X1479Y-16125D01*
X1182Y-15827D01*
X1089Y-15852D01*
X1020Y-16049D01*
X1031Y-16257D01*
X1089Y-16397D01*
X1182Y-16422D01*
X1479Y-16125D01*
X1479Y-16266D01*
X1252Y-16492D01*
X1277Y-16585D01*
X1474Y-16654D01*
X1682Y-16643D01*
X1822Y-16585D01*
X1847Y-16492D01*
X1847Y-16800D01*
X1775Y-16799D01*
X1225Y-16799D01*
X1133Y-16837D01*
X1063Y-16908D01*
X1025Y-17000D01*
X1024Y-17099D01*
X1024Y-17649D01*
X1062Y-17741D01*
X1133Y-17811D01*
X1225Y-17849D01*
X1312Y-17850D01*
X1277Y-17864D01*
X1252Y-17957D01*
X1550Y-18254D01*
X1847Y-17957D01*
X1822Y-17864D01*
X1781Y-17850D01*
X1874Y-17850D01*
X1966Y-17812D01*
X2036Y-17741D01*
X2074Y-17649D01*
X2075Y-17550D01*
X2075Y-18311D01*
X2068Y-18192D01*
X2010Y-18052D01*
X1917Y-18027D01*
X1620Y-18325D01*
X1917Y-18622D01*
X2010Y-18597D01*
X2079Y-18400D01*
X2079Y-18880D01*
X1847Y-18880D01*
X1847Y-18692D01*
X1550Y-18395D01*
X1479Y-18466D01*
X1479Y-18325D01*
X1182Y-18027D01*
X1089Y-18052D01*
X1020Y-18249D01*
X1031Y-18457D01*
X1089Y-18597D01*
X1182Y-18622D01*
X1479Y-18325D01*
X1479Y-18466D01*
X1252Y-18692D01*
X1277Y-18785D01*
X1474Y-18854D01*
X1682Y-18843D01*
X1822Y-18785D01*
X1847Y-18692D01*
X1847Y-18880D01*
X294Y-18880D01*
X294Y-14144D01*
X337Y-14162D01*
X437Y-14162D01*
X550Y-14162D01*
X612Y-14100D01*
X612Y-13687D01*
X604Y-13687D01*
X604Y-13587D01*
X612Y-13587D01*
X612Y-13579D01*
X712Y-13579D01*
X712Y-13587D01*
X1125Y-13587D01*
X1187Y-13525D01*
X1187Y-13312D01*
X1149Y-13221D01*
X1079Y-13150D01*
X987Y-13112D01*
X887Y-13112D01*
X887Y-13112D01*
X959Y-13082D01*
X1043Y-12999D01*
X1060Y-12995D01*
X1186Y-12911D01*
X9710Y-4387D01*
X9925Y-4387D01*
X13575Y-4387D01*
X19489Y-4387D01*
X19762Y-4660D01*
X19762Y-4741D01*
X19842Y-4934D01*
X19989Y-5082D01*
X20122Y-5137D01*
X19990Y-5192D01*
X19842Y-5339D01*
X19762Y-5532D01*
X19762Y-5741D01*
X19842Y-5934D01*
X19989Y-6082D01*
X20122Y-6137D01*
X19990Y-6192D01*
X19842Y-6339D01*
X19762Y-6532D01*
X19762Y-6741D01*
X19842Y-6934D01*
X19989Y-7082D01*
X20122Y-7137D01*
X19990Y-7192D01*
X19842Y-7339D01*
X19762Y-7532D01*
X19762Y-7741D01*
X19842Y-7934D01*
X19989Y-8082D01*
X20122Y-8137D01*
X19990Y-8192D01*
X19842Y-8339D01*
X19762Y-8532D01*
X19762Y-8741D01*
X19842Y-8934D01*
X19989Y-9082D01*
X20062Y-9112D01*
X19962Y-9112D01*
X19871Y-9150D01*
X19800Y-9220D01*
X19762Y-9312D01*
X19762Y-9412D01*
X19762Y-9962D01*
X19800Y-10053D01*
X19870Y-10124D01*
X19962Y-10162D01*
X20062Y-10162D01*
X20612Y-10162D01*
X20703Y-10124D01*
X20730Y-10098D01*
X20730Y-18880D01*
X20730Y-18880D01*
G37*
G54D19*
X20730Y-18880D02*
X20729Y-18880D01*
X20729Y-13225D01*
X20725Y-13137D01*
X20725Y-12046D01*
X20645Y-11853D01*
X20497Y-11705D01*
X20425Y-11675D01*
X20524Y-11675D01*
X20616Y-11637D01*
X20686Y-11566D01*
X20724Y-11474D01*
X20725Y-11375D01*
X20725Y-10825D01*
X20687Y-10733D01*
X20616Y-10663D01*
X20524Y-10625D01*
X20425Y-10624D01*
X19875Y-10624D01*
X19783Y-10662D01*
X19713Y-10733D01*
X19701Y-10762D01*
X18835Y-10762D01*
X14962Y-6889D01*
X14962Y-5924D01*
X14999Y-5834D01*
X15000Y-5665D01*
X14957Y-5562D01*
X16114Y-5562D01*
X17377Y-6825D01*
X17414Y-6915D01*
X17533Y-7035D01*
X17690Y-7099D01*
X17859Y-7100D01*
X18015Y-7035D01*
X18135Y-6916D01*
X18199Y-6759D01*
X18200Y-6590D01*
X18135Y-6434D01*
X18016Y-6314D01*
X17925Y-6277D01*
X16549Y-4900D01*
X16423Y-4816D01*
X16275Y-4787D01*
X13650Y-4787D01*
X13275Y-4787D01*
X13126Y-4816D01*
X13000Y-4900D01*
X12999Y-4901D01*
X13000Y-4815D01*
X12935Y-4659D01*
X12816Y-4539D01*
X12659Y-4475D01*
X12490Y-4474D01*
X12334Y-4539D01*
X12214Y-4658D01*
X12177Y-4749D01*
X11639Y-5287D01*
X9525Y-5287D01*
X9376Y-5316D01*
X9250Y-5400D01*
X4775Y-9875D01*
X4775Y-9875D01*
X4475Y-10175D01*
X4391Y-10301D01*
X4362Y-10450D01*
X4362Y-12825D01*
X4325Y-12915D01*
X4324Y-13084D01*
X4389Y-13240D01*
X4508Y-13360D01*
X4514Y-13362D01*
X4385Y-13362D01*
X4172Y-13149D01*
X4135Y-13059D01*
X4016Y-12939D01*
X3859Y-12875D01*
X3690Y-12874D01*
X3534Y-12939D01*
X3414Y-13058D01*
X3350Y-13215D01*
X3349Y-13384D01*
X3414Y-13540D01*
X3533Y-13660D01*
X3624Y-13697D01*
X3950Y-14024D01*
X4076Y-14108D01*
X4225Y-14137D01*
X10325Y-14137D01*
X10473Y-14108D01*
X10599Y-14024D01*
X12149Y-12474D01*
X12149Y-12474D01*
X12205Y-12390D01*
X12233Y-12348D01*
X12233Y-12348D01*
X12262Y-12200D01*
X12262Y-12200D01*
X12262Y-7974D01*
X12299Y-7884D01*
X12300Y-7715D01*
X12235Y-7559D01*
X12116Y-7439D01*
X11959Y-7375D01*
X11790Y-7374D01*
X11634Y-7439D01*
X11514Y-7558D01*
X11450Y-7715D01*
X11449Y-7884D01*
X11487Y-7974D01*
X11487Y-12039D01*
X11115Y-12410D01*
X11137Y-12300D01*
X11137Y-12300D01*
X11137Y-10775D01*
X11108Y-10626D01*
X11024Y-10500D01*
X10187Y-9664D01*
X10187Y-8650D01*
X10187Y-6837D01*
X13375Y-6837D01*
X13523Y-6808D01*
X13649Y-6724D01*
X14187Y-6186D01*
X14187Y-7050D01*
X14216Y-7198D01*
X14300Y-7324D01*
X18400Y-11424D01*
X18526Y-11508D01*
X18675Y-11537D01*
X19701Y-11537D01*
X19712Y-11566D01*
X19783Y-11636D01*
X19875Y-11674D01*
X19974Y-11675D01*
X19974Y-11675D01*
X19903Y-11704D01*
X19845Y-11762D01*
X17660Y-11762D01*
X14172Y-8274D01*
X14135Y-8184D01*
X14016Y-8064D01*
X13859Y-8000D01*
X13690Y-7999D01*
X13534Y-8064D01*
X13414Y-8183D01*
X13350Y-8340D01*
X13349Y-8509D01*
X13414Y-8665D01*
X13533Y-8785D01*
X13624Y-8822D01*
X17225Y-12424D01*
X17225Y-12424D01*
X17351Y-12508D01*
X17351Y-12508D01*
X17376Y-12513D01*
X17500Y-12537D01*
X19845Y-12537D01*
X19902Y-12594D01*
X20028Y-12647D01*
X19927Y-12689D01*
X19902Y-12782D01*
X20200Y-13079D01*
X20497Y-12782D01*
X20472Y-12689D01*
X20362Y-12650D01*
X20497Y-12595D01*
X20644Y-12447D01*
X20724Y-12254D01*
X20725Y-12046D01*
X20725Y-13137D01*
X20718Y-13017D01*
X20660Y-12877D01*
X20567Y-12852D01*
X20270Y-13150D01*
X20567Y-13447D01*
X20660Y-13422D01*
X20729Y-13225D01*
X20729Y-18880D01*
X20497Y-18880D01*
X20497Y-13517D01*
X20200Y-13220D01*
X20129Y-13291D01*
X20129Y-13150D01*
X19832Y-12852D01*
X19739Y-12877D01*
X19670Y-13074D01*
X19681Y-13282D01*
X19739Y-13422D01*
X19832Y-13447D01*
X20129Y-13150D01*
X20129Y-13291D01*
X19902Y-13517D01*
X19927Y-13610D01*
X20124Y-13679D01*
X20332Y-13668D01*
X20472Y-13610D01*
X20497Y-13517D01*
X20497Y-18880D01*
X20000Y-18880D01*
X20000Y-16546D01*
X19920Y-16353D01*
X19772Y-16205D01*
X19579Y-16125D01*
X19498Y-16125D01*
X17374Y-14000D01*
X17248Y-13916D01*
X17100Y-13887D01*
X13299Y-13887D01*
X13209Y-13850D01*
X13040Y-13849D01*
X12884Y-13914D01*
X12764Y-14033D01*
X12700Y-14190D01*
X12699Y-14359D01*
X12764Y-14515D01*
X12883Y-14635D01*
X13040Y-14699D01*
X13209Y-14700D01*
X13299Y-14662D01*
X16939Y-14662D01*
X18949Y-16673D01*
X18949Y-16753D01*
X19029Y-16947D01*
X19177Y-17094D01*
X19249Y-17124D01*
X19249Y-17124D01*
X19150Y-17125D01*
X19058Y-17163D01*
X18987Y-17233D01*
X18949Y-17325D01*
X18950Y-17537D01*
X19012Y-17600D01*
X19425Y-17600D01*
X19425Y-17592D01*
X19525Y-17592D01*
X19525Y-17600D01*
X19937Y-17600D01*
X20000Y-17537D01*
X20000Y-17325D01*
X19962Y-17233D01*
X19891Y-17163D01*
X19799Y-17125D01*
X19700Y-17124D01*
X19700Y-17124D01*
X19772Y-17095D01*
X19919Y-16947D01*
X19999Y-16754D01*
X20000Y-16546D01*
X20000Y-18880D01*
X20000Y-18880D01*
X20000Y-17974D01*
X20000Y-17762D01*
X19937Y-17700D01*
X19525Y-17700D01*
X19525Y-18112D01*
X19587Y-18175D01*
X19700Y-18175D01*
X19799Y-18174D01*
X19891Y-18136D01*
X19962Y-18066D01*
X20000Y-17974D01*
X20000Y-18880D01*
X19425Y-18880D01*
X19425Y-18112D01*
X19425Y-17700D01*
X19012Y-17700D01*
X18950Y-17762D01*
X18949Y-17974D01*
X18987Y-18066D01*
X19058Y-18136D01*
X19150Y-18174D01*
X19249Y-18175D01*
X19362Y-18175D01*
X19425Y-18112D01*
X19425Y-18880D01*
X17979Y-18880D01*
X17979Y-18575D01*
X17975Y-18487D01*
X17975Y-16396D01*
X17895Y-16203D01*
X17747Y-16055D01*
X17554Y-15975D01*
X17346Y-15974D01*
X17153Y-16054D01*
X17095Y-16112D01*
X14804Y-16112D01*
X14747Y-16055D01*
X14554Y-15975D01*
X14346Y-15974D01*
X14153Y-16054D01*
X14005Y-16202D01*
X13925Y-16395D01*
X13924Y-16603D01*
X14004Y-16797D01*
X14152Y-16944D01*
X14345Y-17024D01*
X14553Y-17025D01*
X14747Y-16945D01*
X14804Y-16887D01*
X17095Y-16887D01*
X17152Y-16944D01*
X17345Y-17024D01*
X17553Y-17025D01*
X17747Y-16945D01*
X17894Y-16797D01*
X17974Y-16604D01*
X17975Y-16396D01*
X17975Y-18487D01*
X17968Y-18367D01*
X17910Y-18227D01*
X17817Y-18202D01*
X17747Y-18273D01*
X17747Y-18132D01*
X17722Y-18039D01*
X17525Y-17970D01*
X17317Y-17981D01*
X17177Y-18039D01*
X17152Y-18132D01*
X17450Y-18429D01*
X17747Y-18132D01*
X17747Y-18273D01*
X17520Y-18500D01*
X17817Y-18797D01*
X17910Y-18772D01*
X17979Y-18575D01*
X17979Y-18880D01*
X17743Y-18880D01*
X17747Y-18867D01*
X17450Y-18570D01*
X17379Y-18641D01*
X17379Y-18500D01*
X17082Y-18202D01*
X16989Y-18227D01*
X16920Y-18424D01*
X16931Y-18632D01*
X16989Y-18772D01*
X17082Y-18797D01*
X17379Y-18500D01*
X17379Y-18641D01*
X17152Y-18867D01*
X17156Y-18880D01*
X14979Y-18880D01*
X14979Y-18575D01*
X14968Y-18367D01*
X14910Y-18227D01*
X14817Y-18202D01*
X14747Y-18273D01*
X14747Y-18132D01*
X14722Y-18039D01*
X14525Y-17970D01*
X14317Y-17981D01*
X14177Y-18039D01*
X14152Y-18132D01*
X14450Y-18429D01*
X14747Y-18132D01*
X14747Y-18273D01*
X14520Y-18500D01*
X14817Y-18797D01*
X14910Y-18772D01*
X14979Y-18575D01*
X14979Y-18880D01*
X14743Y-18880D01*
X14747Y-18867D01*
X14450Y-18570D01*
X14379Y-18641D01*
X14379Y-18500D01*
X14082Y-18202D01*
X13989Y-18227D01*
X13920Y-18424D01*
X13931Y-18632D01*
X13989Y-18772D01*
X14082Y-18797D01*
X14379Y-18500D01*
X14379Y-18641D01*
X14152Y-18867D01*
X14156Y-18880D01*
X13857Y-18880D01*
X13857Y-17606D01*
X13852Y-17513D01*
X13852Y-16431D01*
X13769Y-16229D01*
X13614Y-16074D01*
X13412Y-15990D01*
X13193Y-15990D01*
X12991Y-16074D01*
X12836Y-16228D01*
X12752Y-16430D01*
X12752Y-16649D01*
X12836Y-16851D01*
X12990Y-17006D01*
X13047Y-17030D01*
X13014Y-17043D01*
X12987Y-17139D01*
X13302Y-17454D01*
X13617Y-17139D01*
X13590Y-17043D01*
X13555Y-17031D01*
X13613Y-17007D01*
X13768Y-16852D01*
X13852Y-16650D01*
X13852Y-16431D01*
X13852Y-17513D01*
X13846Y-17388D01*
X13784Y-17237D01*
X13688Y-17209D01*
X13373Y-17525D01*
X13688Y-17840D01*
X13784Y-17812D01*
X13857Y-17606D01*
X13857Y-18880D01*
X13709Y-18880D01*
X13768Y-18821D01*
X13852Y-18619D01*
X13852Y-18400D01*
X13769Y-18198D01*
X13614Y-18043D01*
X13558Y-18019D01*
X13590Y-18006D01*
X13617Y-17910D01*
X13302Y-17595D01*
X13232Y-17666D01*
X13232Y-17525D01*
X12916Y-17209D01*
X12821Y-17237D01*
X12747Y-17443D01*
X12758Y-17661D01*
X12821Y-17812D01*
X12916Y-17840D01*
X13232Y-17525D01*
X13232Y-17666D01*
X12987Y-17910D01*
X13014Y-18006D01*
X13049Y-18018D01*
X12991Y-18042D01*
X12836Y-18197D01*
X12752Y-18399D01*
X12752Y-18618D01*
X12836Y-18820D01*
X12896Y-18880D01*
X11229Y-18880D01*
X11229Y-15960D01*
X11229Y-14601D01*
X11191Y-14509D01*
X11121Y-14439D01*
X11029Y-14401D01*
X10930Y-14400D01*
X10462Y-14400D01*
X10400Y-14463D01*
X10400Y-15230D01*
X11167Y-15230D01*
X11229Y-15168D01*
X11229Y-14601D01*
X11229Y-15960D01*
X11229Y-15393D01*
X11167Y-15330D01*
X10400Y-15330D01*
X10400Y-16098D01*
X10462Y-16160D01*
X10930Y-16160D01*
X11029Y-16160D01*
X11121Y-16122D01*
X11191Y-16052D01*
X11229Y-15960D01*
X11229Y-18880D01*
X10300Y-18880D01*
X10300Y-16098D01*
X10300Y-15330D01*
X10300Y-15230D01*
X10300Y-14463D01*
X10237Y-14400D01*
X9769Y-14400D01*
X9670Y-14401D01*
X9578Y-14439D01*
X9508Y-14509D01*
X9470Y-14601D01*
X9470Y-15168D01*
X9532Y-15230D01*
X10300Y-15230D01*
X10300Y-15330D01*
X9532Y-15330D01*
X9470Y-15393D01*
X9470Y-15960D01*
X9508Y-16052D01*
X9578Y-16122D01*
X9670Y-16160D01*
X9769Y-16160D01*
X10237Y-16160D01*
X10300Y-16098D01*
X10300Y-18880D01*
X8148Y-18880D01*
X8014Y-18880D01*
X8025Y-18869D01*
X7980Y-18824D01*
X8075Y-18797D01*
X8148Y-18591D01*
X8144Y-18497D01*
X8144Y-16431D01*
X8060Y-16229D01*
X7906Y-16074D01*
X7703Y-15990D01*
X7485Y-15990D01*
X7282Y-16074D01*
X7128Y-16228D01*
X7044Y-16430D01*
X7043Y-16649D01*
X7127Y-16851D01*
X7282Y-17006D01*
X7484Y-17090D01*
X7703Y-17090D01*
X7905Y-17007D01*
X8060Y-16852D01*
X8143Y-16650D01*
X8144Y-16431D01*
X8144Y-18497D01*
X8137Y-18372D01*
X8075Y-18221D01*
X7980Y-18194D01*
X7909Y-18264D01*
X7909Y-18123D01*
X7881Y-18027D01*
X7675Y-17954D01*
X7457Y-17965D01*
X7306Y-18027D01*
X7278Y-18123D01*
X7594Y-18438D01*
X7909Y-18123D01*
X7909Y-18264D01*
X7664Y-18509D01*
X7670Y-18514D01*
X7599Y-18585D01*
X7594Y-18579D01*
X7588Y-18585D01*
X7523Y-18520D01*
X7517Y-18514D01*
X7523Y-18509D01*
X7208Y-18194D01*
X7112Y-18221D01*
X7039Y-18427D01*
X7050Y-18646D01*
X7112Y-18797D01*
X7208Y-18824D01*
X7162Y-18869D01*
X7173Y-18880D01*
X7004Y-18880D01*
X7004Y-18550D01*
X7000Y-18462D01*
X7000Y-16371D01*
X6920Y-16178D01*
X6772Y-16030D01*
X6579Y-15950D01*
X6371Y-15949D01*
X6178Y-16029D01*
X6120Y-16087D01*
X3829Y-16087D01*
X3772Y-16030D01*
X3579Y-15950D01*
X3371Y-15949D01*
X3178Y-16029D01*
X3030Y-16177D01*
X2950Y-16370D01*
X2949Y-16578D01*
X3029Y-16772D01*
X3177Y-16919D01*
X3370Y-16999D01*
X3578Y-17000D01*
X3772Y-16920D01*
X3829Y-16862D01*
X6120Y-16862D01*
X6177Y-16919D01*
X6370Y-16999D01*
X6578Y-17000D01*
X6772Y-16920D01*
X6919Y-16772D01*
X6999Y-16579D01*
X7000Y-16371D01*
X7000Y-18462D01*
X6993Y-18342D01*
X6935Y-18202D01*
X6842Y-18177D01*
X6772Y-18248D01*
X6772Y-18107D01*
X6747Y-18014D01*
X6550Y-17945D01*
X6342Y-17956D01*
X6202Y-18014D01*
X6177Y-18107D01*
X6475Y-18404D01*
X6772Y-18107D01*
X6772Y-18248D01*
X6545Y-18475D01*
X6842Y-18772D01*
X6935Y-18747D01*
X7004Y-18550D01*
X7004Y-18880D01*
X6762Y-18880D01*
X6772Y-18842D01*
X6475Y-18545D01*
X6404Y-18616D01*
X6404Y-18475D01*
X6107Y-18177D01*
X6014Y-18202D01*
X5945Y-18399D01*
X5956Y-18607D01*
X6014Y-18747D01*
X6107Y-18772D01*
X6404Y-18475D01*
X6404Y-18616D01*
X6177Y-18842D01*
X6187Y-18880D01*
X4004Y-18880D01*
X4004Y-18550D01*
X3993Y-18342D01*
X3935Y-18202D01*
X3842Y-18177D01*
X3772Y-18248D01*
X3772Y-18107D01*
X3747Y-18014D01*
X3550Y-17945D01*
X3342Y-17956D01*
X3202Y-18014D01*
X3177Y-18107D01*
X3475Y-18404D01*
X3772Y-18107D01*
X3772Y-18248D01*
X3545Y-18475D01*
X3842Y-18772D01*
X3935Y-18747D01*
X4004Y-18550D01*
X4004Y-18880D01*
X3762Y-18880D01*
X3772Y-18842D01*
X3475Y-18545D01*
X3404Y-18616D01*
X3404Y-18475D01*
X3107Y-18177D01*
X3014Y-18202D01*
X2945Y-18399D01*
X2956Y-18607D01*
X3014Y-18747D01*
X3107Y-18772D01*
X3404Y-18475D01*
X3404Y-18616D01*
X3177Y-18842D01*
X3187Y-18880D01*
X2079Y-18880D01*
X2079Y-18400D01*
X2079Y-16200D01*
X2075Y-16111D01*
X2075Y-15350D01*
X2075Y-14800D01*
X2037Y-14708D01*
X1966Y-14638D01*
X1874Y-14600D01*
X1775Y-14599D01*
X1225Y-14599D01*
X1187Y-14615D01*
X1187Y-13962D01*
X1187Y-13750D01*
X1125Y-13687D01*
X712Y-13687D01*
X712Y-14100D01*
X775Y-14162D01*
X887Y-14162D01*
X987Y-14162D01*
X1079Y-14124D01*
X1149Y-14053D01*
X1187Y-13962D01*
X1187Y-14615D01*
X1133Y-14637D01*
X1063Y-14708D01*
X1025Y-14800D01*
X1024Y-14899D01*
X1024Y-15449D01*
X1062Y-15541D01*
X1133Y-15611D01*
X1225Y-15649D01*
X1312Y-15650D01*
X1277Y-15664D01*
X1252Y-15757D01*
X1550Y-16054D01*
X1847Y-15757D01*
X1822Y-15664D01*
X1781Y-15650D01*
X1874Y-15650D01*
X1966Y-15612D01*
X2036Y-15541D01*
X2074Y-15449D01*
X2075Y-15350D01*
X2075Y-16111D01*
X2068Y-15992D01*
X2010Y-15852D01*
X1917Y-15827D01*
X1620Y-16125D01*
X1917Y-16422D01*
X2010Y-16397D01*
X2079Y-16200D01*
X2079Y-18400D01*
X2075Y-18311D01*
X2075Y-17550D01*
X2075Y-17000D01*
X2037Y-16908D01*
X1966Y-16838D01*
X1874Y-16800D01*
X1847Y-16800D01*
X1847Y-16492D01*
X1550Y-16195D01*
X1479Y-16266D01*
X1479Y-16125D01*
X1182Y-15827D01*
X1089Y-15852D01*
X1020Y-16049D01*
X1031Y-16257D01*
X1089Y-16397D01*
X1182Y-16422D01*
X1479Y-16125D01*
X1479Y-16266D01*
X1252Y-16492D01*
X1277Y-16585D01*
X1474Y-16654D01*
X1682Y-16643D01*
X1822Y-16585D01*
X1847Y-16492D01*
X1847Y-16800D01*
X1775Y-16799D01*
X1225Y-16799D01*
X1133Y-16837D01*
X1063Y-16908D01*
X1025Y-17000D01*
X1024Y-17099D01*
X1024Y-17649D01*
X1062Y-17741D01*
X1133Y-17811D01*
X1225Y-17849D01*
X1312Y-17850D01*
X1277Y-17864D01*
X1252Y-17957D01*
X1550Y-18254D01*
X1847Y-17957D01*
X1822Y-17864D01*
X1781Y-17850D01*
X1874Y-17850D01*
X1966Y-17812D01*
X2036Y-17741D01*
X2074Y-17649D01*
X2075Y-17550D01*
X2075Y-18311D01*
X2068Y-18192D01*
X2010Y-18052D01*
X1917Y-18027D01*
X1620Y-18325D01*
X1917Y-18622D01*
X2010Y-18597D01*
X2079Y-18400D01*
X2079Y-18880D01*
X1847Y-18880D01*
X1847Y-18692D01*
X1550Y-18395D01*
X1479Y-18466D01*
X1479Y-18325D01*
X1182Y-18027D01*
X1089Y-18052D01*
X1020Y-18249D01*
X1031Y-18457D01*
X1089Y-18597D01*
X1182Y-18622D01*
X1479Y-18325D01*
X1479Y-18466D01*
X1252Y-18692D01*
X1277Y-18785D01*
X1474Y-18854D01*
X1682Y-18843D01*
X1822Y-18785D01*
X1847Y-18692D01*
X1847Y-18880D01*
X294Y-18880D01*
X294Y-14144D01*
X337Y-14162D01*
X437Y-14162D01*
X550Y-14162D01*
X612Y-14100D01*
X612Y-13687D01*
X604Y-13687D01*
X604Y-13587D01*
X612Y-13587D01*
X612Y-13579D01*
X712Y-13579D01*
X712Y-13587D01*
X1125Y-13587D01*
X1187Y-13525D01*
X1187Y-13312D01*
X1149Y-13221D01*
X1079Y-13150D01*
X987Y-13112D01*
X887Y-13112D01*
X887Y-13112D01*
X959Y-13082D01*
X1043Y-12999D01*
X1060Y-12995D01*
X1186Y-12911D01*
X9710Y-4387D01*
X9925Y-4387D01*
X13575Y-4387D01*
X19489Y-4387D01*
X19762Y-4660D01*
X19762Y-4741D01*
X19842Y-4934D01*
X19989Y-5082D01*
X20122Y-5137D01*
X19990Y-5192D01*
X19842Y-5339D01*
X19762Y-5532D01*
X19762Y-5741D01*
X19842Y-5934D01*
X19989Y-6082D01*
X20122Y-6137D01*
X19990Y-6192D01*
X19842Y-6339D01*
X19762Y-6532D01*
X19762Y-6741D01*
X19842Y-6934D01*
X19989Y-7082D01*
X20122Y-7137D01*
X19990Y-7192D01*
X19842Y-7339D01*
X19762Y-7532D01*
X19762Y-7741D01*
X19842Y-7934D01*
X19989Y-8082D01*
X20122Y-8137D01*
X19990Y-8192D01*
X19842Y-8339D01*
X19762Y-8532D01*
X19762Y-8741D01*
X19842Y-8934D01*
X19989Y-9082D01*
X20062Y-9112D01*
X19962Y-9112D01*
X19871Y-9150D01*
X19800Y-9220D01*
X19762Y-9312D01*
X19762Y-9412D01*
X19762Y-9962D01*
X19800Y-10053D01*
X19870Y-10124D01*
X19962Y-10162D01*
X20062Y-10162D01*
X20612Y-10162D01*
X20703Y-10124D01*
X20730Y-10098D01*
X20730Y-18880D01*
M02*
