G04 (created by PCBNEW (2013-07-07 BZR 4022)-stable) date 2015-10-06 15:27:07*
%MOIN*%
G04 Gerber Fmt 3.4, Leading zero omitted, Abs format*
%FSLAX34Y34*%
G01*
G70*
G90*
G04 APERTURE LIST*
%ADD10C,0.00393701*%
%ADD11C,0.00787402*%
%ADD12C,0.008*%
%ADD13C,0.015748*%
%ADD14C,0.012*%
%ADD15C,0.0039*%
%ADD16C,0.005*%
%ADD17C,0.0107*%
%ADD18C,0.0106*%
%ADD19C,0.0043*%
%ADD20C,0.067874*%
%ADD21R,0.133858X0.133858*%
%ADD22C,0.062874*%
%ADD23R,0.062874X0.062874*%
%ADD24R,0.023874X0.067874*%
%ADD25R,0.067874X0.023874*%
%ADD26R,0.027874X0.037874*%
%ADD27R,0.037874X0.027874*%
%ADD28C,0.063874*%
%ADD29R,0.042874X0.062874*%
%ADD30R,0.062874X0.042874*%
G04 APERTURE END LIST*
G54D10*
G54D11*
X8775Y-9600D02*
X8775Y-6000D01*
X8775Y-6000D02*
X12375Y-6000D01*
X12375Y-6000D02*
X12375Y-9600D01*
X12375Y-9600D02*
X8775Y-9600D01*
G54D12*
X12225Y-9200D02*
G75*
G03X12225Y-9200I-250J0D01*
G74*
G01*
G54D10*
X16650Y-5375D02*
X16650Y-5775D01*
X17850Y-5375D02*
X17850Y-5775D01*
X17850Y-5775D02*
X16650Y-5775D01*
X16650Y-5375D02*
X17850Y-5375D01*
X14125Y-2450D02*
X14525Y-2450D01*
X14525Y-1250D02*
X14125Y-1250D01*
X14525Y-2450D02*
X14525Y-1250D01*
X14125Y-2450D02*
X14125Y-1250D01*
G54D13*
X7400Y-11050D02*
X6200Y-11050D01*
X6200Y-11050D02*
X6200Y-12100D01*
X6200Y-12100D02*
X7400Y-12100D01*
X10500Y-11050D02*
X10500Y-12100D01*
X10500Y-12100D02*
X7400Y-12100D01*
X7400Y-11050D02*
X10500Y-11050D01*
G54D14*
X19975Y-18150D02*
X18975Y-18150D01*
X18975Y-18150D02*
X18975Y-16150D01*
X18975Y-16150D02*
X19975Y-16150D01*
X19975Y-16150D02*
X19975Y-18150D01*
X5700Y-12500D02*
X5700Y-12500D01*
X5700Y-13500D02*
X5700Y-12500D01*
X5700Y-12500D02*
X5700Y-12500D01*
X5700Y-12500D02*
X9700Y-12500D01*
X9700Y-12500D02*
X9700Y-13500D01*
X9700Y-13500D02*
X5700Y-13500D01*
X6700Y-13500D02*
X6700Y-12500D01*
X4400Y-3625D02*
X4400Y-3625D01*
X4400Y-4625D02*
X4400Y-3625D01*
X4400Y-3625D02*
X4400Y-3625D01*
X4400Y-3625D02*
X8400Y-3625D01*
X8400Y-3625D02*
X8400Y-4625D01*
X8400Y-4625D02*
X4400Y-4625D01*
X5400Y-4625D02*
X5400Y-3625D01*
X19700Y-10650D02*
X20700Y-10650D01*
X20700Y-10650D02*
X20700Y-13650D01*
X20700Y-13650D02*
X19700Y-13650D01*
X19700Y-13650D02*
X19700Y-10650D01*
X20700Y-11650D02*
X19700Y-11650D01*
X1050Y-14625D02*
X2050Y-14625D01*
X2050Y-14625D02*
X2050Y-16625D01*
X2050Y-16625D02*
X1050Y-16625D01*
X1050Y-16625D02*
X1050Y-14625D01*
X1050Y-16825D02*
X2050Y-16825D01*
X2050Y-16825D02*
X2050Y-18825D01*
X2050Y-18825D02*
X1050Y-18825D01*
X1050Y-18825D02*
X1050Y-16825D01*
G54D10*
X2400Y-300D02*
X2825Y-300D01*
X2825Y-300D02*
X2825Y-1000D01*
X2825Y-1000D02*
X2400Y-1000D01*
X2000Y-1000D02*
X1575Y-1000D01*
X1575Y-1000D02*
X1575Y-300D01*
X1575Y-300D02*
X2000Y-300D01*
G54D15*
X2950Y-325D02*
G75*
G03X2950Y-325I-50J0D01*
G74*
G01*
G54D10*
X2400Y-1300D02*
X2825Y-1300D01*
X2825Y-1300D02*
X2825Y-2000D01*
X2825Y-2000D02*
X2400Y-2000D01*
X2000Y-2000D02*
X1575Y-2000D01*
X1575Y-2000D02*
X1575Y-1300D01*
X1575Y-1300D02*
X2000Y-1300D01*
G54D15*
X2950Y-1325D02*
G75*
G03X2950Y-1325I-50J0D01*
G74*
G01*
G54D10*
X2400Y-2300D02*
X2825Y-2300D01*
X2825Y-2300D02*
X2825Y-3000D01*
X2825Y-3000D02*
X2400Y-3000D01*
X2000Y-3000D02*
X1575Y-3000D01*
X1575Y-3000D02*
X1575Y-2300D01*
X1575Y-2300D02*
X2000Y-2300D01*
G54D15*
X2950Y-2325D02*
G75*
G03X2950Y-2325I-50J0D01*
G74*
G01*
G54D10*
X2400Y-3300D02*
X2825Y-3300D01*
X2825Y-3300D02*
X2825Y-4000D01*
X2825Y-4000D02*
X2400Y-4000D01*
X2000Y-4000D02*
X1575Y-4000D01*
X1575Y-4000D02*
X1575Y-3300D01*
X1575Y-3300D02*
X2000Y-3300D01*
G54D15*
X2950Y-3325D02*
G75*
G03X2950Y-3325I-50J0D01*
G74*
G01*
G54D10*
X2400Y-4300D02*
X2825Y-4300D01*
X2825Y-4300D02*
X2825Y-5000D01*
X2825Y-5000D02*
X2400Y-5000D01*
X2000Y-5000D02*
X1575Y-5000D01*
X1575Y-5000D02*
X1575Y-4300D01*
X1575Y-4300D02*
X2000Y-4300D01*
G54D15*
X2950Y-4325D02*
G75*
G03X2950Y-4325I-50J0D01*
G74*
G01*
G54D10*
X2400Y-5300D02*
X2825Y-5300D01*
X2825Y-5300D02*
X2825Y-6000D01*
X2825Y-6000D02*
X2400Y-6000D01*
X2000Y-6000D02*
X1575Y-6000D01*
X1575Y-6000D02*
X1575Y-5300D01*
X1575Y-5300D02*
X2000Y-5300D01*
G54D15*
X2950Y-5325D02*
G75*
G03X2950Y-5325I-50J0D01*
G74*
G01*
G54D10*
X2400Y-6300D02*
X2825Y-6300D01*
X2825Y-6300D02*
X2825Y-7000D01*
X2825Y-7000D02*
X2400Y-7000D01*
X2000Y-7000D02*
X1575Y-7000D01*
X1575Y-7000D02*
X1575Y-6300D01*
X1575Y-6300D02*
X2000Y-6300D01*
G54D15*
X2950Y-6325D02*
G75*
G03X2950Y-6325I-50J0D01*
G74*
G01*
G54D10*
X2400Y-7300D02*
X2825Y-7300D01*
X2825Y-7300D02*
X2825Y-8000D01*
X2825Y-8000D02*
X2400Y-8000D01*
X2000Y-8000D02*
X1575Y-8000D01*
X1575Y-8000D02*
X1575Y-7300D01*
X1575Y-7300D02*
X2000Y-7300D01*
G54D15*
X2950Y-7325D02*
G75*
G03X2950Y-7325I-50J0D01*
G74*
G01*
G54D10*
X2400Y-8300D02*
X2825Y-8300D01*
X2825Y-8300D02*
X2825Y-9000D01*
X2825Y-9000D02*
X2400Y-9000D01*
X2000Y-9000D02*
X1575Y-9000D01*
X1575Y-9000D02*
X1575Y-8300D01*
X1575Y-8300D02*
X2000Y-8300D01*
G54D15*
X2950Y-8325D02*
G75*
G03X2950Y-8325I-50J0D01*
G74*
G01*
G54D10*
X2400Y-10275D02*
X2825Y-10275D01*
X2825Y-10275D02*
X2825Y-10975D01*
X2825Y-10975D02*
X2400Y-10975D01*
X2000Y-10975D02*
X1575Y-10975D01*
X1575Y-10975D02*
X1575Y-10275D01*
X1575Y-10275D02*
X2000Y-10275D01*
G54D15*
X2950Y-10300D02*
G75*
G03X2950Y-10300I-50J0D01*
G74*
G01*
G54D10*
X1600Y-13175D02*
X1600Y-12750D01*
X1600Y-12750D02*
X2300Y-12750D01*
X2300Y-12750D02*
X2300Y-13175D01*
X2300Y-13575D02*
X2300Y-14000D01*
X2300Y-14000D02*
X1600Y-14000D01*
X1600Y-14000D02*
X1600Y-13575D01*
G54D15*
X1675Y-12675D02*
G75*
G03X1675Y-12675I-50J0D01*
G74*
G01*
G54D10*
X2550Y-13175D02*
X2550Y-12750D01*
X2550Y-12750D02*
X3250Y-12750D01*
X3250Y-12750D02*
X3250Y-13175D01*
X3250Y-13575D02*
X3250Y-14000D01*
X3250Y-14000D02*
X2550Y-14000D01*
X2550Y-14000D02*
X2550Y-13575D01*
G54D15*
X2625Y-12675D02*
G75*
G03X2625Y-12675I-50J0D01*
G74*
G01*
G54D10*
X3450Y-14450D02*
X3450Y-14025D01*
X3450Y-14025D02*
X4150Y-14025D01*
X4150Y-14025D02*
X4150Y-14450D01*
X4150Y-14850D02*
X4150Y-15275D01*
X4150Y-15275D02*
X3450Y-15275D01*
X3450Y-15275D02*
X3450Y-14850D01*
G54D15*
X3525Y-13950D02*
G75*
G03X3525Y-13950I-50J0D01*
G74*
G01*
G54D10*
X4375Y-14450D02*
X4375Y-14025D01*
X4375Y-14025D02*
X5075Y-14025D01*
X5075Y-14025D02*
X5075Y-14450D01*
X5075Y-14850D02*
X5075Y-15275D01*
X5075Y-15275D02*
X4375Y-15275D01*
X4375Y-15275D02*
X4375Y-14850D01*
G54D15*
X4450Y-13950D02*
G75*
G03X4450Y-13950I-50J0D01*
G74*
G01*
G54D10*
X4725Y-17125D02*
X4300Y-17125D01*
X4300Y-17125D02*
X4300Y-16425D01*
X4300Y-16425D02*
X4725Y-16425D01*
X5125Y-16425D02*
X5550Y-16425D01*
X5550Y-16425D02*
X5550Y-17125D01*
X5550Y-17125D02*
X5125Y-17125D01*
G54D15*
X4275Y-17100D02*
G75*
G03X4275Y-17100I-50J0D01*
G74*
G01*
G54D10*
X5650Y-18300D02*
X5650Y-18725D01*
X5650Y-18725D02*
X4950Y-18725D01*
X4950Y-18725D02*
X4950Y-18300D01*
X4950Y-17900D02*
X4950Y-17475D01*
X4950Y-17475D02*
X5650Y-17475D01*
X5650Y-17475D02*
X5650Y-17900D01*
G54D15*
X5675Y-18800D02*
G75*
G03X5675Y-18800I-50J0D01*
G74*
G01*
G54D10*
X8200Y-16550D02*
X8200Y-16125D01*
X8200Y-16125D02*
X8900Y-16125D01*
X8900Y-16125D02*
X8900Y-16550D01*
X8900Y-16950D02*
X8900Y-17375D01*
X8900Y-17375D02*
X8200Y-17375D01*
X8200Y-17375D02*
X8200Y-16950D01*
G54D15*
X8275Y-16050D02*
G75*
G03X8275Y-16050I-50J0D01*
G74*
G01*
G54D10*
X8900Y-18350D02*
X8900Y-18775D01*
X8900Y-18775D02*
X8200Y-18775D01*
X8200Y-18775D02*
X8200Y-18350D01*
X8200Y-17950D02*
X8200Y-17525D01*
X8200Y-17525D02*
X8900Y-17525D01*
X8900Y-17525D02*
X8900Y-17950D01*
G54D15*
X8925Y-18850D02*
G75*
G03X8925Y-18850I-50J0D01*
G74*
G01*
G54D10*
X15675Y-17075D02*
X15250Y-17075D01*
X15250Y-17075D02*
X15250Y-16375D01*
X15250Y-16375D02*
X15675Y-16375D01*
X16075Y-16375D02*
X16500Y-16375D01*
X16500Y-16375D02*
X16500Y-17075D01*
X16500Y-17075D02*
X16075Y-17075D01*
G54D15*
X15225Y-17050D02*
G75*
G03X15225Y-17050I-50J0D01*
G74*
G01*
G54D10*
X16500Y-18325D02*
X16500Y-18750D01*
X16500Y-18750D02*
X15800Y-18750D01*
X15800Y-18750D02*
X15800Y-18325D01*
X15800Y-17925D02*
X15800Y-17500D01*
X15800Y-17500D02*
X16500Y-17500D01*
X16500Y-17500D02*
X16500Y-17925D01*
G54D15*
X16525Y-18825D02*
G75*
G03X16525Y-18825I-50J0D01*
G74*
G01*
G54D10*
X8525Y-14425D02*
X8100Y-14425D01*
X8100Y-14425D02*
X8100Y-13725D01*
X8100Y-13725D02*
X8525Y-13725D01*
X8925Y-13725D02*
X9350Y-13725D01*
X9350Y-13725D02*
X9350Y-14425D01*
X9350Y-14425D02*
X8925Y-14425D01*
G54D15*
X8075Y-14400D02*
G75*
G03X8075Y-14400I-50J0D01*
G74*
G01*
G54D10*
X10975Y-13275D02*
X10975Y-13700D01*
X10975Y-13700D02*
X10275Y-13700D01*
X10275Y-13700D02*
X10275Y-13275D01*
X10275Y-12875D02*
X10275Y-12450D01*
X10275Y-12450D02*
X10975Y-12450D01*
X10975Y-12450D02*
X10975Y-12875D01*
G54D15*
X11000Y-13775D02*
G75*
G03X11000Y-13775I-50J0D01*
G74*
G01*
G54D10*
X11175Y-12875D02*
X11175Y-12450D01*
X11175Y-12450D02*
X11875Y-12450D01*
X11875Y-12450D02*
X11875Y-12875D01*
X11875Y-13275D02*
X11875Y-13700D01*
X11875Y-13700D02*
X11175Y-13700D01*
X11175Y-13700D02*
X11175Y-13275D01*
G54D15*
X11250Y-12375D02*
G75*
G03X11250Y-12375I-50J0D01*
G74*
G01*
G54D10*
X12125Y-12875D02*
X12125Y-12450D01*
X12125Y-12450D02*
X12825Y-12450D01*
X12825Y-12450D02*
X12825Y-12875D01*
X12825Y-13275D02*
X12825Y-13700D01*
X12825Y-13700D02*
X12125Y-13700D01*
X12125Y-13700D02*
X12125Y-13275D01*
G54D15*
X12200Y-12375D02*
G75*
G03X12200Y-12375I-50J0D01*
G74*
G01*
G54D10*
X13700Y-13275D02*
X13700Y-13700D01*
X13700Y-13700D02*
X13000Y-13700D01*
X13000Y-13700D02*
X13000Y-13275D01*
X13000Y-12875D02*
X13000Y-12450D01*
X13000Y-12450D02*
X13700Y-12450D01*
X13700Y-12450D02*
X13700Y-12875D01*
G54D15*
X13725Y-13775D02*
G75*
G03X13725Y-13775I-50J0D01*
G74*
G01*
G54D10*
X7100Y-8950D02*
X7100Y-9375D01*
X7100Y-9375D02*
X6400Y-9375D01*
X6400Y-9375D02*
X6400Y-8950D01*
X6400Y-8550D02*
X6400Y-8125D01*
X6400Y-8125D02*
X7100Y-8125D01*
X7100Y-8125D02*
X7100Y-8550D01*
G54D15*
X7125Y-9450D02*
G75*
G03X7125Y-9450I-50J0D01*
G74*
G01*
G54D10*
X14050Y-6800D02*
X14050Y-6375D01*
X14050Y-6375D02*
X14750Y-6375D01*
X14750Y-6375D02*
X14750Y-6800D01*
X14750Y-7200D02*
X14750Y-7625D01*
X14750Y-7625D02*
X14050Y-7625D01*
X14050Y-7625D02*
X14050Y-7200D01*
G54D15*
X14125Y-6300D02*
G75*
G03X14125Y-6300I-50J0D01*
G74*
G01*
G54D10*
X18400Y-5500D02*
X18400Y-5075D01*
X18400Y-5075D02*
X19100Y-5075D01*
X19100Y-5075D02*
X19100Y-5500D01*
X19100Y-5900D02*
X19100Y-6325D01*
X19100Y-6325D02*
X18400Y-6325D01*
X18400Y-6325D02*
X18400Y-5900D01*
G54D15*
X18475Y-5000D02*
G75*
G03X18475Y-5000I-50J0D01*
G74*
G01*
G54D10*
X9300Y-4625D02*
X8875Y-4625D01*
X8875Y-4625D02*
X8875Y-3925D01*
X8875Y-3925D02*
X9300Y-3925D01*
X9700Y-3925D02*
X10125Y-3925D01*
X10125Y-3925D02*
X10125Y-4625D01*
X10125Y-4625D02*
X9700Y-4625D01*
G54D15*
X8850Y-4600D02*
G75*
G03X8850Y-4600I-50J0D01*
G74*
G01*
G54D10*
X13125Y-1650D02*
X13125Y-2075D01*
X13125Y-2075D02*
X12425Y-2075D01*
X12425Y-2075D02*
X12425Y-1650D01*
X12425Y-1250D02*
X12425Y-825D01*
X12425Y-825D02*
X13125Y-825D01*
X13125Y-825D02*
X13125Y-1250D01*
G54D15*
X13150Y-2150D02*
G75*
G03X13150Y-2150I-50J0D01*
G74*
G01*
G54D10*
X16175Y-2050D02*
X16175Y-2475D01*
X16175Y-2475D02*
X15475Y-2475D01*
X15475Y-2475D02*
X15475Y-2050D01*
X15475Y-1650D02*
X15475Y-1225D01*
X15475Y-1225D02*
X16175Y-1225D01*
X16175Y-1225D02*
X16175Y-1650D01*
G54D15*
X16200Y-2550D02*
G75*
G03X16200Y-2550I-50J0D01*
G74*
G01*
G54D10*
X17200Y-2050D02*
X17200Y-2475D01*
X17200Y-2475D02*
X16500Y-2475D01*
X16500Y-2475D02*
X16500Y-2050D01*
X16500Y-1650D02*
X16500Y-1225D01*
X16500Y-1225D02*
X17200Y-1225D01*
X17200Y-1225D02*
X17200Y-1650D01*
G54D15*
X17225Y-2550D02*
G75*
G03X17225Y-2550I-50J0D01*
G74*
G01*
G54D12*
X10184Y-8067D02*
X10184Y-7467D01*
X10603Y-8010D02*
X10584Y-8039D01*
X10527Y-8067D01*
X10489Y-8067D01*
X10432Y-8039D01*
X10394Y-7982D01*
X10375Y-7925D01*
X10355Y-7810D01*
X10355Y-7725D01*
X10375Y-7610D01*
X10394Y-7553D01*
X10432Y-7496D01*
X10489Y-7467D01*
X10527Y-7467D01*
X10584Y-7496D01*
X10603Y-7525D01*
X10984Y-8067D02*
X10755Y-8067D01*
X10870Y-8067D02*
X10870Y-7467D01*
X10832Y-7553D01*
X10794Y-7610D01*
X10755Y-7639D01*
G54D16*
X17059Y-6476D02*
X17059Y-6678D01*
X17071Y-6702D01*
X17083Y-6714D01*
X17107Y-6726D01*
X17154Y-6726D01*
X17178Y-6714D01*
X17190Y-6702D01*
X17202Y-6678D01*
X17202Y-6476D01*
X17297Y-6476D02*
X17452Y-6476D01*
X17369Y-6571D01*
X17404Y-6571D01*
X17428Y-6583D01*
X17440Y-6595D01*
X17452Y-6619D01*
X17452Y-6678D01*
X17440Y-6702D01*
X17428Y-6714D01*
X17404Y-6726D01*
X17333Y-6726D01*
X17309Y-6714D01*
X17297Y-6702D01*
X14259Y-2601D02*
X14259Y-2803D01*
X14271Y-2827D01*
X14283Y-2839D01*
X14307Y-2851D01*
X14354Y-2851D01*
X14378Y-2839D01*
X14390Y-2827D01*
X14402Y-2803D01*
X14402Y-2601D01*
X14509Y-2625D02*
X14521Y-2613D01*
X14545Y-2601D01*
X14604Y-2601D01*
X14628Y-2613D01*
X14640Y-2625D01*
X14652Y-2648D01*
X14652Y-2672D01*
X14640Y-2708D01*
X14497Y-2851D01*
X14652Y-2851D01*
G54D14*
X10714Y-11292D02*
X11114Y-11892D01*
X11114Y-11292D02*
X10714Y-11892D01*
X11657Y-11892D02*
X11314Y-11892D01*
X11485Y-11892D02*
X11485Y-11292D01*
X11428Y-11378D01*
X11371Y-11435D01*
X11314Y-11464D01*
G54D17*
X18863Y-15925D02*
X18659Y-15925D01*
X18659Y-15244D01*
X19006Y-15925D02*
X19006Y-15244D01*
X19210Y-15925D02*
X19210Y-15244D01*
X19373Y-15244D01*
X19413Y-15277D01*
X19434Y-15309D01*
X19454Y-15374D01*
X19454Y-15471D01*
X19434Y-15536D01*
X19413Y-15568D01*
X19373Y-15601D01*
X19210Y-15601D01*
X19719Y-15244D02*
X19801Y-15244D01*
X19841Y-15277D01*
X19882Y-15341D01*
X19903Y-15471D01*
X19903Y-15698D01*
X19882Y-15828D01*
X19841Y-15893D01*
X19801Y-15925D01*
X19719Y-15925D01*
X19678Y-15893D01*
X19638Y-15828D01*
X19617Y-15698D01*
X19617Y-15471D01*
X19638Y-15341D01*
X19678Y-15277D01*
X19719Y-15244D01*
X20310Y-15925D02*
X20066Y-15925D01*
X20188Y-15925D02*
X20188Y-15244D01*
X20147Y-15341D01*
X20106Y-15406D01*
X20066Y-15439D01*
G54D14*
G54D17*
X6634Y-14351D02*
X6634Y-13668D01*
X6797Y-13668D01*
X6837Y-13700D01*
X6858Y-13733D01*
X6878Y-13798D01*
X6878Y-13896D01*
X6858Y-13961D01*
X6837Y-13993D01*
X6797Y-14026D01*
X6634Y-14026D01*
X7021Y-13668D02*
X7286Y-13668D01*
X7143Y-13928D01*
X7204Y-13928D01*
X7245Y-13961D01*
X7265Y-13993D01*
X7286Y-14058D01*
X7286Y-14221D01*
X7265Y-14286D01*
X7245Y-14318D01*
X7204Y-14351D01*
X7082Y-14351D01*
X7041Y-14318D01*
X7021Y-14286D01*
G54D14*
G54D17*
X6084Y-5526D02*
X6084Y-4843D01*
X6247Y-4843D01*
X6287Y-4875D01*
X6308Y-4908D01*
X6328Y-4973D01*
X6328Y-5071D01*
X6308Y-5136D01*
X6287Y-5168D01*
X6247Y-5201D01*
X6084Y-5201D01*
X6695Y-5071D02*
X6695Y-5526D01*
X6593Y-4810D02*
X6491Y-5298D01*
X6756Y-5298D01*
G54D14*
G54D18*
X18576Y-12401D02*
X18637Y-12435D01*
X18738Y-12435D01*
X18778Y-12401D01*
X18799Y-12368D01*
X18819Y-12301D01*
X18819Y-12233D01*
X18799Y-12166D01*
X18778Y-12133D01*
X18738Y-12099D01*
X18657Y-12066D01*
X18617Y-12032D01*
X18597Y-11998D01*
X18576Y-11931D01*
X18576Y-11864D01*
X18597Y-11797D01*
X18617Y-11763D01*
X18657Y-11730D01*
X18758Y-11730D01*
X18819Y-11763D01*
X19223Y-12435D02*
X18980Y-12435D01*
X19101Y-12435D02*
X19101Y-11730D01*
X19061Y-11831D01*
X19021Y-11898D01*
X18980Y-11931D01*
G54D14*
G54D17*
X259Y-15900D02*
X259Y-15219D01*
X422Y-15219D01*
X462Y-15252D01*
X483Y-15284D01*
X503Y-15349D01*
X503Y-15446D01*
X483Y-15511D01*
X462Y-15543D01*
X422Y-15576D01*
X259Y-15576D01*
X911Y-15900D02*
X666Y-15900D01*
X789Y-15900D02*
X789Y-15219D01*
X748Y-15316D01*
X707Y-15381D01*
X666Y-15414D01*
G54D14*
G54D17*
X259Y-18100D02*
X259Y-17419D01*
X422Y-17419D01*
X462Y-17452D01*
X483Y-17484D01*
X503Y-17549D01*
X503Y-17646D01*
X483Y-17711D01*
X462Y-17743D01*
X422Y-17776D01*
X259Y-17776D01*
X666Y-17484D02*
X687Y-17452D01*
X727Y-17419D01*
X829Y-17419D01*
X870Y-17452D01*
X890Y-17484D01*
X911Y-17549D01*
X911Y-17614D01*
X890Y-17711D01*
X646Y-18100D01*
X911Y-18100D01*
G54D14*
G54D19*
X1379Y-776D02*
X1285Y-842D01*
X1379Y-889D02*
X1182Y-889D01*
X1182Y-814D01*
X1192Y-795D01*
X1201Y-786D01*
X1220Y-776D01*
X1248Y-776D01*
X1267Y-786D01*
X1276Y-795D01*
X1285Y-814D01*
X1285Y-889D01*
X1379Y-589D02*
X1379Y-701D01*
X1379Y-645D02*
X1182Y-645D01*
X1210Y-664D01*
X1229Y-682D01*
X1239Y-701D01*
X1182Y-420D02*
X1182Y-457D01*
X1192Y-476D01*
X1201Y-485D01*
X1229Y-504D01*
X1267Y-513D01*
X1342Y-513D01*
X1360Y-504D01*
X1370Y-495D01*
X1379Y-476D01*
X1379Y-438D01*
X1370Y-420D01*
X1360Y-410D01*
X1342Y-401D01*
X1295Y-401D01*
X1276Y-410D01*
X1267Y-420D01*
X1257Y-438D01*
X1257Y-476D01*
X1267Y-495D01*
X1276Y-504D01*
X1295Y-513D01*
X1379Y-1776D02*
X1285Y-1842D01*
X1379Y-1889D02*
X1182Y-1889D01*
X1182Y-1814D01*
X1192Y-1795D01*
X1201Y-1786D01*
X1220Y-1776D01*
X1248Y-1776D01*
X1267Y-1786D01*
X1276Y-1795D01*
X1285Y-1814D01*
X1285Y-1889D01*
X1379Y-1589D02*
X1379Y-1701D01*
X1379Y-1645D02*
X1182Y-1645D01*
X1210Y-1664D01*
X1229Y-1682D01*
X1239Y-1701D01*
X1182Y-1410D02*
X1182Y-1504D01*
X1276Y-1513D01*
X1267Y-1504D01*
X1257Y-1485D01*
X1257Y-1438D01*
X1267Y-1420D01*
X1276Y-1410D01*
X1295Y-1401D01*
X1342Y-1401D01*
X1360Y-1410D01*
X1370Y-1420D01*
X1379Y-1438D01*
X1379Y-1485D01*
X1370Y-1504D01*
X1360Y-1513D01*
X1379Y-2776D02*
X1285Y-2842D01*
X1379Y-2889D02*
X1182Y-2889D01*
X1182Y-2814D01*
X1192Y-2795D01*
X1201Y-2786D01*
X1220Y-2776D01*
X1248Y-2776D01*
X1267Y-2786D01*
X1276Y-2795D01*
X1285Y-2814D01*
X1285Y-2889D01*
X1379Y-2589D02*
X1379Y-2701D01*
X1379Y-2645D02*
X1182Y-2645D01*
X1210Y-2664D01*
X1229Y-2682D01*
X1239Y-2701D01*
X1248Y-2420D02*
X1379Y-2420D01*
X1173Y-2467D02*
X1314Y-2513D01*
X1314Y-2392D01*
X1379Y-3776D02*
X1285Y-3842D01*
X1379Y-3889D02*
X1182Y-3889D01*
X1182Y-3814D01*
X1192Y-3795D01*
X1201Y-3786D01*
X1220Y-3776D01*
X1248Y-3776D01*
X1267Y-3786D01*
X1276Y-3795D01*
X1285Y-3814D01*
X1285Y-3889D01*
X1379Y-3589D02*
X1379Y-3701D01*
X1379Y-3645D02*
X1182Y-3645D01*
X1210Y-3664D01*
X1229Y-3682D01*
X1239Y-3701D01*
X1182Y-3523D02*
X1182Y-3401D01*
X1257Y-3467D01*
X1257Y-3438D01*
X1267Y-3420D01*
X1276Y-3410D01*
X1295Y-3401D01*
X1342Y-3401D01*
X1360Y-3410D01*
X1370Y-3420D01*
X1379Y-3438D01*
X1379Y-3495D01*
X1370Y-3513D01*
X1360Y-3523D01*
X1379Y-4776D02*
X1285Y-4842D01*
X1379Y-4889D02*
X1182Y-4889D01*
X1182Y-4814D01*
X1192Y-4795D01*
X1201Y-4786D01*
X1220Y-4776D01*
X1248Y-4776D01*
X1267Y-4786D01*
X1276Y-4795D01*
X1285Y-4814D01*
X1285Y-4889D01*
X1379Y-4589D02*
X1379Y-4701D01*
X1379Y-4645D02*
X1182Y-4645D01*
X1210Y-4664D01*
X1229Y-4682D01*
X1239Y-4701D01*
X1201Y-4513D02*
X1192Y-4504D01*
X1182Y-4485D01*
X1182Y-4438D01*
X1192Y-4420D01*
X1201Y-4410D01*
X1220Y-4401D01*
X1239Y-4401D01*
X1267Y-4410D01*
X1379Y-4523D01*
X1379Y-4401D01*
X1379Y-5776D02*
X1285Y-5842D01*
X1379Y-5889D02*
X1182Y-5889D01*
X1182Y-5814D01*
X1192Y-5795D01*
X1201Y-5786D01*
X1220Y-5776D01*
X1248Y-5776D01*
X1267Y-5786D01*
X1276Y-5795D01*
X1285Y-5814D01*
X1285Y-5889D01*
X1379Y-5589D02*
X1379Y-5701D01*
X1379Y-5645D02*
X1182Y-5645D01*
X1210Y-5664D01*
X1229Y-5682D01*
X1239Y-5701D01*
X1379Y-5401D02*
X1379Y-5513D01*
X1379Y-5457D02*
X1182Y-5457D01*
X1210Y-5476D01*
X1229Y-5495D01*
X1239Y-5513D01*
X1379Y-6682D02*
X1285Y-6748D01*
X1379Y-6795D02*
X1182Y-6795D01*
X1182Y-6720D01*
X1192Y-6701D01*
X1201Y-6692D01*
X1220Y-6682D01*
X1248Y-6682D01*
X1267Y-6692D01*
X1276Y-6701D01*
X1285Y-6720D01*
X1285Y-6795D01*
X1182Y-6617D02*
X1182Y-6485D01*
X1379Y-6570D01*
X1379Y-7682D02*
X1285Y-7748D01*
X1379Y-7795D02*
X1182Y-7795D01*
X1182Y-7720D01*
X1192Y-7701D01*
X1201Y-7692D01*
X1220Y-7682D01*
X1248Y-7682D01*
X1267Y-7692D01*
X1276Y-7701D01*
X1285Y-7720D01*
X1285Y-7795D01*
X1182Y-7504D02*
X1182Y-7598D01*
X1276Y-7607D01*
X1267Y-7598D01*
X1257Y-7579D01*
X1257Y-7532D01*
X1267Y-7513D01*
X1276Y-7504D01*
X1295Y-7495D01*
X1342Y-7495D01*
X1360Y-7504D01*
X1370Y-7513D01*
X1379Y-7532D01*
X1379Y-7579D01*
X1370Y-7598D01*
X1360Y-7607D01*
X1379Y-8682D02*
X1285Y-8748D01*
X1379Y-8795D02*
X1182Y-8795D01*
X1182Y-8720D01*
X1192Y-8701D01*
X1201Y-8692D01*
X1220Y-8682D01*
X1248Y-8682D01*
X1267Y-8692D01*
X1276Y-8701D01*
X1285Y-8720D01*
X1285Y-8795D01*
X1182Y-8617D02*
X1182Y-8495D01*
X1257Y-8560D01*
X1257Y-8532D01*
X1267Y-8513D01*
X1276Y-8504D01*
X1295Y-8495D01*
X1342Y-8495D01*
X1360Y-8504D01*
X1370Y-8513D01*
X1379Y-8532D01*
X1379Y-8589D01*
X1370Y-8607D01*
X1360Y-8617D01*
X1379Y-10751D02*
X1285Y-10817D01*
X1379Y-10864D02*
X1182Y-10864D01*
X1182Y-10789D01*
X1192Y-10770D01*
X1201Y-10761D01*
X1220Y-10751D01*
X1248Y-10751D01*
X1267Y-10761D01*
X1276Y-10770D01*
X1285Y-10789D01*
X1285Y-10864D01*
X1379Y-10564D02*
X1379Y-10676D01*
X1379Y-10620D02*
X1182Y-10620D01*
X1210Y-10639D01*
X1229Y-10657D01*
X1239Y-10676D01*
X1182Y-10498D02*
X1182Y-10367D01*
X1379Y-10451D01*
X1823Y-14335D02*
X1813Y-14345D01*
X1785Y-14354D01*
X1767Y-14354D01*
X1738Y-14345D01*
X1720Y-14326D01*
X1710Y-14307D01*
X1701Y-14270D01*
X1701Y-14242D01*
X1710Y-14204D01*
X1720Y-14185D01*
X1738Y-14167D01*
X1767Y-14157D01*
X1785Y-14157D01*
X1813Y-14167D01*
X1823Y-14176D01*
X2010Y-14354D02*
X1898Y-14354D01*
X1954Y-14354D02*
X1954Y-14157D01*
X1935Y-14185D01*
X1917Y-14204D01*
X1898Y-14214D01*
X2132Y-14157D02*
X2151Y-14157D01*
X2170Y-14167D01*
X2179Y-14176D01*
X2189Y-14195D01*
X2198Y-14232D01*
X2198Y-14279D01*
X2189Y-14317D01*
X2179Y-14335D01*
X2170Y-14345D01*
X2151Y-14354D01*
X2132Y-14354D01*
X2114Y-14345D01*
X2104Y-14335D01*
X2095Y-14317D01*
X2086Y-14279D01*
X2086Y-14232D01*
X2095Y-14195D01*
X2104Y-14176D01*
X2114Y-14167D01*
X2132Y-14157D01*
X2773Y-14354D02*
X2707Y-14260D01*
X2660Y-14354D02*
X2660Y-14157D01*
X2735Y-14157D01*
X2754Y-14167D01*
X2763Y-14176D01*
X2773Y-14195D01*
X2773Y-14223D01*
X2763Y-14242D01*
X2754Y-14251D01*
X2735Y-14260D01*
X2660Y-14260D01*
X2960Y-14354D02*
X2848Y-14354D01*
X2904Y-14354D02*
X2904Y-14157D01*
X2885Y-14185D01*
X2867Y-14204D01*
X2848Y-14214D01*
X3054Y-14354D02*
X3092Y-14354D01*
X3111Y-14345D01*
X3120Y-14335D01*
X3139Y-14307D01*
X3148Y-14270D01*
X3148Y-14195D01*
X3139Y-14176D01*
X3129Y-14167D01*
X3111Y-14157D01*
X3073Y-14157D01*
X3054Y-14167D01*
X3045Y-14176D01*
X3036Y-14195D01*
X3036Y-14242D01*
X3045Y-14260D01*
X3054Y-14270D01*
X3073Y-14279D01*
X3111Y-14279D01*
X3129Y-14270D01*
X3139Y-14260D01*
X3148Y-14242D01*
X3767Y-15610D02*
X3757Y-15620D01*
X3729Y-15629D01*
X3710Y-15629D01*
X3682Y-15620D01*
X3663Y-15601D01*
X3654Y-15582D01*
X3645Y-15545D01*
X3645Y-15517D01*
X3654Y-15479D01*
X3663Y-15460D01*
X3682Y-15442D01*
X3710Y-15432D01*
X3729Y-15432D01*
X3757Y-15442D01*
X3767Y-15451D01*
X3936Y-15432D02*
X3898Y-15432D01*
X3879Y-15442D01*
X3870Y-15451D01*
X3851Y-15479D01*
X3842Y-15517D01*
X3842Y-15592D01*
X3851Y-15610D01*
X3860Y-15620D01*
X3879Y-15629D01*
X3917Y-15629D01*
X3936Y-15620D01*
X3945Y-15610D01*
X3954Y-15592D01*
X3954Y-15545D01*
X3945Y-15526D01*
X3936Y-15517D01*
X3917Y-15507D01*
X3879Y-15507D01*
X3860Y-15517D01*
X3851Y-15526D01*
X3842Y-15545D01*
X4692Y-15629D02*
X4626Y-15535D01*
X4579Y-15629D02*
X4579Y-15432D01*
X4654Y-15432D01*
X4673Y-15442D01*
X4682Y-15451D01*
X4692Y-15470D01*
X4692Y-15498D01*
X4682Y-15517D01*
X4673Y-15526D01*
X4654Y-15535D01*
X4579Y-15535D01*
X4861Y-15498D02*
X4861Y-15629D01*
X4814Y-15423D02*
X4767Y-15564D01*
X4889Y-15564D01*
X4892Y-16329D02*
X4826Y-16235D01*
X4779Y-16329D02*
X4779Y-16132D01*
X4854Y-16132D01*
X4873Y-16142D01*
X4882Y-16151D01*
X4892Y-16170D01*
X4892Y-16198D01*
X4882Y-16217D01*
X4873Y-16226D01*
X4854Y-16235D01*
X4779Y-16235D01*
X4967Y-16151D02*
X4976Y-16142D01*
X4995Y-16132D01*
X5042Y-16132D01*
X5061Y-16142D01*
X5070Y-16151D01*
X5079Y-16170D01*
X5079Y-16189D01*
X5070Y-16217D01*
X4957Y-16329D01*
X5079Y-16329D01*
X4667Y-18160D02*
X4657Y-18170D01*
X4629Y-18179D01*
X4610Y-18179D01*
X4582Y-18170D01*
X4563Y-18151D01*
X4554Y-18132D01*
X4545Y-18095D01*
X4545Y-18067D01*
X4554Y-18029D01*
X4563Y-18010D01*
X4582Y-17992D01*
X4610Y-17982D01*
X4629Y-17982D01*
X4657Y-17992D01*
X4667Y-18001D01*
X4845Y-17982D02*
X4751Y-17982D01*
X4742Y-18076D01*
X4751Y-18067D01*
X4770Y-18057D01*
X4817Y-18057D01*
X4836Y-18067D01*
X4845Y-18076D01*
X4854Y-18095D01*
X4854Y-18142D01*
X4845Y-18160D01*
X4836Y-18170D01*
X4817Y-18179D01*
X4770Y-18179D01*
X4751Y-18170D01*
X4742Y-18160D01*
X9117Y-16829D02*
X9051Y-16735D01*
X9004Y-16829D02*
X9004Y-16632D01*
X9079Y-16632D01*
X9098Y-16642D01*
X9107Y-16651D01*
X9117Y-16670D01*
X9117Y-16698D01*
X9107Y-16717D01*
X9098Y-16726D01*
X9079Y-16735D01*
X9004Y-16735D01*
X9229Y-16717D02*
X9210Y-16707D01*
X9201Y-16698D01*
X9192Y-16679D01*
X9192Y-16670D01*
X9201Y-16651D01*
X9210Y-16642D01*
X9229Y-16632D01*
X9267Y-16632D01*
X9286Y-16642D01*
X9295Y-16651D01*
X9304Y-16670D01*
X9304Y-16679D01*
X9295Y-16698D01*
X9286Y-16707D01*
X9267Y-16717D01*
X9229Y-16717D01*
X9210Y-16726D01*
X9201Y-16735D01*
X9192Y-16754D01*
X9192Y-16792D01*
X9201Y-16810D01*
X9210Y-16820D01*
X9229Y-16829D01*
X9267Y-16829D01*
X9286Y-16820D01*
X9295Y-16810D01*
X9304Y-16792D01*
X9304Y-16754D01*
X9295Y-16735D01*
X9286Y-16726D01*
X9267Y-16717D01*
X9092Y-18210D02*
X9082Y-18220D01*
X9054Y-18229D01*
X9035Y-18229D01*
X9007Y-18220D01*
X8988Y-18201D01*
X8979Y-18182D01*
X8970Y-18145D01*
X8970Y-18117D01*
X8979Y-18079D01*
X8988Y-18060D01*
X9007Y-18042D01*
X9035Y-18032D01*
X9054Y-18032D01*
X9082Y-18042D01*
X9092Y-18051D01*
X9204Y-18117D02*
X9185Y-18107D01*
X9176Y-18098D01*
X9167Y-18079D01*
X9167Y-18070D01*
X9176Y-18051D01*
X9185Y-18042D01*
X9204Y-18032D01*
X9242Y-18032D01*
X9261Y-18042D01*
X9270Y-18051D01*
X9279Y-18070D01*
X9279Y-18079D01*
X9270Y-18098D01*
X9261Y-18107D01*
X9242Y-18117D01*
X9204Y-18117D01*
X9185Y-18126D01*
X9176Y-18135D01*
X9167Y-18154D01*
X9167Y-18192D01*
X9176Y-18210D01*
X9185Y-18220D01*
X9204Y-18229D01*
X9242Y-18229D01*
X9261Y-18220D01*
X9270Y-18210D01*
X9279Y-18192D01*
X9279Y-18154D01*
X9270Y-18135D01*
X9261Y-18126D01*
X9242Y-18117D01*
X15842Y-16254D02*
X15776Y-16160D01*
X15729Y-16254D02*
X15729Y-16057D01*
X15804Y-16057D01*
X15823Y-16067D01*
X15832Y-16076D01*
X15842Y-16095D01*
X15842Y-16123D01*
X15832Y-16142D01*
X15823Y-16151D01*
X15804Y-16160D01*
X15729Y-16160D01*
X16011Y-16057D02*
X15973Y-16057D01*
X15954Y-16067D01*
X15945Y-16076D01*
X15926Y-16104D01*
X15917Y-16142D01*
X15917Y-16217D01*
X15926Y-16235D01*
X15935Y-16245D01*
X15954Y-16254D01*
X15992Y-16254D01*
X16011Y-16245D01*
X16020Y-16235D01*
X16029Y-16217D01*
X16029Y-16170D01*
X16020Y-16151D01*
X16011Y-16142D01*
X15992Y-16132D01*
X15954Y-16132D01*
X15935Y-16142D01*
X15926Y-16151D01*
X15917Y-16170D01*
X15492Y-18185D02*
X15482Y-18195D01*
X15454Y-18204D01*
X15435Y-18204D01*
X15407Y-18195D01*
X15388Y-18176D01*
X15379Y-18157D01*
X15370Y-18120D01*
X15370Y-18092D01*
X15379Y-18054D01*
X15388Y-18035D01*
X15407Y-18017D01*
X15435Y-18007D01*
X15454Y-18007D01*
X15482Y-18017D01*
X15492Y-18026D01*
X15557Y-18007D02*
X15689Y-18007D01*
X15604Y-18204D01*
X9592Y-14154D02*
X9526Y-14060D01*
X9479Y-14154D02*
X9479Y-13957D01*
X9554Y-13957D01*
X9573Y-13967D01*
X9582Y-13976D01*
X9592Y-13995D01*
X9592Y-14023D01*
X9582Y-14042D01*
X9573Y-14051D01*
X9554Y-14060D01*
X9479Y-14060D01*
X9779Y-14154D02*
X9667Y-14154D01*
X9723Y-14154D02*
X9723Y-13957D01*
X9704Y-13985D01*
X9685Y-14004D01*
X9667Y-14014D01*
X10592Y-14035D02*
X10582Y-14045D01*
X10554Y-14054D01*
X10535Y-14054D01*
X10507Y-14045D01*
X10488Y-14026D01*
X10479Y-14007D01*
X10470Y-13970D01*
X10470Y-13942D01*
X10479Y-13904D01*
X10488Y-13885D01*
X10507Y-13867D01*
X10535Y-13857D01*
X10554Y-13857D01*
X10582Y-13867D01*
X10592Y-13876D01*
X10685Y-14054D02*
X10723Y-14054D01*
X10742Y-14045D01*
X10751Y-14035D01*
X10770Y-14007D01*
X10779Y-13970D01*
X10779Y-13895D01*
X10770Y-13876D01*
X10761Y-13867D01*
X10742Y-13857D01*
X10704Y-13857D01*
X10685Y-13867D01*
X10676Y-13876D01*
X10667Y-13895D01*
X10667Y-13942D01*
X10676Y-13960D01*
X10685Y-13970D01*
X10704Y-13979D01*
X10742Y-13979D01*
X10761Y-13970D01*
X10770Y-13960D01*
X10779Y-13942D01*
X11492Y-14054D02*
X11398Y-14054D01*
X11398Y-13857D01*
X11661Y-14054D02*
X11548Y-14054D01*
X11604Y-14054D02*
X11604Y-13857D01*
X11585Y-13885D01*
X11567Y-13904D01*
X11548Y-13914D01*
X12348Y-14054D02*
X12282Y-13960D01*
X12235Y-14054D02*
X12235Y-13857D01*
X12310Y-13857D01*
X12329Y-13867D01*
X12338Y-13876D01*
X12348Y-13895D01*
X12348Y-13923D01*
X12338Y-13942D01*
X12329Y-13951D01*
X12310Y-13960D01*
X12235Y-13960D01*
X12535Y-14054D02*
X12423Y-14054D01*
X12479Y-14054D02*
X12479Y-13857D01*
X12460Y-13885D01*
X12442Y-13904D01*
X12423Y-13914D01*
X12657Y-13857D02*
X12676Y-13857D01*
X12695Y-13867D01*
X12704Y-13876D01*
X12714Y-13895D01*
X12723Y-13932D01*
X12723Y-13979D01*
X12714Y-14017D01*
X12704Y-14035D01*
X12695Y-14045D01*
X12676Y-14054D01*
X12657Y-14054D01*
X12639Y-14045D01*
X12629Y-14035D01*
X12620Y-14017D01*
X12611Y-13979D01*
X12611Y-13932D01*
X12620Y-13895D01*
X12629Y-13876D01*
X12639Y-13867D01*
X12657Y-13857D01*
X13317Y-14054D02*
X13251Y-13960D01*
X13204Y-14054D02*
X13204Y-13857D01*
X13279Y-13857D01*
X13298Y-13867D01*
X13307Y-13876D01*
X13317Y-13895D01*
X13317Y-13923D01*
X13307Y-13942D01*
X13298Y-13951D01*
X13279Y-13960D01*
X13204Y-13960D01*
X13410Y-14054D02*
X13448Y-14054D01*
X13467Y-14045D01*
X13476Y-14035D01*
X13495Y-14007D01*
X13504Y-13970D01*
X13504Y-13895D01*
X13495Y-13876D01*
X13486Y-13867D01*
X13467Y-13857D01*
X13429Y-13857D01*
X13410Y-13867D01*
X13401Y-13876D01*
X13392Y-13895D01*
X13392Y-13942D01*
X13401Y-13960D01*
X13410Y-13970D01*
X13429Y-13979D01*
X13467Y-13979D01*
X13486Y-13970D01*
X13495Y-13960D01*
X13504Y-13942D01*
X6623Y-7910D02*
X6613Y-7920D01*
X6585Y-7929D01*
X6567Y-7929D01*
X6538Y-7920D01*
X6520Y-7901D01*
X6510Y-7882D01*
X6501Y-7845D01*
X6501Y-7817D01*
X6510Y-7779D01*
X6520Y-7760D01*
X6538Y-7742D01*
X6567Y-7732D01*
X6585Y-7732D01*
X6613Y-7742D01*
X6623Y-7751D01*
X6810Y-7929D02*
X6698Y-7929D01*
X6754Y-7929D02*
X6754Y-7732D01*
X6735Y-7760D01*
X6717Y-7779D01*
X6698Y-7789D01*
X6886Y-7751D02*
X6895Y-7742D01*
X6914Y-7732D01*
X6961Y-7732D01*
X6979Y-7742D01*
X6989Y-7751D01*
X6998Y-7770D01*
X6998Y-7789D01*
X6989Y-7817D01*
X6876Y-7929D01*
X6998Y-7929D01*
X14273Y-7960D02*
X14263Y-7970D01*
X14235Y-7979D01*
X14217Y-7979D01*
X14188Y-7970D01*
X14170Y-7951D01*
X14160Y-7932D01*
X14151Y-7895D01*
X14151Y-7867D01*
X14160Y-7829D01*
X14170Y-7810D01*
X14188Y-7792D01*
X14217Y-7782D01*
X14235Y-7782D01*
X14263Y-7792D01*
X14273Y-7801D01*
X14460Y-7979D02*
X14348Y-7979D01*
X14404Y-7979D02*
X14404Y-7782D01*
X14385Y-7810D01*
X14367Y-7829D01*
X14348Y-7839D01*
X14648Y-7979D02*
X14536Y-7979D01*
X14592Y-7979D02*
X14592Y-7782D01*
X14573Y-7810D01*
X14554Y-7829D01*
X14536Y-7839D01*
X18717Y-6660D02*
X18707Y-6670D01*
X18679Y-6679D01*
X18660Y-6679D01*
X18632Y-6670D01*
X18613Y-6651D01*
X18604Y-6632D01*
X18595Y-6595D01*
X18595Y-6567D01*
X18604Y-6529D01*
X18613Y-6510D01*
X18632Y-6492D01*
X18660Y-6482D01*
X18679Y-6482D01*
X18707Y-6492D01*
X18717Y-6501D01*
X18792Y-6501D02*
X18801Y-6492D01*
X18820Y-6482D01*
X18867Y-6482D01*
X18886Y-6492D01*
X18895Y-6501D01*
X18904Y-6520D01*
X18904Y-6539D01*
X18895Y-6567D01*
X18782Y-6679D01*
X18904Y-6679D01*
X10460Y-4307D02*
X10470Y-4317D01*
X10479Y-4345D01*
X10479Y-4364D01*
X10470Y-4392D01*
X10451Y-4411D01*
X10432Y-4420D01*
X10395Y-4429D01*
X10367Y-4429D01*
X10329Y-4420D01*
X10310Y-4411D01*
X10292Y-4392D01*
X10282Y-4364D01*
X10282Y-4345D01*
X10292Y-4317D01*
X10301Y-4307D01*
X10348Y-4138D02*
X10479Y-4138D01*
X10273Y-4185D02*
X10414Y-4232D01*
X10414Y-4110D01*
X12742Y-610D02*
X12732Y-620D01*
X12704Y-629D01*
X12685Y-629D01*
X12657Y-620D01*
X12638Y-601D01*
X12629Y-582D01*
X12620Y-545D01*
X12620Y-517D01*
X12629Y-479D01*
X12638Y-460D01*
X12657Y-442D01*
X12685Y-432D01*
X12704Y-432D01*
X12732Y-442D01*
X12742Y-451D01*
X12807Y-432D02*
X12929Y-432D01*
X12864Y-507D01*
X12892Y-507D01*
X12911Y-517D01*
X12920Y-526D01*
X12929Y-545D01*
X12929Y-592D01*
X12920Y-610D01*
X12911Y-620D01*
X12892Y-629D01*
X12835Y-629D01*
X12817Y-620D01*
X12807Y-610D01*
X15698Y-1029D02*
X15632Y-935D01*
X15585Y-1029D02*
X15585Y-832D01*
X15660Y-832D01*
X15679Y-842D01*
X15688Y-851D01*
X15698Y-870D01*
X15698Y-898D01*
X15688Y-917D01*
X15679Y-926D01*
X15660Y-935D01*
X15585Y-935D01*
X15885Y-1029D02*
X15773Y-1029D01*
X15829Y-1029D02*
X15829Y-832D01*
X15810Y-860D01*
X15792Y-879D01*
X15773Y-889D01*
X15998Y-917D02*
X15979Y-907D01*
X15970Y-898D01*
X15961Y-879D01*
X15961Y-870D01*
X15970Y-851D01*
X15979Y-842D01*
X15998Y-832D01*
X16036Y-832D01*
X16054Y-842D01*
X16064Y-851D01*
X16073Y-870D01*
X16073Y-879D01*
X16064Y-898D01*
X16054Y-907D01*
X16036Y-917D01*
X15998Y-917D01*
X15979Y-926D01*
X15970Y-935D01*
X15961Y-954D01*
X15961Y-992D01*
X15970Y-1010D01*
X15979Y-1020D01*
X15998Y-1029D01*
X16036Y-1029D01*
X16054Y-1020D01*
X16064Y-1010D01*
X16073Y-992D01*
X16073Y-954D01*
X16064Y-935D01*
X16054Y-926D01*
X16036Y-917D01*
X16817Y-1010D02*
X16807Y-1020D01*
X16779Y-1029D01*
X16760Y-1029D01*
X16732Y-1020D01*
X16713Y-1001D01*
X16704Y-982D01*
X16695Y-945D01*
X16695Y-917D01*
X16704Y-879D01*
X16713Y-860D01*
X16732Y-842D01*
X16760Y-832D01*
X16779Y-832D01*
X16807Y-842D01*
X16817Y-851D01*
X17004Y-1029D02*
X16892Y-1029D01*
X16948Y-1029D02*
X16948Y-832D01*
X16929Y-860D01*
X16910Y-879D01*
X16892Y-889D01*
%LPC*%
G54D20*
X13302Y-16540D03*
X13302Y-17525D03*
X13302Y-18509D03*
X7594Y-18509D03*
X7594Y-16540D03*
G54D21*
X10350Y-15280D03*
G54D22*
X20287Y-3637D03*
X20287Y-4637D03*
X20287Y-5637D03*
X20287Y-6637D03*
X20287Y-7637D03*
X20287Y-8637D03*
G54D23*
X20287Y-9637D03*
X662Y-13637D03*
G54D22*
X662Y-12637D03*
X662Y-11637D03*
X662Y-10637D03*
X662Y-9637D03*
X662Y-8637D03*
X662Y-7637D03*
X662Y-6637D03*
X662Y-5637D03*
X662Y-4637D03*
X662Y-3637D03*
X662Y-2637D03*
X662Y-1637D03*
X662Y-637D03*
X20275Y-2650D03*
G54D24*
X10575Y-10050D03*
X10890Y-10050D03*
X11205Y-10050D03*
X11520Y-10050D03*
X11835Y-10050D03*
X12150Y-10050D03*
X10260Y-10050D03*
X9945Y-10050D03*
X9630Y-10050D03*
X9315Y-10050D03*
X9000Y-10050D03*
X10575Y-5550D03*
X10890Y-5550D03*
X11205Y-5550D03*
X11520Y-5550D03*
X11835Y-5550D03*
X12150Y-5550D03*
X10260Y-5550D03*
X9945Y-5550D03*
X9630Y-5550D03*
X9315Y-5550D03*
X9000Y-5550D03*
G54D25*
X12825Y-7800D03*
X8325Y-7800D03*
X12825Y-7485D03*
X8325Y-7485D03*
X8325Y-7170D03*
X12825Y-7170D03*
X12825Y-6855D03*
X8325Y-6855D03*
X8325Y-6540D03*
X12825Y-6540D03*
X12825Y-6225D03*
X8325Y-6225D03*
X8325Y-8115D03*
X12825Y-8115D03*
X12825Y-8430D03*
X8325Y-8430D03*
X8325Y-8745D03*
X12825Y-8745D03*
X12825Y-9060D03*
X8325Y-9060D03*
X8325Y-9375D03*
X12825Y-9375D03*
G54D26*
X16875Y-6075D03*
X17625Y-6075D03*
X16875Y-5075D03*
X17250Y-6075D03*
X17625Y-5075D03*
G54D27*
X14825Y-2225D03*
X14825Y-1475D03*
X13825Y-2225D03*
X14825Y-1850D03*
X13825Y-1475D03*
G54D28*
X9200Y-11575D03*
X10000Y-11575D03*
G54D23*
X19475Y-17650D03*
G54D22*
X19475Y-16650D03*
X17450Y-18500D03*
X17450Y-16500D03*
X14450Y-18500D03*
X14450Y-16500D03*
X6475Y-18475D03*
X6475Y-16475D03*
X3475Y-18475D03*
X3475Y-16475D03*
G54D23*
X6200Y-13000D03*
G54D22*
X7200Y-13000D03*
X8200Y-13000D03*
X9200Y-13000D03*
G54D23*
X4900Y-4125D03*
G54D22*
X5900Y-4125D03*
X6900Y-4125D03*
X7900Y-4125D03*
G54D23*
X20200Y-11150D03*
G54D22*
X20200Y-12150D03*
X20200Y-13150D03*
G54D23*
X1550Y-15125D03*
G54D22*
X1550Y-16125D03*
G54D23*
X1550Y-17325D03*
G54D22*
X1550Y-18325D03*
G54D29*
X2575Y-650D03*
X1825Y-650D03*
X2575Y-1650D03*
X1825Y-1650D03*
X2575Y-2650D03*
X1825Y-2650D03*
X2575Y-3650D03*
X1825Y-3650D03*
X2575Y-4650D03*
X1825Y-4650D03*
X2575Y-5650D03*
X1825Y-5650D03*
X2575Y-6650D03*
X1825Y-6650D03*
X2575Y-7650D03*
X1825Y-7650D03*
X2575Y-8650D03*
X1825Y-8650D03*
X2575Y-10625D03*
X1825Y-10625D03*
G54D30*
X1950Y-13000D03*
X1950Y-13750D03*
X2900Y-13000D03*
X2900Y-13750D03*
X3800Y-14275D03*
X3800Y-15025D03*
X4725Y-14275D03*
X4725Y-15025D03*
G54D29*
X4550Y-16775D03*
X5300Y-16775D03*
G54D30*
X5300Y-18475D03*
X5300Y-17725D03*
X8550Y-16375D03*
X8550Y-17125D03*
X8550Y-18525D03*
X8550Y-17775D03*
G54D29*
X15500Y-16725D03*
X16250Y-16725D03*
G54D30*
X16150Y-18500D03*
X16150Y-17750D03*
G54D29*
X8350Y-14075D03*
X9100Y-14075D03*
G54D30*
X10625Y-13450D03*
X10625Y-12700D03*
X11525Y-12700D03*
X11525Y-13450D03*
X12475Y-12700D03*
X12475Y-13450D03*
X13350Y-13450D03*
X13350Y-12700D03*
X6750Y-9125D03*
X6750Y-8375D03*
X14400Y-6625D03*
X14400Y-7375D03*
X18750Y-5325D03*
X18750Y-6075D03*
G54D29*
X9125Y-4275D03*
X9875Y-4275D03*
G54D30*
X12775Y-1825D03*
X12775Y-1075D03*
X15825Y-2225D03*
X15825Y-1475D03*
X16850Y-2225D03*
X16850Y-1475D03*
M02*
