G04 (created by PCBNEW (2013-07-07 BZR 4022)-stable) date 2015-10-06 15:27:07*
%MOIN*%
G04 Gerber Fmt 3.4, Leading zero omitted, Abs format*
%FSLAX34Y34*%
G01*
G70*
G90*
G04 APERTURE LIST*
%ADD10C,0.00393701*%
%ADD11C,0.06*%
%ADD12R,0.125984X0.125984*%
%ADD13C,0.055*%
%ADD14R,0.055X0.055*%
%ADD15R,0.016X0.06*%
%ADD16R,0.06X0.016*%
%ADD17R,0.02X0.03*%
%ADD18R,0.03X0.02*%
%ADD19C,0.056*%
%ADD20R,0.035X0.055*%
%ADD21R,0.055X0.035*%
%ADD22C,0.035*%
%ADD23C,0.0275591*%
%ADD24C,0.0177165*%
%ADD25C,0.0216535*%
%ADD26C,0.01*%
G04 APERTURE END LIST*
G54D10*
G54D11*
X13302Y-16540D03*
X13302Y-17525D03*
X13302Y-18509D03*
X7594Y-18509D03*
X7594Y-16540D03*
G54D12*
X10350Y-15280D03*
G54D13*
X20287Y-3637D03*
X20287Y-4637D03*
X20287Y-5637D03*
X20287Y-6637D03*
X20287Y-7637D03*
X20287Y-8637D03*
G54D14*
X20287Y-9637D03*
X662Y-13637D03*
G54D13*
X662Y-12637D03*
X662Y-11637D03*
X662Y-10637D03*
X662Y-9637D03*
X662Y-8637D03*
X662Y-7637D03*
X662Y-6637D03*
X662Y-5637D03*
X662Y-4637D03*
X662Y-3637D03*
X662Y-2637D03*
X662Y-1637D03*
X662Y-637D03*
X20275Y-2650D03*
G54D15*
X10575Y-10050D03*
X10890Y-10050D03*
X11205Y-10050D03*
X11520Y-10050D03*
X11835Y-10050D03*
X12150Y-10050D03*
X10260Y-10050D03*
X9945Y-10050D03*
X9630Y-10050D03*
X9315Y-10050D03*
X9000Y-10050D03*
X10575Y-5550D03*
X10890Y-5550D03*
X11205Y-5550D03*
X11520Y-5550D03*
X11835Y-5550D03*
X12150Y-5550D03*
X10260Y-5550D03*
X9945Y-5550D03*
X9630Y-5550D03*
X9315Y-5550D03*
X9000Y-5550D03*
G54D16*
X12825Y-7800D03*
X8325Y-7800D03*
X12825Y-7485D03*
X8325Y-7485D03*
X8325Y-7170D03*
X12825Y-7170D03*
X12825Y-6855D03*
X8325Y-6855D03*
X8325Y-6540D03*
X12825Y-6540D03*
X12825Y-6225D03*
X8325Y-6225D03*
X8325Y-8115D03*
X12825Y-8115D03*
X12825Y-8430D03*
X8325Y-8430D03*
X8325Y-8745D03*
X12825Y-8745D03*
X12825Y-9060D03*
X8325Y-9060D03*
X8325Y-9375D03*
X12825Y-9375D03*
G54D17*
X16875Y-6075D03*
X17625Y-6075D03*
X16875Y-5075D03*
X17250Y-6075D03*
X17625Y-5075D03*
G54D18*
X14825Y-2225D03*
X14825Y-1475D03*
X13825Y-2225D03*
X14825Y-1850D03*
X13825Y-1475D03*
G54D19*
X9200Y-11575D03*
X10000Y-11575D03*
G54D14*
X19475Y-17650D03*
G54D13*
X19475Y-16650D03*
X17450Y-18500D03*
X17450Y-16500D03*
X14450Y-18500D03*
X14450Y-16500D03*
X6475Y-18475D03*
X6475Y-16475D03*
X3475Y-18475D03*
X3475Y-16475D03*
G54D14*
X6200Y-13000D03*
G54D13*
X7200Y-13000D03*
X8200Y-13000D03*
X9200Y-13000D03*
G54D14*
X4900Y-4125D03*
G54D13*
X5900Y-4125D03*
X6900Y-4125D03*
X7900Y-4125D03*
G54D14*
X20200Y-11150D03*
G54D13*
X20200Y-12150D03*
X20200Y-13150D03*
G54D14*
X1550Y-15125D03*
G54D13*
X1550Y-16125D03*
G54D14*
X1550Y-17325D03*
G54D13*
X1550Y-18325D03*
G54D20*
X2575Y-650D03*
X1825Y-650D03*
X2575Y-1650D03*
X1825Y-1650D03*
X2575Y-2650D03*
X1825Y-2650D03*
X2575Y-3650D03*
X1825Y-3650D03*
X2575Y-4650D03*
X1825Y-4650D03*
X2575Y-5650D03*
X1825Y-5650D03*
X2575Y-6650D03*
X1825Y-6650D03*
X2575Y-7650D03*
X1825Y-7650D03*
X2575Y-8650D03*
X1825Y-8650D03*
X2575Y-10625D03*
X1825Y-10625D03*
G54D21*
X1950Y-13000D03*
X1950Y-13750D03*
X2900Y-13000D03*
X2900Y-13750D03*
X3800Y-14275D03*
X3800Y-15025D03*
X4725Y-14275D03*
X4725Y-15025D03*
G54D20*
X4550Y-16775D03*
X5300Y-16775D03*
G54D21*
X5300Y-18475D03*
X5300Y-17725D03*
X8550Y-16375D03*
X8550Y-17125D03*
X8550Y-18525D03*
X8550Y-17775D03*
G54D20*
X15500Y-16725D03*
X16250Y-16725D03*
G54D21*
X16150Y-18500D03*
X16150Y-17750D03*
G54D20*
X8350Y-14075D03*
X9100Y-14075D03*
G54D21*
X10625Y-13450D03*
X10625Y-12700D03*
X11525Y-12700D03*
X11525Y-13450D03*
X12475Y-12700D03*
X12475Y-13450D03*
X13350Y-13450D03*
X13350Y-12700D03*
X6750Y-9125D03*
X6750Y-8375D03*
X14400Y-6625D03*
X14400Y-7375D03*
X18750Y-5325D03*
X18750Y-6075D03*
G54D20*
X9125Y-4275D03*
X9875Y-4275D03*
G54D21*
X12775Y-1825D03*
X12775Y-1075D03*
X15825Y-2225D03*
X15825Y-1475D03*
X16850Y-2225D03*
X16850Y-1475D03*
G54D22*
X12825Y-5625D03*
X17775Y-6675D03*
X13775Y-8425D03*
X11875Y-7800D03*
X3775Y-13300D03*
X4750Y-13000D03*
X12575Y-4900D03*
X14075Y-5750D03*
X14575Y-5750D03*
X9425Y-9025D03*
X9800Y-6450D03*
X15275Y-2700D03*
X15275Y-3150D03*
X13125Y-14275D03*
G54D23*
X12475Y-12700D02*
X13350Y-12700D01*
G54D24*
X10890Y-10050D02*
X10890Y-10615D01*
X12475Y-12200D02*
X12475Y-12700D01*
X10890Y-10615D02*
X12475Y-12200D01*
X8325Y-9060D02*
X7790Y-9060D01*
X6225Y-10625D02*
X2575Y-10625D01*
X7790Y-9060D02*
X6225Y-10625D01*
X13302Y-16540D02*
X13302Y-15647D01*
X13302Y-15647D02*
X14475Y-14475D01*
X12550Y-11200D02*
X12850Y-11500D01*
X12850Y-11500D02*
X13825Y-11500D01*
X13825Y-11500D02*
X14475Y-12150D01*
X14475Y-12150D02*
X14475Y-14475D01*
X11835Y-10050D02*
X11835Y-10485D01*
X11835Y-10485D02*
X12550Y-11200D01*
X12150Y-10050D02*
X12150Y-10250D01*
X12975Y-11075D02*
X14100Y-11075D01*
X12150Y-10250D02*
X12975Y-11075D01*
X13302Y-18509D02*
X13515Y-18509D01*
X14950Y-11925D02*
X14100Y-11075D01*
X14950Y-14650D02*
X14950Y-11925D01*
X13900Y-15700D02*
X14950Y-14650D01*
X13900Y-18125D02*
X13900Y-15700D01*
X13515Y-18509D02*
X13900Y-18125D01*
X12825Y-6225D02*
X12825Y-5625D01*
G54D25*
X17625Y-6075D02*
X17625Y-6525D01*
X17625Y-6525D02*
X17775Y-6675D01*
G54D24*
X17775Y-6675D02*
X17625Y-6525D01*
X13770Y-8430D02*
X12825Y-8430D01*
X13775Y-8425D02*
X13770Y-8430D01*
X7200Y-13000D02*
X7200Y-12000D01*
X9000Y-10200D02*
X9000Y-10050D01*
X7200Y-12000D02*
X9000Y-10200D01*
X6900Y-4125D02*
X6900Y-4225D01*
X8225Y-5550D02*
X9000Y-5550D01*
X6900Y-4225D02*
X8225Y-5550D01*
X11520Y-5550D02*
X11520Y-3045D01*
X2600Y-650D02*
X2575Y-650D01*
X3525Y-1575D02*
X2600Y-650D01*
X10050Y-1575D02*
X3525Y-1575D01*
X11520Y-3045D02*
X10050Y-1575D01*
X10890Y-3750D02*
X10890Y-3715D01*
X10890Y-5550D02*
X10890Y-3750D01*
X10890Y-3715D02*
X9900Y-2725D01*
X9900Y-2725D02*
X2650Y-2725D01*
X2650Y-2725D02*
X2575Y-2650D01*
X11205Y-5550D02*
X11205Y-3405D01*
X11205Y-3405D02*
X10000Y-2200D01*
X2800Y-1650D02*
X2575Y-1650D01*
X3350Y-2200D02*
X2800Y-1650D01*
X10000Y-2200D02*
X3350Y-2200D01*
X2575Y-3650D02*
X2900Y-3650D01*
X3425Y-3125D02*
X4625Y-3125D01*
X2900Y-3650D02*
X3425Y-3125D01*
X10575Y-5550D02*
X10575Y-3975D01*
X4625Y-3125D02*
X9725Y-3125D01*
X9725Y-3125D02*
X10575Y-3975D01*
G54D23*
X8550Y-17775D02*
X8550Y-17125D01*
G54D24*
X11520Y-10050D02*
X11520Y-10695D01*
X13525Y-11900D02*
X13750Y-12125D01*
X12725Y-11900D02*
X13525Y-11900D01*
X11520Y-10695D02*
X12725Y-11900D01*
X11075Y-17125D02*
X8550Y-17125D01*
X13750Y-12125D02*
X14075Y-12450D01*
X14075Y-12450D02*
X14075Y-14125D01*
X14075Y-14125D02*
X11075Y-17125D01*
X8325Y-9375D02*
X8150Y-9375D01*
X5425Y-16650D02*
X5300Y-16775D01*
X5425Y-12100D02*
X5425Y-16650D01*
X8150Y-9375D02*
X5425Y-12100D01*
G54D23*
X5300Y-17725D02*
X5300Y-16775D01*
G54D24*
X12825Y-9375D02*
X12825Y-10025D01*
X13425Y-10625D02*
X14325Y-10625D01*
X12825Y-10025D02*
X13425Y-10625D01*
X15400Y-14575D02*
X15400Y-15600D01*
X15400Y-11700D02*
X14325Y-10625D01*
X15400Y-14575D02*
X15400Y-12700D01*
X15400Y-12700D02*
X15400Y-11700D01*
X15400Y-15600D02*
X16250Y-16450D01*
X16250Y-16450D02*
X16250Y-16725D01*
G54D23*
X16250Y-16725D02*
X16250Y-17650D01*
X16250Y-17650D02*
X16150Y-17750D01*
G54D24*
X2575Y-4650D02*
X2900Y-4650D01*
X4025Y-5775D02*
X7125Y-5775D01*
X2900Y-4650D02*
X4025Y-5775D01*
X8325Y-6540D02*
X7890Y-6540D01*
X7890Y-6540D02*
X7125Y-5775D01*
X2575Y-7650D02*
X2600Y-7650D01*
X6825Y-7175D02*
X7050Y-7400D01*
X3075Y-7175D02*
X6825Y-7175D01*
X2600Y-7650D02*
X3075Y-7175D01*
X8325Y-7800D02*
X7450Y-7800D01*
X7450Y-7800D02*
X7050Y-7400D01*
X6950Y-7775D02*
X3450Y-7775D01*
X3450Y-7775D02*
X2575Y-8650D01*
X8325Y-8115D02*
X7290Y-8115D01*
X7290Y-8115D02*
X6950Y-7775D01*
X7000Y-6200D02*
X3750Y-6200D01*
X3750Y-6200D02*
X3200Y-5650D01*
X8325Y-6855D02*
X7655Y-6855D01*
X7655Y-6855D02*
X7000Y-6200D01*
X3200Y-5650D02*
X2575Y-5650D01*
X8325Y-7485D02*
X7710Y-7485D01*
X6875Y-6650D02*
X6641Y-6650D01*
X7710Y-7485D02*
X6875Y-6650D01*
X6641Y-6650D02*
X2575Y-6650D01*
X2625Y-6650D02*
X2575Y-6650D01*
X5900Y-4125D02*
X6000Y-4125D01*
X8100Y-6225D02*
X8325Y-6225D01*
X6000Y-4125D02*
X8100Y-6225D01*
G54D23*
X18750Y-5325D02*
X18750Y-5150D01*
X19262Y-4637D02*
X20287Y-4637D01*
X18750Y-5150D02*
X19262Y-4637D01*
X16875Y-5075D02*
X16875Y-4700D01*
X18750Y-4975D02*
X18750Y-5325D01*
X18225Y-4450D02*
X18750Y-4975D01*
X17125Y-4450D02*
X18225Y-4450D01*
X16875Y-4700D02*
X17125Y-4450D01*
X2900Y-13000D02*
X3475Y-13000D01*
X3475Y-13000D02*
X3775Y-13300D01*
X1950Y-13000D02*
X2900Y-13000D01*
G54D24*
X11875Y-7800D02*
X12825Y-7800D01*
G54D23*
X3775Y-13300D02*
X3750Y-13275D01*
G54D24*
X12150Y-5550D02*
X12150Y-5325D01*
X12150Y-5325D02*
X12575Y-4900D01*
G54D23*
X4725Y-13025D02*
X4725Y-13150D01*
X4750Y-13000D02*
X4725Y-13025D01*
X4725Y-14275D02*
X4725Y-13150D01*
X3800Y-14275D02*
X4725Y-14275D01*
X8200Y-13000D02*
X8200Y-13925D01*
X8200Y-13925D02*
X8350Y-14075D01*
G54D24*
X8200Y-13000D02*
X8200Y-11600D01*
X9315Y-10485D02*
X9315Y-10050D01*
X8200Y-11600D02*
X9315Y-10485D01*
X8200Y-13925D02*
X8350Y-14075D01*
X14825Y-1850D02*
X16425Y-1850D01*
X16800Y-1475D02*
X16850Y-1475D01*
X16425Y-1850D02*
X16800Y-1475D01*
G54D23*
X8550Y-18525D02*
X7609Y-18525D01*
X7609Y-18525D02*
X7594Y-18509D01*
X10350Y-15280D02*
X11044Y-15280D01*
X12475Y-13850D02*
X12475Y-13450D01*
X11044Y-15280D02*
X12475Y-13850D01*
X6200Y-13000D02*
X6200Y-13775D01*
X7705Y-15280D02*
X10350Y-15280D01*
X6200Y-13775D02*
X7705Y-15280D01*
X5300Y-18475D02*
X6475Y-18475D01*
X1550Y-16125D02*
X1925Y-16125D01*
X3025Y-15025D02*
X3800Y-15025D01*
X1925Y-16125D02*
X3025Y-15025D01*
X1950Y-13750D02*
X775Y-13750D01*
X775Y-13750D02*
X662Y-13637D01*
X4900Y-4125D02*
X4900Y-3875D01*
X4900Y-3875D02*
X5250Y-3525D01*
X9500Y-3525D02*
X9875Y-3900D01*
X5250Y-3525D02*
X9500Y-3525D01*
X9875Y-3900D02*
X9875Y-4275D01*
X12775Y-1075D02*
X12775Y-1050D01*
X12775Y-1050D02*
X13025Y-800D01*
X13025Y-800D02*
X16375Y-800D01*
X16375Y-800D02*
X16850Y-1275D01*
X16850Y-1275D02*
X16850Y-1475D01*
X17700Y-2650D02*
X17700Y-1800D01*
X17375Y-1475D02*
X16850Y-1475D01*
X17700Y-1800D02*
X17375Y-1475D01*
X16225Y-4450D02*
X16225Y-5175D01*
X16225Y-5175D02*
X16625Y-5575D01*
X16225Y-4450D02*
X16225Y-4125D01*
X17700Y-2650D02*
X20275Y-2650D01*
X16225Y-4125D02*
X17700Y-2650D01*
X19475Y-17650D02*
X18950Y-17650D01*
X18950Y-17650D02*
X18350Y-17050D01*
X15475Y-7375D02*
X14400Y-7375D01*
X15975Y-7875D02*
X15475Y-7375D01*
X15975Y-12625D02*
X15975Y-7875D01*
X18350Y-15000D02*
X15975Y-12625D01*
X18350Y-17050D02*
X18350Y-15000D01*
X18050Y-7250D02*
X18200Y-7250D01*
X19500Y-13150D02*
X20200Y-13150D01*
X18925Y-12575D02*
X19500Y-13150D01*
X18925Y-7975D02*
X18925Y-12575D01*
X18200Y-7250D02*
X18925Y-7975D01*
X17250Y-6775D02*
X17250Y-6975D01*
G54D25*
X17250Y-6075D02*
X17250Y-6775D01*
G54D23*
X18750Y-6550D02*
X18750Y-6075D01*
X18050Y-7250D02*
X18750Y-6550D01*
X17525Y-7250D02*
X18050Y-7250D01*
X17250Y-6975D02*
X17525Y-7250D01*
G54D24*
X9875Y-4275D02*
X9875Y-3900D01*
X10260Y-5550D02*
X10260Y-4660D01*
X10260Y-4660D02*
X9875Y-4275D01*
X8325Y-8430D02*
X9670Y-8430D01*
X9670Y-8430D02*
X10260Y-7840D01*
X11170Y-7170D02*
X10930Y-7170D01*
X10930Y-7170D02*
X10260Y-7840D01*
X10260Y-7840D02*
X10260Y-10050D01*
X10260Y-5550D02*
X10260Y-6260D01*
X11170Y-7170D02*
X11855Y-7170D01*
X10260Y-6260D02*
X11170Y-7170D01*
G54D25*
X16225Y-5175D02*
X16625Y-5575D01*
X16625Y-5575D02*
X17075Y-5575D01*
X17075Y-5575D02*
X17250Y-5750D01*
X17250Y-6075D02*
X17250Y-5750D01*
G54D24*
X12825Y-7170D02*
X14195Y-7170D01*
X14195Y-7170D02*
X14400Y-7375D01*
X10625Y-12700D02*
X10625Y-11375D01*
X10260Y-10050D02*
X10260Y-10710D01*
X10260Y-10835D02*
X10260Y-10710D01*
X10625Y-11375D02*
X10260Y-11010D01*
X10260Y-11010D02*
X10260Y-10835D01*
X8325Y-8430D02*
X6805Y-8430D01*
X6805Y-8430D02*
X6750Y-8375D01*
G54D23*
X16150Y-18500D02*
X17450Y-18500D01*
X14450Y-18500D02*
X17450Y-18500D01*
G54D25*
X14825Y-1850D02*
X13500Y-1850D01*
X13150Y-1075D02*
X12775Y-1075D01*
X13375Y-1300D02*
X13150Y-1075D01*
X13375Y-1725D02*
X13375Y-1300D01*
X13500Y-1850D02*
X13375Y-1725D01*
G54D24*
X12825Y-7170D02*
X11855Y-7170D01*
G54D23*
X662Y-8637D02*
X1812Y-8637D01*
X1812Y-8637D02*
X1825Y-8650D01*
G54D24*
X1812Y-8637D02*
X1825Y-8650D01*
G54D23*
X662Y-10637D02*
X1812Y-10637D01*
X1812Y-10637D02*
X1825Y-10625D01*
G54D24*
X1812Y-10637D02*
X1825Y-10625D01*
G54D23*
X662Y-5637D02*
X1812Y-5637D01*
X1812Y-5637D02*
X1825Y-5650D01*
X662Y-3637D02*
X1812Y-3637D01*
X1812Y-3637D02*
X1825Y-3650D01*
X8550Y-16375D02*
X7759Y-16375D01*
X7759Y-16375D02*
X7594Y-16540D01*
X1550Y-15125D02*
X1725Y-15125D01*
X2900Y-13950D02*
X2900Y-13750D01*
X1725Y-15125D02*
X2900Y-13950D01*
X662Y-6637D02*
X1812Y-6637D01*
X1812Y-6637D02*
X1825Y-6650D01*
G54D24*
X1812Y-6637D02*
X1825Y-6650D01*
G54D23*
X662Y-7637D02*
X1812Y-7637D01*
X1812Y-7637D02*
X1825Y-7650D01*
G54D25*
X14825Y-1475D02*
X15825Y-1475D01*
G54D24*
X11525Y-12700D02*
X11525Y-11775D01*
X11525Y-11775D02*
X10975Y-11225D01*
X10575Y-10050D02*
X10575Y-10825D01*
X10575Y-10825D02*
X10975Y-11225D01*
G54D23*
X1550Y-17325D02*
X1600Y-17325D01*
X4725Y-15475D02*
X4725Y-15025D01*
X4400Y-15800D02*
X4725Y-15475D01*
X3125Y-15800D02*
X4400Y-15800D01*
X1600Y-17325D02*
X3125Y-15800D01*
X662Y-2637D02*
X1812Y-2637D01*
X1812Y-2637D02*
X1825Y-2650D01*
G54D24*
X1812Y-2637D02*
X1825Y-2650D01*
X9945Y-10050D02*
X9945Y-11520D01*
X9945Y-11520D02*
X10000Y-11575D01*
X9630Y-10050D02*
X9630Y-11145D01*
X9630Y-11145D02*
X9200Y-11575D01*
G54D23*
X662Y-1637D02*
X1812Y-1637D01*
X1812Y-1637D02*
X1825Y-1650D01*
X3475Y-16475D02*
X4250Y-16475D01*
X4250Y-16475D02*
X4550Y-16775D01*
X14450Y-16500D02*
X15275Y-16500D01*
X15275Y-16500D02*
X15500Y-16725D01*
X1825Y-650D02*
X675Y-650D01*
X675Y-650D02*
X662Y-637D01*
G54D24*
X675Y-650D02*
X662Y-637D01*
G54D23*
X662Y-4637D02*
X1812Y-4637D01*
X1812Y-4637D02*
X1825Y-4650D01*
G54D24*
X1812Y-4637D02*
X1825Y-4650D01*
G54D23*
X13825Y-2225D02*
X13000Y-2225D01*
X12775Y-2000D02*
X12775Y-1825D01*
X13000Y-2225D02*
X12775Y-2000D01*
X13825Y-2225D02*
X13825Y-2700D01*
X13825Y-2700D02*
X13825Y-5500D01*
X10625Y-13450D02*
X9650Y-13450D01*
X9650Y-13450D02*
X9200Y-13000D01*
X9200Y-13000D02*
X9200Y-13975D01*
X9200Y-13975D02*
X9100Y-14075D01*
G54D24*
X9945Y-5550D02*
X9945Y-6305D01*
X9945Y-6305D02*
X9800Y-6450D01*
G54D23*
X14400Y-6625D02*
X14400Y-6075D01*
X14400Y-6075D02*
X14075Y-5750D01*
X14400Y-6625D02*
X14400Y-5925D01*
X14400Y-5925D02*
X14575Y-5750D01*
X13825Y-5500D02*
X14075Y-5750D01*
G54D24*
X9945Y-5550D02*
X9945Y-5120D01*
X9125Y-4300D02*
X9125Y-4275D01*
X9945Y-5120D02*
X9125Y-4300D01*
X13825Y-5500D02*
X14075Y-5750D01*
X14400Y-6075D02*
X14075Y-5750D01*
X14400Y-5925D02*
X14575Y-5750D01*
X9145Y-8745D02*
X8325Y-8745D01*
X9425Y-9025D02*
X9145Y-8745D01*
X12825Y-6855D02*
X14170Y-6855D01*
X14170Y-6855D02*
X14400Y-6625D01*
X9650Y-13450D02*
X9200Y-13000D01*
X9200Y-13975D02*
X9100Y-14075D01*
X8325Y-8745D02*
X7355Y-8745D01*
X7355Y-8745D02*
X6975Y-9125D01*
X6975Y-9125D02*
X6750Y-9125D01*
G54D23*
X10625Y-13450D02*
X11525Y-13450D01*
X13350Y-13450D02*
X13350Y-14050D01*
X13350Y-14050D02*
X13125Y-14275D01*
X15825Y-2225D02*
X15750Y-2225D01*
X15750Y-2225D02*
X15275Y-2700D01*
X15575Y-3050D02*
X15575Y-3000D01*
X15575Y-3000D02*
X15275Y-2700D01*
X15575Y-3400D02*
X15525Y-3400D01*
X15525Y-3400D02*
X15275Y-3150D01*
X15025Y-2450D02*
X14900Y-2450D01*
X15275Y-2700D02*
X15025Y-2450D01*
X15600Y-2450D02*
X14900Y-2450D01*
X14900Y-2450D02*
X14825Y-2375D01*
X16725Y-6575D02*
X16725Y-6300D01*
X16500Y-6075D02*
X16225Y-6075D01*
X16725Y-6300D02*
X16500Y-6075D01*
X16225Y-6075D02*
X15575Y-5425D01*
X15575Y-2475D02*
X15600Y-2450D01*
X15600Y-2450D02*
X15825Y-2225D01*
X15575Y-5425D02*
X15575Y-4550D01*
X15575Y-4550D02*
X15575Y-3400D01*
X15575Y-3400D02*
X15575Y-3050D01*
X15575Y-3050D02*
X15575Y-2475D01*
G54D25*
X16875Y-6075D02*
X16875Y-6425D01*
G54D23*
X19475Y-14925D02*
X16725Y-12175D01*
X16725Y-12175D02*
X16725Y-6575D01*
X19475Y-14925D02*
X19475Y-16650D01*
G54D25*
X16875Y-6425D02*
X16725Y-6575D01*
G54D24*
X13125Y-14275D02*
X13350Y-14050D01*
X16225Y-6075D02*
X16875Y-6075D01*
G54D25*
X14825Y-2225D02*
X15825Y-2225D01*
G54D23*
X16850Y-2225D02*
X15825Y-2225D01*
G54D10*
G36*
X6821Y-9550D02*
X6084Y-10286D01*
X2994Y-10286D01*
X2962Y-10208D01*
X2891Y-10138D01*
X2799Y-10100D01*
X2700Y-10099D01*
X2350Y-10099D01*
X2258Y-10137D01*
X2199Y-10196D01*
X2141Y-10138D01*
X2049Y-10100D01*
X1950Y-10099D01*
X1600Y-10099D01*
X1508Y-10137D01*
X1438Y-10208D01*
X1420Y-10249D01*
X1017Y-10249D01*
X960Y-10192D01*
X827Y-10137D01*
X959Y-10082D01*
X1107Y-9935D01*
X1187Y-9742D01*
X1187Y-9533D01*
X1107Y-9340D01*
X960Y-9192D01*
X827Y-9137D01*
X959Y-9082D01*
X1017Y-9025D01*
X1420Y-9025D01*
X1437Y-9066D01*
X1508Y-9136D01*
X1600Y-9174D01*
X1699Y-9175D01*
X2049Y-9175D01*
X2141Y-9137D01*
X2200Y-9078D01*
X2258Y-9136D01*
X2350Y-9174D01*
X2449Y-9175D01*
X2799Y-9175D01*
X2891Y-9137D01*
X2961Y-9066D01*
X2999Y-8974D01*
X3000Y-8875D01*
X3000Y-8703D01*
X3590Y-8113D01*
X6240Y-8113D01*
X6224Y-8150D01*
X6225Y-8262D01*
X6287Y-8325D01*
X6700Y-8325D01*
X6700Y-8317D01*
X6800Y-8317D01*
X6800Y-8325D01*
X6807Y-8325D01*
X6807Y-8425D01*
X6800Y-8425D01*
X6800Y-8432D01*
X6700Y-8432D01*
X6700Y-8425D01*
X6287Y-8425D01*
X6225Y-8487D01*
X6224Y-8599D01*
X6262Y-8691D01*
X6321Y-8750D01*
X6263Y-8808D01*
X6225Y-8900D01*
X6224Y-8999D01*
X6224Y-9349D01*
X6262Y-9441D01*
X6333Y-9511D01*
X6425Y-9549D01*
X6524Y-9550D01*
X6821Y-9550D01*
X6821Y-9550D01*
G37*
G54D26*
X6821Y-9550D02*
X6084Y-10286D01*
X2994Y-10286D01*
X2962Y-10208D01*
X2891Y-10138D01*
X2799Y-10100D01*
X2700Y-10099D01*
X2350Y-10099D01*
X2258Y-10137D01*
X2199Y-10196D01*
X2141Y-10138D01*
X2049Y-10100D01*
X1950Y-10099D01*
X1600Y-10099D01*
X1508Y-10137D01*
X1438Y-10208D01*
X1420Y-10249D01*
X1017Y-10249D01*
X960Y-10192D01*
X827Y-10137D01*
X959Y-10082D01*
X1107Y-9935D01*
X1187Y-9742D01*
X1187Y-9533D01*
X1107Y-9340D01*
X960Y-9192D01*
X827Y-9137D01*
X959Y-9082D01*
X1017Y-9025D01*
X1420Y-9025D01*
X1437Y-9066D01*
X1508Y-9136D01*
X1600Y-9174D01*
X1699Y-9175D01*
X2049Y-9175D01*
X2141Y-9137D01*
X2200Y-9078D01*
X2258Y-9136D01*
X2350Y-9174D01*
X2449Y-9175D01*
X2799Y-9175D01*
X2891Y-9137D01*
X2961Y-9066D01*
X2999Y-8974D01*
X3000Y-8875D01*
X3000Y-8703D01*
X3590Y-8113D01*
X6240Y-8113D01*
X6224Y-8150D01*
X6225Y-8262D01*
X6287Y-8325D01*
X6700Y-8325D01*
X6700Y-8317D01*
X6800Y-8317D01*
X6800Y-8325D01*
X6807Y-8325D01*
X6807Y-8425D01*
X6800Y-8425D01*
X6800Y-8432D01*
X6700Y-8432D01*
X6700Y-8425D01*
X6287Y-8425D01*
X6225Y-8487D01*
X6224Y-8599D01*
X6262Y-8691D01*
X6321Y-8750D01*
X6263Y-8808D01*
X6225Y-8900D01*
X6224Y-8999D01*
X6224Y-9349D01*
X6262Y-9441D01*
X6333Y-9511D01*
X6425Y-9549D01*
X6524Y-9550D01*
X6821Y-9550D01*
G54D10*
G36*
X9871Y-3750D02*
X9824Y-3750D01*
X9824Y-3812D01*
X9762Y-3750D01*
X9650Y-3749D01*
X9558Y-3787D01*
X9499Y-3846D01*
X9441Y-3788D01*
X9349Y-3750D01*
X9250Y-3749D01*
X8900Y-3749D01*
X8808Y-3787D01*
X8738Y-3858D01*
X8700Y-3950D01*
X8699Y-4049D01*
X8699Y-4599D01*
X8737Y-4691D01*
X8808Y-4761D01*
X8900Y-4799D01*
X8999Y-4800D01*
X9146Y-4800D01*
X9346Y-4999D01*
X9345Y-4999D01*
X9185Y-4999D01*
X9157Y-5011D01*
X9129Y-5000D01*
X9030Y-4999D01*
X8870Y-4999D01*
X8778Y-5037D01*
X8708Y-5108D01*
X8670Y-5200D01*
X8670Y-5211D01*
X8365Y-5211D01*
X7803Y-4649D01*
X8003Y-4650D01*
X8197Y-4570D01*
X8344Y-4422D01*
X8424Y-4229D01*
X8425Y-4021D01*
X8345Y-3828D01*
X8197Y-3680D01*
X8004Y-3600D01*
X7796Y-3599D01*
X7603Y-3679D01*
X7455Y-3827D01*
X7399Y-3960D01*
X7345Y-3828D01*
X7197Y-3680D01*
X7004Y-3600D01*
X6796Y-3599D01*
X6603Y-3679D01*
X6455Y-3827D01*
X6399Y-3960D01*
X6345Y-3828D01*
X6197Y-3680D01*
X6004Y-3600D01*
X5796Y-3599D01*
X5603Y-3679D01*
X5455Y-3827D01*
X5425Y-3899D01*
X5425Y-3899D01*
X5424Y-3800D01*
X5386Y-3708D01*
X5316Y-3637D01*
X5224Y-3599D01*
X5012Y-3600D01*
X4950Y-3662D01*
X4950Y-4075D01*
X4957Y-4075D01*
X4957Y-4175D01*
X4950Y-4175D01*
X4950Y-4587D01*
X5012Y-4650D01*
X5224Y-4650D01*
X5316Y-4612D01*
X5386Y-4541D01*
X5424Y-4449D01*
X5425Y-4350D01*
X5425Y-4350D01*
X5454Y-4422D01*
X5602Y-4569D01*
X5795Y-4649D01*
X6003Y-4650D01*
X6033Y-4637D01*
X6832Y-5436D01*
X4850Y-5436D01*
X4850Y-4587D01*
X4850Y-4175D01*
X4850Y-4075D01*
X4850Y-3662D01*
X4787Y-3600D01*
X4575Y-3599D01*
X4483Y-3637D01*
X4413Y-3708D01*
X4375Y-3800D01*
X4374Y-3899D01*
X4375Y-4012D01*
X4437Y-4075D01*
X4850Y-4075D01*
X4850Y-4175D01*
X4437Y-4175D01*
X4375Y-4237D01*
X4374Y-4350D01*
X4375Y-4449D01*
X4413Y-4541D01*
X4483Y-4612D01*
X4575Y-4650D01*
X4787Y-4650D01*
X4850Y-4587D01*
X4850Y-5436D01*
X4165Y-5436D01*
X3139Y-4410D01*
X3029Y-4337D01*
X3000Y-4331D01*
X3000Y-4331D01*
X3000Y-4325D01*
X2962Y-4233D01*
X2891Y-4163D01*
X2860Y-4150D01*
X2891Y-4137D01*
X2961Y-4066D01*
X2999Y-3974D01*
X2999Y-3968D01*
X3029Y-3962D01*
X3029Y-3962D01*
X3139Y-3889D01*
X3565Y-3463D01*
X4625Y-3463D01*
X9584Y-3463D01*
X9871Y-3750D01*
X9871Y-3750D01*
G37*
G54D26*
X9871Y-3750D02*
X9824Y-3750D01*
X9824Y-3812D01*
X9762Y-3750D01*
X9650Y-3749D01*
X9558Y-3787D01*
X9499Y-3846D01*
X9441Y-3788D01*
X9349Y-3750D01*
X9250Y-3749D01*
X8900Y-3749D01*
X8808Y-3787D01*
X8738Y-3858D01*
X8700Y-3950D01*
X8699Y-4049D01*
X8699Y-4599D01*
X8737Y-4691D01*
X8808Y-4761D01*
X8900Y-4799D01*
X8999Y-4800D01*
X9146Y-4800D01*
X9346Y-4999D01*
X9345Y-4999D01*
X9185Y-4999D01*
X9157Y-5011D01*
X9129Y-5000D01*
X9030Y-4999D01*
X8870Y-4999D01*
X8778Y-5037D01*
X8708Y-5108D01*
X8670Y-5200D01*
X8670Y-5211D01*
X8365Y-5211D01*
X7803Y-4649D01*
X8003Y-4650D01*
X8197Y-4570D01*
X8344Y-4422D01*
X8424Y-4229D01*
X8425Y-4021D01*
X8345Y-3828D01*
X8197Y-3680D01*
X8004Y-3600D01*
X7796Y-3599D01*
X7603Y-3679D01*
X7455Y-3827D01*
X7399Y-3960D01*
X7345Y-3828D01*
X7197Y-3680D01*
X7004Y-3600D01*
X6796Y-3599D01*
X6603Y-3679D01*
X6455Y-3827D01*
X6399Y-3960D01*
X6345Y-3828D01*
X6197Y-3680D01*
X6004Y-3600D01*
X5796Y-3599D01*
X5603Y-3679D01*
X5455Y-3827D01*
X5425Y-3899D01*
X5425Y-3899D01*
X5424Y-3800D01*
X5386Y-3708D01*
X5316Y-3637D01*
X5224Y-3599D01*
X5012Y-3600D01*
X4950Y-3662D01*
X4950Y-4075D01*
X4957Y-4075D01*
X4957Y-4175D01*
X4950Y-4175D01*
X4950Y-4587D01*
X5012Y-4650D01*
X5224Y-4650D01*
X5316Y-4612D01*
X5386Y-4541D01*
X5424Y-4449D01*
X5425Y-4350D01*
X5425Y-4350D01*
X5454Y-4422D01*
X5602Y-4569D01*
X5795Y-4649D01*
X6003Y-4650D01*
X6033Y-4637D01*
X6832Y-5436D01*
X4850Y-5436D01*
X4850Y-4587D01*
X4850Y-4175D01*
X4850Y-4075D01*
X4850Y-3662D01*
X4787Y-3600D01*
X4575Y-3599D01*
X4483Y-3637D01*
X4413Y-3708D01*
X4375Y-3800D01*
X4374Y-3899D01*
X4375Y-4012D01*
X4437Y-4075D01*
X4850Y-4075D01*
X4850Y-4175D01*
X4437Y-4175D01*
X4375Y-4237D01*
X4374Y-4350D01*
X4375Y-4449D01*
X4413Y-4541D01*
X4483Y-4612D01*
X4575Y-4650D01*
X4787Y-4650D01*
X4850Y-4587D01*
X4850Y-5436D01*
X4165Y-5436D01*
X3139Y-4410D01*
X3029Y-4337D01*
X3000Y-4331D01*
X3000Y-4331D01*
X3000Y-4325D01*
X2962Y-4233D01*
X2891Y-4163D01*
X2860Y-4150D01*
X2891Y-4137D01*
X2961Y-4066D01*
X2999Y-3974D01*
X2999Y-3968D01*
X3029Y-3962D01*
X3029Y-3962D01*
X3139Y-3889D01*
X3565Y-3463D01*
X4625Y-3463D01*
X9584Y-3463D01*
X9871Y-3750D01*
G54D10*
G36*
X9932Y-4325D02*
X9925Y-4325D01*
X9925Y-4332D01*
X9825Y-4332D01*
X9825Y-4325D01*
X9817Y-4325D01*
X9817Y-4225D01*
X9825Y-4225D01*
X9825Y-4217D01*
X9925Y-4217D01*
X9925Y-4225D01*
X9932Y-4225D01*
X9932Y-4325D01*
X9932Y-4325D01*
G37*
G54D26*
X9932Y-4325D02*
X9925Y-4325D01*
X9925Y-4332D01*
X9825Y-4332D01*
X9825Y-4325D01*
X9817Y-4325D01*
X9817Y-4225D01*
X9825Y-4225D01*
X9825Y-4217D01*
X9925Y-4217D01*
X9925Y-4225D01*
X9932Y-4225D01*
X9932Y-4325D01*
G54D10*
G36*
X11186Y-12280D02*
X11108Y-12312D01*
X11075Y-12346D01*
X11041Y-12313D01*
X10949Y-12275D01*
X10850Y-12274D01*
X10737Y-12275D01*
X10675Y-12337D01*
X10675Y-12650D01*
X10682Y-12650D01*
X10682Y-12750D01*
X10675Y-12750D01*
X10675Y-12757D01*
X10575Y-12757D01*
X10575Y-12750D01*
X10575Y-12650D01*
X10575Y-12337D01*
X10512Y-12275D01*
X10399Y-12274D01*
X10300Y-12275D01*
X10208Y-12313D01*
X10137Y-12383D01*
X10099Y-12475D01*
X10100Y-12587D01*
X10162Y-12650D01*
X10575Y-12650D01*
X10575Y-12750D01*
X10162Y-12750D01*
X10100Y-12812D01*
X10099Y-12924D01*
X10137Y-13016D01*
X10183Y-13062D01*
X9810Y-13062D01*
X9725Y-12976D01*
X9725Y-12896D01*
X9645Y-12703D01*
X9497Y-12555D01*
X9304Y-12475D01*
X9096Y-12474D01*
X8903Y-12554D01*
X8755Y-12702D01*
X8699Y-12835D01*
X8645Y-12703D01*
X8538Y-12596D01*
X8538Y-11740D01*
X8669Y-11608D01*
X8669Y-11679D01*
X8750Y-11874D01*
X8899Y-12024D01*
X9094Y-12104D01*
X9304Y-12105D01*
X9499Y-12024D01*
X9600Y-11924D01*
X9699Y-12024D01*
X9894Y-12104D01*
X10104Y-12105D01*
X10299Y-12024D01*
X10449Y-11875D01*
X10529Y-11680D01*
X10530Y-11470D01*
X10449Y-11275D01*
X10300Y-11125D01*
X10283Y-11118D01*
X10283Y-10986D01*
X10335Y-11064D01*
X10735Y-11464D01*
X10735Y-11464D01*
X11186Y-11915D01*
X11186Y-12280D01*
X11186Y-12280D01*
G37*
G54D26*
X11186Y-12280D02*
X11108Y-12312D01*
X11075Y-12346D01*
X11041Y-12313D01*
X10949Y-12275D01*
X10850Y-12274D01*
X10737Y-12275D01*
X10675Y-12337D01*
X10675Y-12650D01*
X10682Y-12650D01*
X10682Y-12750D01*
X10675Y-12750D01*
X10675Y-12757D01*
X10575Y-12757D01*
X10575Y-12750D01*
X10575Y-12650D01*
X10575Y-12337D01*
X10512Y-12275D01*
X10399Y-12274D01*
X10300Y-12275D01*
X10208Y-12313D01*
X10137Y-12383D01*
X10099Y-12475D01*
X10100Y-12587D01*
X10162Y-12650D01*
X10575Y-12650D01*
X10575Y-12750D01*
X10162Y-12750D01*
X10100Y-12812D01*
X10099Y-12924D01*
X10137Y-13016D01*
X10183Y-13062D01*
X9810Y-13062D01*
X9725Y-12976D01*
X9725Y-12896D01*
X9645Y-12703D01*
X9497Y-12555D01*
X9304Y-12475D01*
X9096Y-12474D01*
X8903Y-12554D01*
X8755Y-12702D01*
X8699Y-12835D01*
X8645Y-12703D01*
X8538Y-12596D01*
X8538Y-11740D01*
X8669Y-11608D01*
X8669Y-11679D01*
X8750Y-11874D01*
X8899Y-12024D01*
X9094Y-12104D01*
X9304Y-12105D01*
X9499Y-12024D01*
X9600Y-11924D01*
X9699Y-12024D01*
X9894Y-12104D01*
X10104Y-12105D01*
X10299Y-12024D01*
X10449Y-11875D01*
X10529Y-11680D01*
X10530Y-11470D01*
X10449Y-11275D01*
X10300Y-11125D01*
X10283Y-11118D01*
X10283Y-10986D01*
X10335Y-11064D01*
X10735Y-11464D01*
X10735Y-11464D01*
X11186Y-11915D01*
X11186Y-12280D01*
G54D10*
G36*
X12439Y-7170D02*
X12383Y-7192D01*
X12366Y-7210D01*
X12337Y-7210D01*
X12275Y-7272D01*
X12275Y-7299D01*
X12286Y-7327D01*
X12275Y-7355D01*
X12274Y-7454D01*
X12274Y-7461D01*
X12137Y-7461D01*
X12116Y-7439D01*
X11959Y-7375D01*
X11790Y-7374D01*
X11634Y-7439D01*
X11514Y-7558D01*
X11450Y-7715D01*
X11449Y-7884D01*
X11514Y-8040D01*
X11633Y-8160D01*
X11790Y-8224D01*
X11959Y-8225D01*
X12115Y-8160D01*
X12137Y-8138D01*
X12274Y-8138D01*
X12274Y-8244D01*
X12286Y-8272D01*
X12275Y-8300D01*
X12274Y-8399D01*
X12274Y-8559D01*
X12286Y-8587D01*
X12275Y-8615D01*
X12274Y-8714D01*
X12274Y-8874D01*
X12286Y-8902D01*
X12275Y-8930D01*
X12274Y-9029D01*
X12274Y-9189D01*
X12286Y-9217D01*
X12275Y-9245D01*
X12274Y-9344D01*
X12274Y-9500D01*
X12180Y-9499D01*
X12020Y-9499D01*
X11992Y-9511D01*
X11964Y-9500D01*
X11865Y-9499D01*
X11705Y-9499D01*
X11677Y-9511D01*
X11649Y-9500D01*
X11550Y-9499D01*
X11390Y-9499D01*
X11362Y-9511D01*
X11334Y-9500D01*
X11235Y-9499D01*
X11075Y-9499D01*
X11047Y-9511D01*
X11019Y-9500D01*
X10920Y-9499D01*
X10760Y-9499D01*
X10732Y-9511D01*
X10704Y-9500D01*
X10605Y-9499D01*
X10445Y-9499D01*
X10417Y-9511D01*
X10389Y-9499D01*
X10362Y-9500D01*
X10300Y-9562D01*
X10300Y-9591D01*
X10283Y-9608D01*
X10259Y-9664D01*
X10237Y-9608D01*
X10220Y-9591D01*
X10220Y-9562D01*
X10157Y-9500D01*
X10130Y-9499D01*
X10102Y-9511D01*
X10074Y-9500D01*
X9975Y-9499D01*
X9815Y-9499D01*
X9787Y-9511D01*
X9759Y-9500D01*
X9660Y-9499D01*
X9500Y-9499D01*
X9472Y-9511D01*
X9444Y-9500D01*
X9345Y-9499D01*
X9185Y-9499D01*
X9157Y-9511D01*
X9129Y-9500D01*
X9030Y-9499D01*
X8874Y-9499D01*
X8875Y-9405D01*
X8875Y-9245D01*
X8863Y-9217D01*
X8874Y-9189D01*
X8875Y-9090D01*
X8875Y-9083D01*
X8999Y-9083D01*
X8999Y-9109D01*
X9064Y-9265D01*
X9183Y-9385D01*
X9340Y-9449D01*
X9509Y-9450D01*
X9665Y-9385D01*
X9785Y-9266D01*
X9849Y-9109D01*
X9850Y-8940D01*
X9785Y-8784D01*
X9666Y-8664D01*
X9509Y-8600D01*
X9478Y-8600D01*
X9384Y-8505D01*
X9274Y-8432D01*
X9145Y-8406D01*
X8875Y-8406D01*
X8875Y-8379D01*
X8822Y-8379D01*
X8874Y-8327D01*
X8874Y-8300D01*
X8863Y-8272D01*
X8874Y-8244D01*
X8875Y-8145D01*
X8875Y-7985D01*
X8863Y-7957D01*
X8874Y-7929D01*
X8875Y-7830D01*
X8875Y-7670D01*
X8863Y-7642D01*
X8874Y-7614D01*
X8875Y-7515D01*
X8875Y-7355D01*
X8863Y-7327D01*
X8874Y-7299D01*
X8875Y-7200D01*
X8875Y-7040D01*
X8863Y-7012D01*
X8874Y-6984D01*
X8875Y-6885D01*
X8875Y-6725D01*
X8863Y-6697D01*
X8874Y-6669D01*
X8875Y-6570D01*
X8875Y-6410D01*
X8863Y-6382D01*
X8874Y-6354D01*
X8875Y-6255D01*
X8875Y-6099D01*
X8969Y-6100D01*
X9129Y-6100D01*
X9157Y-6088D01*
X9185Y-6099D01*
X9284Y-6100D01*
X9444Y-6100D01*
X9472Y-6088D01*
X9500Y-6099D01*
X9549Y-6099D01*
X9439Y-6208D01*
X9375Y-6365D01*
X9374Y-6534D01*
X9439Y-6690D01*
X9558Y-6810D01*
X9715Y-6874D01*
X9884Y-6875D01*
X10040Y-6810D01*
X10160Y-6691D01*
X10224Y-6534D01*
X10224Y-6483D01*
X10257Y-6434D01*
X10283Y-6305D01*
X10283Y-6305D01*
X10283Y-6305D01*
X10283Y-6100D01*
X10310Y-6100D01*
X10310Y-6047D01*
X10362Y-6100D01*
X10389Y-6100D01*
X10417Y-6088D01*
X10445Y-6099D01*
X10544Y-6100D01*
X10704Y-6100D01*
X10732Y-6088D01*
X10760Y-6099D01*
X10859Y-6100D01*
X11019Y-6100D01*
X11047Y-6088D01*
X11075Y-6099D01*
X11174Y-6100D01*
X11334Y-6100D01*
X11362Y-6088D01*
X11390Y-6099D01*
X11489Y-6100D01*
X11649Y-6100D01*
X11677Y-6088D01*
X11705Y-6099D01*
X11804Y-6100D01*
X11964Y-6100D01*
X11992Y-6088D01*
X12020Y-6099D01*
X12119Y-6100D01*
X12275Y-6100D01*
X12274Y-6194D01*
X12274Y-6354D01*
X12286Y-6382D01*
X12275Y-6410D01*
X12274Y-6509D01*
X12274Y-6669D01*
X12286Y-6697D01*
X12275Y-6725D01*
X12274Y-6824D01*
X12274Y-6984D01*
X12286Y-7012D01*
X12275Y-7040D01*
X12275Y-7067D01*
X12337Y-7130D01*
X12366Y-7130D01*
X12383Y-7146D01*
X12439Y-7170D01*
X12439Y-7170D01*
G37*
G54D26*
X12439Y-7170D02*
X12383Y-7192D01*
X12366Y-7210D01*
X12337Y-7210D01*
X12275Y-7272D01*
X12275Y-7299D01*
X12286Y-7327D01*
X12275Y-7355D01*
X12274Y-7454D01*
X12274Y-7461D01*
X12137Y-7461D01*
X12116Y-7439D01*
X11959Y-7375D01*
X11790Y-7374D01*
X11634Y-7439D01*
X11514Y-7558D01*
X11450Y-7715D01*
X11449Y-7884D01*
X11514Y-8040D01*
X11633Y-8160D01*
X11790Y-8224D01*
X11959Y-8225D01*
X12115Y-8160D01*
X12137Y-8138D01*
X12274Y-8138D01*
X12274Y-8244D01*
X12286Y-8272D01*
X12275Y-8300D01*
X12274Y-8399D01*
X12274Y-8559D01*
X12286Y-8587D01*
X12275Y-8615D01*
X12274Y-8714D01*
X12274Y-8874D01*
X12286Y-8902D01*
X12275Y-8930D01*
X12274Y-9029D01*
X12274Y-9189D01*
X12286Y-9217D01*
X12275Y-9245D01*
X12274Y-9344D01*
X12274Y-9500D01*
X12180Y-9499D01*
X12020Y-9499D01*
X11992Y-9511D01*
X11964Y-9500D01*
X11865Y-9499D01*
X11705Y-9499D01*
X11677Y-9511D01*
X11649Y-9500D01*
X11550Y-9499D01*
X11390Y-9499D01*
X11362Y-9511D01*
X11334Y-9500D01*
X11235Y-9499D01*
X11075Y-9499D01*
X11047Y-9511D01*
X11019Y-9500D01*
X10920Y-9499D01*
X10760Y-9499D01*
X10732Y-9511D01*
X10704Y-9500D01*
X10605Y-9499D01*
X10445Y-9499D01*
X10417Y-9511D01*
X10389Y-9499D01*
X10362Y-9500D01*
X10300Y-9562D01*
X10300Y-9591D01*
X10283Y-9608D01*
X10259Y-9664D01*
X10237Y-9608D01*
X10220Y-9591D01*
X10220Y-9562D01*
X10157Y-9500D01*
X10130Y-9499D01*
X10102Y-9511D01*
X10074Y-9500D01*
X9975Y-9499D01*
X9815Y-9499D01*
X9787Y-9511D01*
X9759Y-9500D01*
X9660Y-9499D01*
X9500Y-9499D01*
X9472Y-9511D01*
X9444Y-9500D01*
X9345Y-9499D01*
X9185Y-9499D01*
X9157Y-9511D01*
X9129Y-9500D01*
X9030Y-9499D01*
X8874Y-9499D01*
X8875Y-9405D01*
X8875Y-9245D01*
X8863Y-9217D01*
X8874Y-9189D01*
X8875Y-9090D01*
X8875Y-9083D01*
X8999Y-9083D01*
X8999Y-9109D01*
X9064Y-9265D01*
X9183Y-9385D01*
X9340Y-9449D01*
X9509Y-9450D01*
X9665Y-9385D01*
X9785Y-9266D01*
X9849Y-9109D01*
X9850Y-8940D01*
X9785Y-8784D01*
X9666Y-8664D01*
X9509Y-8600D01*
X9478Y-8600D01*
X9384Y-8505D01*
X9274Y-8432D01*
X9145Y-8406D01*
X8875Y-8406D01*
X8875Y-8379D01*
X8822Y-8379D01*
X8874Y-8327D01*
X8874Y-8300D01*
X8863Y-8272D01*
X8874Y-8244D01*
X8875Y-8145D01*
X8875Y-7985D01*
X8863Y-7957D01*
X8874Y-7929D01*
X8875Y-7830D01*
X8875Y-7670D01*
X8863Y-7642D01*
X8874Y-7614D01*
X8875Y-7515D01*
X8875Y-7355D01*
X8863Y-7327D01*
X8874Y-7299D01*
X8875Y-7200D01*
X8875Y-7040D01*
X8863Y-7012D01*
X8874Y-6984D01*
X8875Y-6885D01*
X8875Y-6725D01*
X8863Y-6697D01*
X8874Y-6669D01*
X8875Y-6570D01*
X8875Y-6410D01*
X8863Y-6382D01*
X8874Y-6354D01*
X8875Y-6255D01*
X8875Y-6099D01*
X8969Y-6100D01*
X9129Y-6100D01*
X9157Y-6088D01*
X9185Y-6099D01*
X9284Y-6100D01*
X9444Y-6100D01*
X9472Y-6088D01*
X9500Y-6099D01*
X9549Y-6099D01*
X9439Y-6208D01*
X9375Y-6365D01*
X9374Y-6534D01*
X9439Y-6690D01*
X9558Y-6810D01*
X9715Y-6874D01*
X9884Y-6875D01*
X10040Y-6810D01*
X10160Y-6691D01*
X10224Y-6534D01*
X10224Y-6483D01*
X10257Y-6434D01*
X10283Y-6305D01*
X10283Y-6305D01*
X10283Y-6305D01*
X10283Y-6100D01*
X10310Y-6100D01*
X10310Y-6047D01*
X10362Y-6100D01*
X10389Y-6100D01*
X10417Y-6088D01*
X10445Y-6099D01*
X10544Y-6100D01*
X10704Y-6100D01*
X10732Y-6088D01*
X10760Y-6099D01*
X10859Y-6100D01*
X11019Y-6100D01*
X11047Y-6088D01*
X11075Y-6099D01*
X11174Y-6100D01*
X11334Y-6100D01*
X11362Y-6088D01*
X11390Y-6099D01*
X11489Y-6100D01*
X11649Y-6100D01*
X11677Y-6088D01*
X11705Y-6099D01*
X11804Y-6100D01*
X11964Y-6100D01*
X11992Y-6088D01*
X12020Y-6099D01*
X12119Y-6100D01*
X12275Y-6100D01*
X12274Y-6194D01*
X12274Y-6354D01*
X12286Y-6382D01*
X12275Y-6410D01*
X12274Y-6509D01*
X12274Y-6669D01*
X12286Y-6697D01*
X12275Y-6725D01*
X12274Y-6824D01*
X12274Y-6984D01*
X12286Y-7012D01*
X12275Y-7040D01*
X12275Y-7067D01*
X12337Y-7130D01*
X12366Y-7130D01*
X12383Y-7146D01*
X12439Y-7170D01*
G54D10*
G36*
X13026Y-14694D02*
X11229Y-16491D01*
X11229Y-15960D01*
X11229Y-14601D01*
X11191Y-14509D01*
X11121Y-14439D01*
X11029Y-14401D01*
X10930Y-14400D01*
X10462Y-14400D01*
X10400Y-14463D01*
X10400Y-15230D01*
X11167Y-15230D01*
X11229Y-15168D01*
X11229Y-14601D01*
X11229Y-15960D01*
X11229Y-15393D01*
X11167Y-15330D01*
X10400Y-15330D01*
X10400Y-16098D01*
X10462Y-16160D01*
X10930Y-16160D01*
X11029Y-16160D01*
X11121Y-16122D01*
X11191Y-16052D01*
X11229Y-15960D01*
X11229Y-16491D01*
X10934Y-16786D01*
X10300Y-16786D01*
X10300Y-16098D01*
X10300Y-15330D01*
X10300Y-15230D01*
X10300Y-14463D01*
X10237Y-14400D01*
X9769Y-14400D01*
X9670Y-14401D01*
X9578Y-14439D01*
X9508Y-14509D01*
X9470Y-14601D01*
X9470Y-15168D01*
X9532Y-15230D01*
X10300Y-15230D01*
X10300Y-15330D01*
X9532Y-15330D01*
X9470Y-15393D01*
X9470Y-15960D01*
X9508Y-16052D01*
X9578Y-16122D01*
X9670Y-16160D01*
X9769Y-16160D01*
X10237Y-16160D01*
X10300Y-16098D01*
X10300Y-16786D01*
X9014Y-16786D01*
X8978Y-16749D01*
X9036Y-16691D01*
X9074Y-16599D01*
X9075Y-16500D01*
X9075Y-16150D01*
X9037Y-16058D01*
X8966Y-15988D01*
X8874Y-15950D01*
X8775Y-15949D01*
X8225Y-15949D01*
X8135Y-15987D01*
X7759Y-15987D01*
X7716Y-15995D01*
X7703Y-15990D01*
X7485Y-15990D01*
X7282Y-16074D01*
X7128Y-16228D01*
X7044Y-16430D01*
X7043Y-16649D01*
X7127Y-16851D01*
X7282Y-17006D01*
X7484Y-17090D01*
X7703Y-17090D01*
X7905Y-17007D01*
X8033Y-16878D01*
X8025Y-16900D01*
X8024Y-16999D01*
X8024Y-17349D01*
X8062Y-17441D01*
X8071Y-17449D01*
X8063Y-17458D01*
X8025Y-17550D01*
X8024Y-17649D01*
X8024Y-17999D01*
X8062Y-18091D01*
X8121Y-18150D01*
X8062Y-18208D01*
X8059Y-18216D01*
X7980Y-18194D01*
X7909Y-18264D01*
X7909Y-18123D01*
X7881Y-18027D01*
X7675Y-17954D01*
X7457Y-17965D01*
X7306Y-18027D01*
X7278Y-18123D01*
X7594Y-18438D01*
X7909Y-18123D01*
X7909Y-18264D01*
X7664Y-18509D01*
X7670Y-18514D01*
X7599Y-18585D01*
X7594Y-18579D01*
X7588Y-18585D01*
X7523Y-18520D01*
X7517Y-18514D01*
X7523Y-18509D01*
X7208Y-18194D01*
X7112Y-18221D01*
X7039Y-18427D01*
X7050Y-18646D01*
X7112Y-18797D01*
X7208Y-18824D01*
X7162Y-18869D01*
X7173Y-18880D01*
X7004Y-18880D01*
X7004Y-18550D01*
X7000Y-18462D01*
X7000Y-16371D01*
X6920Y-16178D01*
X6772Y-16030D01*
X6579Y-15950D01*
X6371Y-15949D01*
X6178Y-16029D01*
X6030Y-16177D01*
X5950Y-16370D01*
X5949Y-16578D01*
X6029Y-16772D01*
X6177Y-16919D01*
X6370Y-16999D01*
X6578Y-17000D01*
X6772Y-16920D01*
X6919Y-16772D01*
X6999Y-16579D01*
X7000Y-16371D01*
X7000Y-18462D01*
X6993Y-18342D01*
X6935Y-18202D01*
X6842Y-18177D01*
X6772Y-18248D01*
X6772Y-18107D01*
X6747Y-18014D01*
X6550Y-17945D01*
X6342Y-17956D01*
X6202Y-18014D01*
X6177Y-18107D01*
X6475Y-18404D01*
X6772Y-18107D01*
X6772Y-18248D01*
X6545Y-18475D01*
X6842Y-18772D01*
X6935Y-18747D01*
X7004Y-18550D01*
X7004Y-18880D01*
X6762Y-18880D01*
X6772Y-18842D01*
X6475Y-18545D01*
X6404Y-18616D01*
X6404Y-18475D01*
X6107Y-18177D01*
X6014Y-18202D01*
X5945Y-18399D01*
X5956Y-18607D01*
X6014Y-18747D01*
X6107Y-18772D01*
X6404Y-18475D01*
X6404Y-18616D01*
X6177Y-18842D01*
X6187Y-18880D01*
X5672Y-18880D01*
X5716Y-18861D01*
X5787Y-18791D01*
X5825Y-18699D01*
X5825Y-18587D01*
X5762Y-18525D01*
X5350Y-18525D01*
X5350Y-18532D01*
X5250Y-18532D01*
X5250Y-18525D01*
X4837Y-18525D01*
X4775Y-18587D01*
X4774Y-18699D01*
X4812Y-18791D01*
X4883Y-18861D01*
X4927Y-18880D01*
X4004Y-18880D01*
X4004Y-18550D01*
X3993Y-18342D01*
X3935Y-18202D01*
X3842Y-18177D01*
X3772Y-18248D01*
X3772Y-18107D01*
X3747Y-18014D01*
X3550Y-17945D01*
X3342Y-17956D01*
X3202Y-18014D01*
X3177Y-18107D01*
X3475Y-18404D01*
X3772Y-18107D01*
X3772Y-18248D01*
X3545Y-18475D01*
X3842Y-18772D01*
X3935Y-18747D01*
X4004Y-18550D01*
X4004Y-18880D01*
X3762Y-18880D01*
X3772Y-18842D01*
X3475Y-18545D01*
X3404Y-18616D01*
X3404Y-18475D01*
X3107Y-18177D01*
X3014Y-18202D01*
X2945Y-18399D01*
X2956Y-18607D01*
X3014Y-18747D01*
X3107Y-18772D01*
X3404Y-18475D01*
X3404Y-18616D01*
X3177Y-18842D01*
X3187Y-18880D01*
X2079Y-18880D01*
X2079Y-18400D01*
X2068Y-18192D01*
X2010Y-18052D01*
X1917Y-18027D01*
X1620Y-18325D01*
X1917Y-18622D01*
X2010Y-18597D01*
X2079Y-18400D01*
X2079Y-18880D01*
X1847Y-18880D01*
X1847Y-18692D01*
X1550Y-18395D01*
X1479Y-18466D01*
X1479Y-18325D01*
X1182Y-18027D01*
X1089Y-18052D01*
X1020Y-18249D01*
X1031Y-18457D01*
X1089Y-18597D01*
X1182Y-18622D01*
X1479Y-18325D01*
X1479Y-18466D01*
X1252Y-18692D01*
X1277Y-18785D01*
X1474Y-18854D01*
X1682Y-18843D01*
X1822Y-18785D01*
X1847Y-18692D01*
X1847Y-18880D01*
X294Y-18880D01*
X294Y-14144D01*
X337Y-14162D01*
X437Y-14162D01*
X550Y-14162D01*
X612Y-14100D01*
X612Y-13687D01*
X604Y-13687D01*
X604Y-13587D01*
X612Y-13587D01*
X612Y-13579D01*
X712Y-13579D01*
X712Y-13587D01*
X1125Y-13587D01*
X1187Y-13525D01*
X1187Y-13312D01*
X1149Y-13221D01*
X1079Y-13150D01*
X987Y-13112D01*
X887Y-13112D01*
X887Y-13112D01*
X959Y-13082D01*
X1107Y-12935D01*
X1187Y-12742D01*
X1187Y-12533D01*
X1107Y-12340D01*
X960Y-12192D01*
X827Y-12137D01*
X959Y-12082D01*
X1107Y-11935D01*
X1187Y-11742D01*
X1187Y-11533D01*
X1107Y-11340D01*
X960Y-11192D01*
X827Y-11137D01*
X959Y-11082D01*
X1017Y-11025D01*
X1431Y-11025D01*
X1437Y-11041D01*
X1508Y-11111D01*
X1600Y-11149D01*
X1699Y-11150D01*
X2049Y-11150D01*
X2141Y-11112D01*
X2200Y-11053D01*
X2258Y-11111D01*
X2350Y-11149D01*
X2449Y-11150D01*
X2799Y-11150D01*
X2891Y-11112D01*
X2961Y-11041D01*
X2994Y-10963D01*
X6082Y-10963D01*
X5185Y-11860D01*
X5112Y-11970D01*
X5086Y-12100D01*
X5086Y-12735D01*
X4991Y-12639D01*
X4834Y-12575D01*
X4665Y-12574D01*
X4509Y-12639D01*
X4389Y-12758D01*
X4325Y-12915D01*
X4324Y-13084D01*
X4337Y-13113D01*
X4337Y-13150D01*
X4337Y-13876D01*
X4310Y-13887D01*
X4214Y-13887D01*
X4124Y-13850D01*
X4025Y-13849D01*
X3475Y-13849D01*
X3425Y-13870D01*
X3425Y-13550D01*
X3533Y-13660D01*
X3690Y-13724D01*
X3859Y-13725D01*
X4015Y-13660D01*
X4135Y-13541D01*
X4199Y-13384D01*
X4200Y-13215D01*
X4135Y-13059D01*
X4016Y-12939D01*
X3925Y-12902D01*
X3749Y-12725D01*
X3623Y-12641D01*
X3475Y-12612D01*
X3314Y-12612D01*
X3224Y-12575D01*
X3125Y-12574D01*
X2575Y-12574D01*
X2485Y-12612D01*
X2364Y-12612D01*
X2274Y-12575D01*
X2175Y-12574D01*
X1625Y-12574D01*
X1533Y-12612D01*
X1463Y-12683D01*
X1425Y-12775D01*
X1424Y-12874D01*
X1424Y-13224D01*
X1462Y-13316D01*
X1521Y-13375D01*
X1462Y-13433D01*
X1424Y-13525D01*
X1425Y-13637D01*
X1487Y-13700D01*
X1900Y-13700D01*
X1900Y-13692D01*
X2000Y-13692D01*
X2000Y-13700D01*
X2007Y-13700D01*
X2007Y-13800D01*
X2000Y-13800D01*
X2000Y-14112D01*
X2062Y-14175D01*
X2126Y-14175D01*
X1900Y-14401D01*
X1900Y-14112D01*
X1900Y-13800D01*
X1487Y-13800D01*
X1425Y-13862D01*
X1424Y-13974D01*
X1462Y-14066D01*
X1533Y-14136D01*
X1625Y-14174D01*
X1724Y-14175D01*
X1837Y-14175D01*
X1900Y-14112D01*
X1900Y-14401D01*
X1701Y-14599D01*
X1225Y-14599D01*
X1187Y-14615D01*
X1187Y-13962D01*
X1187Y-13750D01*
X1125Y-13687D01*
X712Y-13687D01*
X712Y-14100D01*
X775Y-14162D01*
X887Y-14162D01*
X987Y-14162D01*
X1079Y-14124D01*
X1149Y-14053D01*
X1187Y-13962D01*
X1187Y-14615D01*
X1133Y-14637D01*
X1063Y-14708D01*
X1025Y-14800D01*
X1024Y-14899D01*
X1024Y-15449D01*
X1062Y-15541D01*
X1133Y-15611D01*
X1225Y-15649D01*
X1312Y-15650D01*
X1277Y-15664D01*
X1252Y-15757D01*
X1550Y-16054D01*
X1847Y-15757D01*
X1822Y-15664D01*
X1781Y-15650D01*
X1874Y-15650D01*
X1966Y-15612D01*
X2036Y-15541D01*
X2074Y-15449D01*
X2075Y-15350D01*
X2075Y-15323D01*
X3174Y-14224D01*
X3207Y-14175D01*
X3224Y-14175D01*
X3274Y-14154D01*
X3274Y-14499D01*
X3312Y-14591D01*
X3371Y-14650D01*
X3312Y-14708D01*
X3274Y-14800D01*
X3275Y-14912D01*
X3337Y-14975D01*
X3750Y-14975D01*
X3750Y-14967D01*
X3850Y-14967D01*
X3850Y-14975D01*
X3857Y-14975D01*
X3857Y-15075D01*
X3850Y-15075D01*
X3850Y-15082D01*
X3750Y-15082D01*
X3750Y-15075D01*
X3337Y-15075D01*
X3275Y-15137D01*
X3274Y-15249D01*
X3312Y-15341D01*
X3383Y-15411D01*
X3384Y-15412D01*
X3125Y-15412D01*
X2976Y-15441D01*
X2850Y-15525D01*
X2027Y-16348D01*
X2079Y-16200D01*
X2068Y-15992D01*
X2010Y-15852D01*
X1917Y-15827D01*
X1620Y-16125D01*
X1626Y-16130D01*
X1555Y-16201D01*
X1550Y-16195D01*
X1479Y-16266D01*
X1479Y-16125D01*
X1182Y-15827D01*
X1089Y-15852D01*
X1020Y-16049D01*
X1031Y-16257D01*
X1089Y-16397D01*
X1182Y-16422D01*
X1479Y-16125D01*
X1479Y-16266D01*
X1252Y-16492D01*
X1277Y-16585D01*
X1474Y-16654D01*
X1682Y-16643D01*
X1768Y-16608D01*
X1576Y-16799D01*
X1225Y-16799D01*
X1133Y-16837D01*
X1063Y-16908D01*
X1025Y-17000D01*
X1024Y-17099D01*
X1024Y-17649D01*
X1062Y-17741D01*
X1133Y-17811D01*
X1225Y-17849D01*
X1312Y-17850D01*
X1277Y-17864D01*
X1252Y-17957D01*
X1550Y-18254D01*
X1847Y-17957D01*
X1822Y-17864D01*
X1781Y-17850D01*
X1874Y-17850D01*
X1966Y-17812D01*
X2036Y-17741D01*
X2074Y-17649D01*
X2075Y-17550D01*
X2075Y-17398D01*
X2949Y-16523D01*
X2949Y-16578D01*
X3029Y-16772D01*
X3177Y-16919D01*
X3370Y-16999D01*
X3578Y-17000D01*
X3772Y-16920D01*
X3829Y-16862D01*
X4089Y-16862D01*
X4124Y-16898D01*
X4124Y-17099D01*
X4162Y-17191D01*
X4233Y-17261D01*
X4325Y-17299D01*
X4424Y-17300D01*
X4774Y-17300D01*
X4866Y-17262D01*
X4912Y-17216D01*
X4912Y-17326D01*
X4883Y-17337D01*
X4813Y-17408D01*
X4775Y-17500D01*
X4774Y-17599D01*
X4774Y-17949D01*
X4812Y-18041D01*
X4871Y-18100D01*
X4812Y-18158D01*
X4774Y-18250D01*
X4775Y-18362D01*
X4837Y-18425D01*
X5250Y-18425D01*
X5250Y-18417D01*
X5350Y-18417D01*
X5350Y-18425D01*
X5762Y-18425D01*
X5825Y-18362D01*
X5825Y-18250D01*
X5787Y-18158D01*
X5728Y-18099D01*
X5786Y-18041D01*
X5824Y-17949D01*
X5825Y-17850D01*
X5825Y-17500D01*
X5787Y-17408D01*
X5716Y-17338D01*
X5687Y-17326D01*
X5687Y-17189D01*
X5724Y-17099D01*
X5725Y-17000D01*
X5725Y-16798D01*
X5725Y-16798D01*
X5737Y-16779D01*
X5763Y-16650D01*
X5763Y-16650D01*
X5763Y-16650D01*
X5763Y-13467D01*
X5783Y-13487D01*
X5875Y-13525D01*
X6087Y-13525D01*
X6150Y-13462D01*
X6150Y-13050D01*
X6142Y-13050D01*
X6142Y-12950D01*
X6150Y-12950D01*
X6150Y-12537D01*
X6087Y-12475D01*
X5875Y-12474D01*
X5783Y-12512D01*
X5763Y-12532D01*
X5763Y-12240D01*
X8290Y-9713D01*
X8325Y-9713D01*
X8367Y-9705D01*
X8670Y-9705D01*
X8669Y-9799D01*
X8669Y-10007D01*
X8661Y-10050D01*
X8661Y-10059D01*
X6960Y-11760D01*
X6887Y-11870D01*
X6861Y-12000D01*
X6861Y-12596D01*
X6755Y-12702D01*
X6725Y-12774D01*
X6725Y-12774D01*
X6724Y-12675D01*
X6686Y-12583D01*
X6616Y-12512D01*
X6524Y-12474D01*
X6312Y-12475D01*
X6250Y-12537D01*
X6250Y-12950D01*
X6257Y-12950D01*
X6257Y-13050D01*
X6250Y-13050D01*
X6250Y-13462D01*
X6312Y-13525D01*
X6524Y-13525D01*
X6616Y-13487D01*
X6686Y-13416D01*
X6724Y-13324D01*
X6725Y-13225D01*
X6725Y-13225D01*
X6754Y-13297D01*
X6902Y-13444D01*
X7095Y-13524D01*
X7303Y-13525D01*
X7497Y-13445D01*
X7644Y-13297D01*
X7700Y-13164D01*
X7754Y-13297D01*
X7812Y-13354D01*
X7812Y-13925D01*
X7841Y-14073D01*
X7924Y-14197D01*
X7924Y-14399D01*
X7962Y-14491D01*
X8033Y-14561D01*
X8125Y-14599D01*
X8224Y-14600D01*
X8574Y-14600D01*
X8666Y-14562D01*
X8725Y-14503D01*
X8783Y-14561D01*
X8875Y-14599D01*
X8974Y-14600D01*
X9324Y-14600D01*
X9416Y-14562D01*
X9486Y-14491D01*
X9524Y-14399D01*
X9525Y-14300D01*
X9525Y-14173D01*
X9558Y-14123D01*
X9587Y-13975D01*
X9587Y-13825D01*
X9650Y-13837D01*
X10210Y-13837D01*
X10300Y-13874D01*
X10399Y-13875D01*
X10949Y-13875D01*
X11039Y-13837D01*
X11110Y-13837D01*
X11200Y-13874D01*
X11299Y-13875D01*
X11849Y-13875D01*
X11941Y-13837D01*
X12000Y-13778D01*
X12058Y-13836D01*
X12150Y-13874D01*
X12249Y-13875D01*
X12362Y-13875D01*
X12425Y-13812D01*
X12425Y-13500D01*
X12417Y-13500D01*
X12417Y-13400D01*
X12425Y-13400D01*
X12425Y-13392D01*
X12525Y-13392D01*
X12525Y-13400D01*
X12532Y-13400D01*
X12532Y-13500D01*
X12525Y-13500D01*
X12525Y-13812D01*
X12587Y-13875D01*
X12700Y-13875D01*
X12799Y-13874D01*
X12891Y-13836D01*
X12912Y-13816D01*
X12933Y-13836D01*
X12962Y-13848D01*
X12962Y-13882D01*
X12884Y-13914D01*
X12764Y-14033D01*
X12700Y-14190D01*
X12699Y-14359D01*
X12764Y-14515D01*
X12883Y-14635D01*
X13026Y-14694D01*
X13026Y-14694D01*
G37*
G54D26*
X13026Y-14694D02*
X11229Y-16491D01*
X11229Y-15960D01*
X11229Y-14601D01*
X11191Y-14509D01*
X11121Y-14439D01*
X11029Y-14401D01*
X10930Y-14400D01*
X10462Y-14400D01*
X10400Y-14463D01*
X10400Y-15230D01*
X11167Y-15230D01*
X11229Y-15168D01*
X11229Y-14601D01*
X11229Y-15960D01*
X11229Y-15393D01*
X11167Y-15330D01*
X10400Y-15330D01*
X10400Y-16098D01*
X10462Y-16160D01*
X10930Y-16160D01*
X11029Y-16160D01*
X11121Y-16122D01*
X11191Y-16052D01*
X11229Y-15960D01*
X11229Y-16491D01*
X10934Y-16786D01*
X10300Y-16786D01*
X10300Y-16098D01*
X10300Y-15330D01*
X10300Y-15230D01*
X10300Y-14463D01*
X10237Y-14400D01*
X9769Y-14400D01*
X9670Y-14401D01*
X9578Y-14439D01*
X9508Y-14509D01*
X9470Y-14601D01*
X9470Y-15168D01*
X9532Y-15230D01*
X10300Y-15230D01*
X10300Y-15330D01*
X9532Y-15330D01*
X9470Y-15393D01*
X9470Y-15960D01*
X9508Y-16052D01*
X9578Y-16122D01*
X9670Y-16160D01*
X9769Y-16160D01*
X10237Y-16160D01*
X10300Y-16098D01*
X10300Y-16786D01*
X9014Y-16786D01*
X8978Y-16749D01*
X9036Y-16691D01*
X9074Y-16599D01*
X9075Y-16500D01*
X9075Y-16150D01*
X9037Y-16058D01*
X8966Y-15988D01*
X8874Y-15950D01*
X8775Y-15949D01*
X8225Y-15949D01*
X8135Y-15987D01*
X7759Y-15987D01*
X7716Y-15995D01*
X7703Y-15990D01*
X7485Y-15990D01*
X7282Y-16074D01*
X7128Y-16228D01*
X7044Y-16430D01*
X7043Y-16649D01*
X7127Y-16851D01*
X7282Y-17006D01*
X7484Y-17090D01*
X7703Y-17090D01*
X7905Y-17007D01*
X8033Y-16878D01*
X8025Y-16900D01*
X8024Y-16999D01*
X8024Y-17349D01*
X8062Y-17441D01*
X8071Y-17449D01*
X8063Y-17458D01*
X8025Y-17550D01*
X8024Y-17649D01*
X8024Y-17999D01*
X8062Y-18091D01*
X8121Y-18150D01*
X8062Y-18208D01*
X8059Y-18216D01*
X7980Y-18194D01*
X7909Y-18264D01*
X7909Y-18123D01*
X7881Y-18027D01*
X7675Y-17954D01*
X7457Y-17965D01*
X7306Y-18027D01*
X7278Y-18123D01*
X7594Y-18438D01*
X7909Y-18123D01*
X7909Y-18264D01*
X7664Y-18509D01*
X7670Y-18514D01*
X7599Y-18585D01*
X7594Y-18579D01*
X7588Y-18585D01*
X7523Y-18520D01*
X7517Y-18514D01*
X7523Y-18509D01*
X7208Y-18194D01*
X7112Y-18221D01*
X7039Y-18427D01*
X7050Y-18646D01*
X7112Y-18797D01*
X7208Y-18824D01*
X7162Y-18869D01*
X7173Y-18880D01*
X7004Y-18880D01*
X7004Y-18550D01*
X7000Y-18462D01*
X7000Y-16371D01*
X6920Y-16178D01*
X6772Y-16030D01*
X6579Y-15950D01*
X6371Y-15949D01*
X6178Y-16029D01*
X6030Y-16177D01*
X5950Y-16370D01*
X5949Y-16578D01*
X6029Y-16772D01*
X6177Y-16919D01*
X6370Y-16999D01*
X6578Y-17000D01*
X6772Y-16920D01*
X6919Y-16772D01*
X6999Y-16579D01*
X7000Y-16371D01*
X7000Y-18462D01*
X6993Y-18342D01*
X6935Y-18202D01*
X6842Y-18177D01*
X6772Y-18248D01*
X6772Y-18107D01*
X6747Y-18014D01*
X6550Y-17945D01*
X6342Y-17956D01*
X6202Y-18014D01*
X6177Y-18107D01*
X6475Y-18404D01*
X6772Y-18107D01*
X6772Y-18248D01*
X6545Y-18475D01*
X6842Y-18772D01*
X6935Y-18747D01*
X7004Y-18550D01*
X7004Y-18880D01*
X6762Y-18880D01*
X6772Y-18842D01*
X6475Y-18545D01*
X6404Y-18616D01*
X6404Y-18475D01*
X6107Y-18177D01*
X6014Y-18202D01*
X5945Y-18399D01*
X5956Y-18607D01*
X6014Y-18747D01*
X6107Y-18772D01*
X6404Y-18475D01*
X6404Y-18616D01*
X6177Y-18842D01*
X6187Y-18880D01*
X5672Y-18880D01*
X5716Y-18861D01*
X5787Y-18791D01*
X5825Y-18699D01*
X5825Y-18587D01*
X5762Y-18525D01*
X5350Y-18525D01*
X5350Y-18532D01*
X5250Y-18532D01*
X5250Y-18525D01*
X4837Y-18525D01*
X4775Y-18587D01*
X4774Y-18699D01*
X4812Y-18791D01*
X4883Y-18861D01*
X4927Y-18880D01*
X4004Y-18880D01*
X4004Y-18550D01*
X3993Y-18342D01*
X3935Y-18202D01*
X3842Y-18177D01*
X3772Y-18248D01*
X3772Y-18107D01*
X3747Y-18014D01*
X3550Y-17945D01*
X3342Y-17956D01*
X3202Y-18014D01*
X3177Y-18107D01*
X3475Y-18404D01*
X3772Y-18107D01*
X3772Y-18248D01*
X3545Y-18475D01*
X3842Y-18772D01*
X3935Y-18747D01*
X4004Y-18550D01*
X4004Y-18880D01*
X3762Y-18880D01*
X3772Y-18842D01*
X3475Y-18545D01*
X3404Y-18616D01*
X3404Y-18475D01*
X3107Y-18177D01*
X3014Y-18202D01*
X2945Y-18399D01*
X2956Y-18607D01*
X3014Y-18747D01*
X3107Y-18772D01*
X3404Y-18475D01*
X3404Y-18616D01*
X3177Y-18842D01*
X3187Y-18880D01*
X2079Y-18880D01*
X2079Y-18400D01*
X2068Y-18192D01*
X2010Y-18052D01*
X1917Y-18027D01*
X1620Y-18325D01*
X1917Y-18622D01*
X2010Y-18597D01*
X2079Y-18400D01*
X2079Y-18880D01*
X1847Y-18880D01*
X1847Y-18692D01*
X1550Y-18395D01*
X1479Y-18466D01*
X1479Y-18325D01*
X1182Y-18027D01*
X1089Y-18052D01*
X1020Y-18249D01*
X1031Y-18457D01*
X1089Y-18597D01*
X1182Y-18622D01*
X1479Y-18325D01*
X1479Y-18466D01*
X1252Y-18692D01*
X1277Y-18785D01*
X1474Y-18854D01*
X1682Y-18843D01*
X1822Y-18785D01*
X1847Y-18692D01*
X1847Y-18880D01*
X294Y-18880D01*
X294Y-14144D01*
X337Y-14162D01*
X437Y-14162D01*
X550Y-14162D01*
X612Y-14100D01*
X612Y-13687D01*
X604Y-13687D01*
X604Y-13587D01*
X612Y-13587D01*
X612Y-13579D01*
X712Y-13579D01*
X712Y-13587D01*
X1125Y-13587D01*
X1187Y-13525D01*
X1187Y-13312D01*
X1149Y-13221D01*
X1079Y-13150D01*
X987Y-13112D01*
X887Y-13112D01*
X887Y-13112D01*
X959Y-13082D01*
X1107Y-12935D01*
X1187Y-12742D01*
X1187Y-12533D01*
X1107Y-12340D01*
X960Y-12192D01*
X827Y-12137D01*
X959Y-12082D01*
X1107Y-11935D01*
X1187Y-11742D01*
X1187Y-11533D01*
X1107Y-11340D01*
X960Y-11192D01*
X827Y-11137D01*
X959Y-11082D01*
X1017Y-11025D01*
X1431Y-11025D01*
X1437Y-11041D01*
X1508Y-11111D01*
X1600Y-11149D01*
X1699Y-11150D01*
X2049Y-11150D01*
X2141Y-11112D01*
X2200Y-11053D01*
X2258Y-11111D01*
X2350Y-11149D01*
X2449Y-11150D01*
X2799Y-11150D01*
X2891Y-11112D01*
X2961Y-11041D01*
X2994Y-10963D01*
X6082Y-10963D01*
X5185Y-11860D01*
X5112Y-11970D01*
X5086Y-12100D01*
X5086Y-12735D01*
X4991Y-12639D01*
X4834Y-12575D01*
X4665Y-12574D01*
X4509Y-12639D01*
X4389Y-12758D01*
X4325Y-12915D01*
X4324Y-13084D01*
X4337Y-13113D01*
X4337Y-13150D01*
X4337Y-13876D01*
X4310Y-13887D01*
X4214Y-13887D01*
X4124Y-13850D01*
X4025Y-13849D01*
X3475Y-13849D01*
X3425Y-13870D01*
X3425Y-13550D01*
X3533Y-13660D01*
X3690Y-13724D01*
X3859Y-13725D01*
X4015Y-13660D01*
X4135Y-13541D01*
X4199Y-13384D01*
X4200Y-13215D01*
X4135Y-13059D01*
X4016Y-12939D01*
X3925Y-12902D01*
X3749Y-12725D01*
X3623Y-12641D01*
X3475Y-12612D01*
X3314Y-12612D01*
X3224Y-12575D01*
X3125Y-12574D01*
X2575Y-12574D01*
X2485Y-12612D01*
X2364Y-12612D01*
X2274Y-12575D01*
X2175Y-12574D01*
X1625Y-12574D01*
X1533Y-12612D01*
X1463Y-12683D01*
X1425Y-12775D01*
X1424Y-12874D01*
X1424Y-13224D01*
X1462Y-13316D01*
X1521Y-13375D01*
X1462Y-13433D01*
X1424Y-13525D01*
X1425Y-13637D01*
X1487Y-13700D01*
X1900Y-13700D01*
X1900Y-13692D01*
X2000Y-13692D01*
X2000Y-13700D01*
X2007Y-13700D01*
X2007Y-13800D01*
X2000Y-13800D01*
X2000Y-14112D01*
X2062Y-14175D01*
X2126Y-14175D01*
X1900Y-14401D01*
X1900Y-14112D01*
X1900Y-13800D01*
X1487Y-13800D01*
X1425Y-13862D01*
X1424Y-13974D01*
X1462Y-14066D01*
X1533Y-14136D01*
X1625Y-14174D01*
X1724Y-14175D01*
X1837Y-14175D01*
X1900Y-14112D01*
X1900Y-14401D01*
X1701Y-14599D01*
X1225Y-14599D01*
X1187Y-14615D01*
X1187Y-13962D01*
X1187Y-13750D01*
X1125Y-13687D01*
X712Y-13687D01*
X712Y-14100D01*
X775Y-14162D01*
X887Y-14162D01*
X987Y-14162D01*
X1079Y-14124D01*
X1149Y-14053D01*
X1187Y-13962D01*
X1187Y-14615D01*
X1133Y-14637D01*
X1063Y-14708D01*
X1025Y-14800D01*
X1024Y-14899D01*
X1024Y-15449D01*
X1062Y-15541D01*
X1133Y-15611D01*
X1225Y-15649D01*
X1312Y-15650D01*
X1277Y-15664D01*
X1252Y-15757D01*
X1550Y-16054D01*
X1847Y-15757D01*
X1822Y-15664D01*
X1781Y-15650D01*
X1874Y-15650D01*
X1966Y-15612D01*
X2036Y-15541D01*
X2074Y-15449D01*
X2075Y-15350D01*
X2075Y-15323D01*
X3174Y-14224D01*
X3207Y-14175D01*
X3224Y-14175D01*
X3274Y-14154D01*
X3274Y-14499D01*
X3312Y-14591D01*
X3371Y-14650D01*
X3312Y-14708D01*
X3274Y-14800D01*
X3275Y-14912D01*
X3337Y-14975D01*
X3750Y-14975D01*
X3750Y-14967D01*
X3850Y-14967D01*
X3850Y-14975D01*
X3857Y-14975D01*
X3857Y-15075D01*
X3850Y-15075D01*
X3850Y-15082D01*
X3750Y-15082D01*
X3750Y-15075D01*
X3337Y-15075D01*
X3275Y-15137D01*
X3274Y-15249D01*
X3312Y-15341D01*
X3383Y-15411D01*
X3384Y-15412D01*
X3125Y-15412D01*
X2976Y-15441D01*
X2850Y-15525D01*
X2027Y-16348D01*
X2079Y-16200D01*
X2068Y-15992D01*
X2010Y-15852D01*
X1917Y-15827D01*
X1620Y-16125D01*
X1626Y-16130D01*
X1555Y-16201D01*
X1550Y-16195D01*
X1479Y-16266D01*
X1479Y-16125D01*
X1182Y-15827D01*
X1089Y-15852D01*
X1020Y-16049D01*
X1031Y-16257D01*
X1089Y-16397D01*
X1182Y-16422D01*
X1479Y-16125D01*
X1479Y-16266D01*
X1252Y-16492D01*
X1277Y-16585D01*
X1474Y-16654D01*
X1682Y-16643D01*
X1768Y-16608D01*
X1576Y-16799D01*
X1225Y-16799D01*
X1133Y-16837D01*
X1063Y-16908D01*
X1025Y-17000D01*
X1024Y-17099D01*
X1024Y-17649D01*
X1062Y-17741D01*
X1133Y-17811D01*
X1225Y-17849D01*
X1312Y-17850D01*
X1277Y-17864D01*
X1252Y-17957D01*
X1550Y-18254D01*
X1847Y-17957D01*
X1822Y-17864D01*
X1781Y-17850D01*
X1874Y-17850D01*
X1966Y-17812D01*
X2036Y-17741D01*
X2074Y-17649D01*
X2075Y-17550D01*
X2075Y-17398D01*
X2949Y-16523D01*
X2949Y-16578D01*
X3029Y-16772D01*
X3177Y-16919D01*
X3370Y-16999D01*
X3578Y-17000D01*
X3772Y-16920D01*
X3829Y-16862D01*
X4089Y-16862D01*
X4124Y-16898D01*
X4124Y-17099D01*
X4162Y-17191D01*
X4233Y-17261D01*
X4325Y-17299D01*
X4424Y-17300D01*
X4774Y-17300D01*
X4866Y-17262D01*
X4912Y-17216D01*
X4912Y-17326D01*
X4883Y-17337D01*
X4813Y-17408D01*
X4775Y-17500D01*
X4774Y-17599D01*
X4774Y-17949D01*
X4812Y-18041D01*
X4871Y-18100D01*
X4812Y-18158D01*
X4774Y-18250D01*
X4775Y-18362D01*
X4837Y-18425D01*
X5250Y-18425D01*
X5250Y-18417D01*
X5350Y-18417D01*
X5350Y-18425D01*
X5762Y-18425D01*
X5825Y-18362D01*
X5825Y-18250D01*
X5787Y-18158D01*
X5728Y-18099D01*
X5786Y-18041D01*
X5824Y-17949D01*
X5825Y-17850D01*
X5825Y-17500D01*
X5787Y-17408D01*
X5716Y-17338D01*
X5687Y-17326D01*
X5687Y-17189D01*
X5724Y-17099D01*
X5725Y-17000D01*
X5725Y-16798D01*
X5725Y-16798D01*
X5737Y-16779D01*
X5763Y-16650D01*
X5763Y-16650D01*
X5763Y-16650D01*
X5763Y-13467D01*
X5783Y-13487D01*
X5875Y-13525D01*
X6087Y-13525D01*
X6150Y-13462D01*
X6150Y-13050D01*
X6142Y-13050D01*
X6142Y-12950D01*
X6150Y-12950D01*
X6150Y-12537D01*
X6087Y-12475D01*
X5875Y-12474D01*
X5783Y-12512D01*
X5763Y-12532D01*
X5763Y-12240D01*
X8290Y-9713D01*
X8325Y-9713D01*
X8367Y-9705D01*
X8670Y-9705D01*
X8669Y-9799D01*
X8669Y-10007D01*
X8661Y-10050D01*
X8661Y-10059D01*
X6960Y-11760D01*
X6887Y-11870D01*
X6861Y-12000D01*
X6861Y-12596D01*
X6755Y-12702D01*
X6725Y-12774D01*
X6725Y-12774D01*
X6724Y-12675D01*
X6686Y-12583D01*
X6616Y-12512D01*
X6524Y-12474D01*
X6312Y-12475D01*
X6250Y-12537D01*
X6250Y-12950D01*
X6257Y-12950D01*
X6257Y-13050D01*
X6250Y-13050D01*
X6250Y-13462D01*
X6312Y-13525D01*
X6524Y-13525D01*
X6616Y-13487D01*
X6686Y-13416D01*
X6724Y-13324D01*
X6725Y-13225D01*
X6725Y-13225D01*
X6754Y-13297D01*
X6902Y-13444D01*
X7095Y-13524D01*
X7303Y-13525D01*
X7497Y-13445D01*
X7644Y-13297D01*
X7700Y-13164D01*
X7754Y-13297D01*
X7812Y-13354D01*
X7812Y-13925D01*
X7841Y-14073D01*
X7924Y-14197D01*
X7924Y-14399D01*
X7962Y-14491D01*
X8033Y-14561D01*
X8125Y-14599D01*
X8224Y-14600D01*
X8574Y-14600D01*
X8666Y-14562D01*
X8725Y-14503D01*
X8783Y-14561D01*
X8875Y-14599D01*
X8974Y-14600D01*
X9324Y-14600D01*
X9416Y-14562D01*
X9486Y-14491D01*
X9524Y-14399D01*
X9525Y-14300D01*
X9525Y-14173D01*
X9558Y-14123D01*
X9587Y-13975D01*
X9587Y-13825D01*
X9650Y-13837D01*
X10210Y-13837D01*
X10300Y-13874D01*
X10399Y-13875D01*
X10949Y-13875D01*
X11039Y-13837D01*
X11110Y-13837D01*
X11200Y-13874D01*
X11299Y-13875D01*
X11849Y-13875D01*
X11941Y-13837D01*
X12000Y-13778D01*
X12058Y-13836D01*
X12150Y-13874D01*
X12249Y-13875D01*
X12362Y-13875D01*
X12425Y-13812D01*
X12425Y-13500D01*
X12417Y-13500D01*
X12417Y-13400D01*
X12425Y-13400D01*
X12425Y-13392D01*
X12525Y-13392D01*
X12525Y-13400D01*
X12532Y-13400D01*
X12532Y-13500D01*
X12525Y-13500D01*
X12525Y-13812D01*
X12587Y-13875D01*
X12700Y-13875D01*
X12799Y-13874D01*
X12891Y-13836D01*
X12912Y-13816D01*
X12933Y-13836D01*
X12962Y-13848D01*
X12962Y-13882D01*
X12884Y-13914D01*
X12764Y-14033D01*
X12700Y-14190D01*
X12699Y-14359D01*
X12764Y-14515D01*
X12883Y-14635D01*
X13026Y-14694D01*
G54D10*
G36*
X13379Y-17530D02*
X13308Y-17601D01*
X13302Y-17595D01*
X13232Y-17666D01*
X13232Y-17525D01*
X12916Y-17209D01*
X12821Y-17237D01*
X12747Y-17443D01*
X12758Y-17661D01*
X12821Y-17812D01*
X12916Y-17840D01*
X13232Y-17525D01*
X13232Y-17666D01*
X12987Y-17910D01*
X13014Y-18006D01*
X13049Y-18018D01*
X12991Y-18042D01*
X12836Y-18197D01*
X12752Y-18399D01*
X12752Y-18618D01*
X12836Y-18820D01*
X12896Y-18880D01*
X8998Y-18880D01*
X9037Y-18841D01*
X9075Y-18749D01*
X9075Y-18637D01*
X9012Y-18575D01*
X8600Y-18575D01*
X8600Y-18582D01*
X8500Y-18582D01*
X8500Y-18575D01*
X8492Y-18575D01*
X8492Y-18475D01*
X8500Y-18475D01*
X8500Y-18467D01*
X8600Y-18467D01*
X8600Y-18475D01*
X9012Y-18475D01*
X9075Y-18412D01*
X9075Y-18300D01*
X9037Y-18208D01*
X8978Y-18149D01*
X9036Y-18091D01*
X9074Y-17999D01*
X9075Y-17900D01*
X9075Y-17550D01*
X9039Y-17463D01*
X11075Y-17463D01*
X11204Y-17437D01*
X11204Y-17437D01*
X11314Y-17364D01*
X12964Y-15714D01*
X12964Y-16101D01*
X12836Y-16228D01*
X12752Y-16430D01*
X12752Y-16649D01*
X12836Y-16851D01*
X12990Y-17006D01*
X13047Y-17030D01*
X13014Y-17043D01*
X12987Y-17139D01*
X13302Y-17454D01*
X13308Y-17448D01*
X13379Y-17519D01*
X13373Y-17525D01*
X13379Y-17530D01*
X13379Y-17530D01*
G37*
G54D26*
X13379Y-17530D02*
X13308Y-17601D01*
X13302Y-17595D01*
X13232Y-17666D01*
X13232Y-17525D01*
X12916Y-17209D01*
X12821Y-17237D01*
X12747Y-17443D01*
X12758Y-17661D01*
X12821Y-17812D01*
X12916Y-17840D01*
X13232Y-17525D01*
X13232Y-17666D01*
X12987Y-17910D01*
X13014Y-18006D01*
X13049Y-18018D01*
X12991Y-18042D01*
X12836Y-18197D01*
X12752Y-18399D01*
X12752Y-18618D01*
X12836Y-18820D01*
X12896Y-18880D01*
X8998Y-18880D01*
X9037Y-18841D01*
X9075Y-18749D01*
X9075Y-18637D01*
X9012Y-18575D01*
X8600Y-18575D01*
X8600Y-18582D01*
X8500Y-18582D01*
X8500Y-18575D01*
X8492Y-18575D01*
X8492Y-18475D01*
X8500Y-18475D01*
X8500Y-18467D01*
X8600Y-18467D01*
X8600Y-18475D01*
X9012Y-18475D01*
X9075Y-18412D01*
X9075Y-18300D01*
X9037Y-18208D01*
X8978Y-18149D01*
X9036Y-18091D01*
X9074Y-17999D01*
X9075Y-17900D01*
X9075Y-17550D01*
X9039Y-17463D01*
X11075Y-17463D01*
X11204Y-17437D01*
X11204Y-17437D01*
X11314Y-17364D01*
X12964Y-15714D01*
X12964Y-16101D01*
X12836Y-16228D01*
X12752Y-16430D01*
X12752Y-16649D01*
X12836Y-16851D01*
X12990Y-17006D01*
X13047Y-17030D01*
X13014Y-17043D01*
X12987Y-17139D01*
X13302Y-17454D01*
X13308Y-17448D01*
X13379Y-17519D01*
X13373Y-17525D01*
X13379Y-17530D01*
G54D10*
G36*
X20730Y-18880D02*
X20729Y-18880D01*
X20729Y-13225D01*
X20725Y-13137D01*
X20725Y-12046D01*
X20645Y-11853D01*
X20497Y-11705D01*
X20425Y-11675D01*
X20524Y-11675D01*
X20616Y-11637D01*
X20686Y-11566D01*
X20724Y-11474D01*
X20725Y-11375D01*
X20725Y-10825D01*
X20687Y-10733D01*
X20616Y-10663D01*
X20524Y-10625D01*
X20425Y-10624D01*
X19875Y-10624D01*
X19783Y-10662D01*
X19713Y-10733D01*
X19675Y-10825D01*
X19674Y-10924D01*
X19674Y-11474D01*
X19712Y-11566D01*
X19783Y-11636D01*
X19875Y-11674D01*
X19974Y-11675D01*
X19974Y-11675D01*
X19903Y-11704D01*
X19755Y-11852D01*
X19675Y-12045D01*
X19674Y-12253D01*
X19754Y-12447D01*
X19902Y-12594D01*
X20028Y-12647D01*
X19927Y-12689D01*
X19902Y-12782D01*
X20200Y-13079D01*
X20497Y-12782D01*
X20472Y-12689D01*
X20362Y-12650D01*
X20497Y-12595D01*
X20644Y-12447D01*
X20724Y-12254D01*
X20725Y-12046D01*
X20725Y-13137D01*
X20718Y-13017D01*
X20660Y-12877D01*
X20567Y-12852D01*
X20270Y-13150D01*
X20567Y-13447D01*
X20660Y-13422D01*
X20729Y-13225D01*
X20729Y-18880D01*
X20497Y-18880D01*
X20497Y-13517D01*
X20200Y-13220D01*
X20129Y-13291D01*
X20129Y-13150D01*
X19832Y-12852D01*
X19739Y-12877D01*
X19670Y-13074D01*
X19681Y-13282D01*
X19739Y-13422D01*
X19832Y-13447D01*
X20129Y-13150D01*
X20129Y-13291D01*
X19902Y-13517D01*
X19927Y-13610D01*
X20124Y-13679D01*
X20332Y-13668D01*
X20472Y-13610D01*
X20497Y-13517D01*
X20497Y-18880D01*
X20000Y-18880D01*
X20000Y-16546D01*
X19920Y-16353D01*
X19862Y-16295D01*
X19862Y-14925D01*
X19862Y-14924D01*
X19833Y-14776D01*
X19833Y-14776D01*
X19805Y-14734D01*
X19749Y-14650D01*
X19749Y-14650D01*
X19275Y-14176D01*
X19275Y-6299D01*
X19275Y-6187D01*
X19212Y-6125D01*
X18800Y-6125D01*
X18800Y-6437D01*
X18862Y-6500D01*
X18975Y-6500D01*
X19074Y-6499D01*
X19166Y-6461D01*
X19237Y-6391D01*
X19275Y-6299D01*
X19275Y-14176D01*
X18700Y-13601D01*
X18700Y-6437D01*
X18700Y-6125D01*
X18287Y-6125D01*
X18225Y-6187D01*
X18224Y-6299D01*
X18262Y-6391D01*
X18333Y-6461D01*
X18425Y-6499D01*
X18524Y-6500D01*
X18637Y-6500D01*
X18700Y-6437D01*
X18700Y-13601D01*
X18200Y-13101D01*
X18200Y-6590D01*
X18135Y-6434D01*
X18016Y-6314D01*
X17983Y-6301D01*
X17983Y-6075D01*
X17975Y-6033D01*
X17975Y-5875D01*
X17937Y-5783D01*
X17866Y-5713D01*
X17774Y-5675D01*
X17675Y-5674D01*
X17475Y-5674D01*
X17437Y-5690D01*
X17399Y-5674D01*
X17362Y-5675D01*
X17300Y-5737D01*
X17300Y-5814D01*
X17275Y-5875D01*
X17274Y-5974D01*
X17274Y-6033D01*
X17266Y-6075D01*
X17266Y-6525D01*
X17294Y-6662D01*
X17349Y-6745D01*
X17349Y-6759D01*
X17414Y-6915D01*
X17533Y-7035D01*
X17690Y-7099D01*
X17859Y-7100D01*
X18015Y-7035D01*
X18135Y-6916D01*
X18199Y-6759D01*
X18200Y-6590D01*
X18200Y-13101D01*
X17112Y-12014D01*
X17112Y-6693D01*
X17128Y-6678D01*
X17205Y-6562D01*
X17233Y-6425D01*
X17233Y-6425D01*
X17233Y-6075D01*
X17225Y-6033D01*
X17225Y-5875D01*
X17200Y-5814D01*
X17200Y-5737D01*
X17137Y-5675D01*
X17100Y-5674D01*
X17062Y-5690D01*
X17024Y-5675D01*
X16925Y-5674D01*
X16725Y-5674D01*
X16633Y-5712D01*
X16632Y-5713D01*
X16500Y-5687D01*
X16385Y-5687D01*
X15962Y-5264D01*
X15962Y-4550D01*
X15962Y-3400D01*
X15962Y-3050D01*
X15962Y-3000D01*
X15962Y-2650D01*
X16149Y-2650D01*
X16239Y-2612D01*
X16435Y-2612D01*
X16525Y-2649D01*
X16624Y-2650D01*
X17174Y-2650D01*
X17266Y-2612D01*
X17336Y-2541D01*
X17374Y-2449D01*
X17375Y-2350D01*
X17375Y-2000D01*
X17337Y-1908D01*
X17278Y-1850D01*
X17337Y-1791D01*
X17375Y-1699D01*
X17375Y-1250D01*
X17337Y-1158D01*
X17266Y-1088D01*
X17174Y-1050D01*
X17075Y-1049D01*
X16962Y-1050D01*
X16900Y-1112D01*
X16900Y-1425D01*
X17312Y-1425D01*
X17375Y-1362D01*
X17375Y-1250D01*
X17375Y-1699D01*
X17375Y-1587D01*
X17312Y-1525D01*
X16900Y-1525D01*
X16900Y-1532D01*
X16800Y-1532D01*
X16800Y-1525D01*
X16792Y-1525D01*
X16792Y-1425D01*
X16800Y-1425D01*
X16800Y-1112D01*
X16737Y-1050D01*
X16624Y-1049D01*
X16525Y-1050D01*
X16433Y-1088D01*
X16362Y-1158D01*
X16337Y-1220D01*
X16312Y-1158D01*
X16241Y-1088D01*
X16149Y-1050D01*
X16050Y-1049D01*
X15500Y-1049D01*
X15408Y-1087D01*
X15379Y-1116D01*
X14825Y-1116D01*
X14783Y-1124D01*
X14625Y-1124D01*
X14533Y-1162D01*
X14463Y-1233D01*
X14425Y-1325D01*
X14424Y-1424D01*
X14424Y-1624D01*
X14440Y-1662D01*
X14424Y-1700D01*
X14425Y-1737D01*
X14487Y-1800D01*
X14564Y-1800D01*
X14625Y-1824D01*
X14724Y-1825D01*
X14783Y-1825D01*
X14825Y-1833D01*
X15379Y-1833D01*
X15396Y-1850D01*
X15379Y-1866D01*
X14825Y-1866D01*
X14783Y-1874D01*
X14625Y-1874D01*
X14564Y-1900D01*
X14487Y-1900D01*
X14425Y-1962D01*
X14424Y-1999D01*
X14440Y-2037D01*
X14425Y-2075D01*
X14424Y-2174D01*
X14424Y-2374D01*
X14448Y-2431D01*
X14466Y-2523D01*
X14550Y-2649D01*
X14625Y-2724D01*
X14625Y-2724D01*
X14709Y-2780D01*
X14751Y-2808D01*
X14751Y-2808D01*
X14855Y-2828D01*
X14855Y-2828D01*
X14877Y-2850D01*
X14908Y-2925D01*
X14850Y-3065D01*
X14849Y-3234D01*
X14914Y-3390D01*
X15033Y-3510D01*
X15124Y-3547D01*
X15187Y-3610D01*
X15187Y-4550D01*
X15187Y-5425D01*
X15216Y-5573D01*
X15300Y-5699D01*
X15950Y-6349D01*
X15950Y-6349D01*
X16076Y-6433D01*
X16225Y-6462D01*
X16337Y-6462D01*
X16337Y-6575D01*
X16337Y-12175D01*
X16366Y-12323D01*
X16450Y-12449D01*
X19087Y-15085D01*
X19087Y-16295D01*
X19030Y-16352D01*
X18950Y-16545D01*
X18949Y-16753D01*
X19029Y-16947D01*
X19177Y-17094D01*
X19249Y-17124D01*
X19249Y-17124D01*
X19150Y-17125D01*
X19058Y-17163D01*
X18987Y-17233D01*
X18949Y-17325D01*
X18950Y-17537D01*
X19012Y-17600D01*
X19425Y-17600D01*
X19425Y-17592D01*
X19525Y-17592D01*
X19525Y-17600D01*
X19937Y-17600D01*
X20000Y-17537D01*
X20000Y-17325D01*
X19962Y-17233D01*
X19891Y-17163D01*
X19799Y-17125D01*
X19700Y-17124D01*
X19700Y-17124D01*
X19772Y-17095D01*
X19919Y-16947D01*
X19999Y-16754D01*
X20000Y-16546D01*
X20000Y-18880D01*
X20000Y-18880D01*
X20000Y-17974D01*
X20000Y-17762D01*
X19937Y-17700D01*
X19525Y-17700D01*
X19525Y-18112D01*
X19587Y-18175D01*
X19700Y-18175D01*
X19799Y-18174D01*
X19891Y-18136D01*
X19962Y-18066D01*
X20000Y-17974D01*
X20000Y-18880D01*
X19425Y-18880D01*
X19425Y-18112D01*
X19425Y-17700D01*
X19012Y-17700D01*
X18950Y-17762D01*
X18949Y-17974D01*
X18987Y-18066D01*
X19058Y-18136D01*
X19150Y-18174D01*
X19249Y-18175D01*
X19362Y-18175D01*
X19425Y-18112D01*
X19425Y-18880D01*
X17979Y-18880D01*
X17979Y-18575D01*
X17975Y-18487D01*
X17975Y-16396D01*
X17895Y-16203D01*
X17747Y-16055D01*
X17554Y-15975D01*
X17346Y-15974D01*
X17153Y-16054D01*
X17005Y-16202D01*
X16925Y-16395D01*
X16924Y-16603D01*
X17004Y-16797D01*
X17152Y-16944D01*
X17345Y-17024D01*
X17553Y-17025D01*
X17747Y-16945D01*
X17894Y-16797D01*
X17974Y-16604D01*
X17975Y-16396D01*
X17975Y-18487D01*
X17968Y-18367D01*
X17910Y-18227D01*
X17817Y-18202D01*
X17747Y-18273D01*
X17747Y-18132D01*
X17722Y-18039D01*
X17525Y-17970D01*
X17317Y-17981D01*
X17177Y-18039D01*
X17152Y-18132D01*
X17450Y-18429D01*
X17747Y-18132D01*
X17747Y-18273D01*
X17520Y-18500D01*
X17817Y-18797D01*
X17910Y-18772D01*
X17979Y-18575D01*
X17979Y-18880D01*
X17743Y-18880D01*
X17747Y-18867D01*
X17450Y-18570D01*
X17379Y-18641D01*
X17379Y-18500D01*
X17082Y-18202D01*
X16989Y-18227D01*
X16920Y-18424D01*
X16931Y-18632D01*
X16989Y-18772D01*
X17082Y-18797D01*
X17379Y-18500D01*
X17379Y-18641D01*
X17152Y-18867D01*
X17156Y-18880D01*
X16573Y-18880D01*
X16637Y-18816D01*
X16675Y-18724D01*
X16675Y-18612D01*
X16612Y-18550D01*
X16200Y-18550D01*
X16200Y-18557D01*
X16100Y-18557D01*
X16100Y-18550D01*
X15687Y-18550D01*
X15625Y-18612D01*
X15624Y-18724D01*
X15662Y-18816D01*
X15726Y-18880D01*
X14979Y-18880D01*
X14979Y-18575D01*
X14968Y-18367D01*
X14910Y-18227D01*
X14817Y-18202D01*
X14520Y-18500D01*
X14817Y-18797D01*
X14910Y-18772D01*
X14979Y-18575D01*
X14979Y-18880D01*
X14743Y-18880D01*
X14747Y-18867D01*
X14450Y-18570D01*
X14152Y-18867D01*
X14156Y-18880D01*
X13709Y-18880D01*
X13768Y-18821D01*
X13829Y-18673D01*
X13928Y-18575D01*
X13931Y-18632D01*
X13989Y-18772D01*
X14082Y-18797D01*
X14379Y-18500D01*
X14373Y-18494D01*
X14444Y-18423D01*
X14450Y-18429D01*
X14747Y-18132D01*
X14722Y-18039D01*
X14525Y-17970D01*
X14317Y-17981D01*
X14238Y-18014D01*
X14238Y-16980D01*
X14345Y-17024D01*
X14553Y-17025D01*
X14747Y-16945D01*
X14804Y-16887D01*
X15074Y-16887D01*
X15074Y-17049D01*
X15112Y-17141D01*
X15183Y-17211D01*
X15275Y-17249D01*
X15374Y-17250D01*
X15724Y-17250D01*
X15816Y-17212D01*
X15862Y-17166D01*
X15862Y-17324D01*
X15825Y-17324D01*
X15733Y-17362D01*
X15663Y-17433D01*
X15625Y-17525D01*
X15624Y-17624D01*
X15624Y-17974D01*
X15662Y-18066D01*
X15721Y-18125D01*
X15662Y-18183D01*
X15624Y-18275D01*
X15625Y-18387D01*
X15687Y-18450D01*
X16100Y-18450D01*
X16100Y-18442D01*
X16200Y-18442D01*
X16200Y-18450D01*
X16612Y-18450D01*
X16675Y-18387D01*
X16675Y-18275D01*
X16637Y-18183D01*
X16578Y-18124D01*
X16636Y-18066D01*
X16674Y-17974D01*
X16675Y-17875D01*
X16675Y-17525D01*
X16637Y-17435D01*
X16637Y-17139D01*
X16674Y-17049D01*
X16675Y-16950D01*
X16675Y-16400D01*
X16637Y-16308D01*
X16566Y-16238D01*
X16481Y-16202D01*
X15738Y-15459D01*
X15738Y-14575D01*
X15738Y-12700D01*
X15738Y-11700D01*
X15712Y-11570D01*
X15712Y-11570D01*
X15639Y-11460D01*
X14925Y-10746D01*
X14925Y-7599D01*
X14925Y-7487D01*
X14862Y-7425D01*
X14450Y-7425D01*
X14450Y-7737D01*
X14512Y-7800D01*
X14625Y-7800D01*
X14724Y-7799D01*
X14816Y-7761D01*
X14887Y-7691D01*
X14925Y-7599D01*
X14925Y-10746D01*
X14564Y-10385D01*
X14454Y-10312D01*
X14350Y-10291D01*
X14350Y-7737D01*
X14350Y-7425D01*
X13937Y-7425D01*
X13875Y-7487D01*
X13874Y-7599D01*
X13912Y-7691D01*
X13983Y-7761D01*
X14075Y-7799D01*
X14174Y-7800D01*
X14287Y-7800D01*
X14350Y-7737D01*
X14350Y-10291D01*
X14325Y-10286D01*
X13565Y-10286D01*
X13163Y-9884D01*
X13163Y-9705D01*
X13174Y-9705D01*
X13266Y-9667D01*
X13336Y-9596D01*
X13374Y-9504D01*
X13375Y-9405D01*
X13375Y-9245D01*
X13363Y-9217D01*
X13374Y-9189D01*
X13375Y-9090D01*
X13375Y-8930D01*
X13363Y-8902D01*
X13374Y-8874D01*
X13375Y-8775D01*
X13375Y-8768D01*
X13517Y-8768D01*
X13533Y-8785D01*
X13690Y-8849D01*
X13859Y-8850D01*
X14015Y-8785D01*
X14135Y-8666D01*
X14199Y-8509D01*
X14200Y-8340D01*
X14135Y-8184D01*
X14016Y-8064D01*
X13859Y-8000D01*
X13690Y-7999D01*
X13534Y-8064D01*
X13507Y-8091D01*
X13375Y-8091D01*
X13375Y-7985D01*
X13363Y-7957D01*
X13374Y-7929D01*
X13375Y-7830D01*
X13375Y-7670D01*
X13363Y-7642D01*
X13374Y-7614D01*
X13375Y-7515D01*
X13375Y-7355D01*
X13363Y-7327D01*
X13374Y-7299D01*
X13374Y-7272D01*
X13322Y-7220D01*
X13375Y-7220D01*
X13375Y-7193D01*
X13874Y-7193D01*
X13875Y-7262D01*
X13937Y-7325D01*
X14350Y-7325D01*
X14350Y-7317D01*
X14450Y-7317D01*
X14450Y-7325D01*
X14862Y-7325D01*
X14925Y-7262D01*
X14925Y-7150D01*
X14887Y-7058D01*
X14828Y-6999D01*
X14886Y-6941D01*
X14924Y-6849D01*
X14925Y-6750D01*
X14925Y-6400D01*
X14887Y-6308D01*
X14816Y-6238D01*
X14787Y-6226D01*
X14787Y-6121D01*
X14815Y-6110D01*
X14935Y-5991D01*
X14999Y-5834D01*
X15000Y-5665D01*
X14935Y-5509D01*
X14816Y-5389D01*
X14659Y-5325D01*
X14490Y-5324D01*
X14334Y-5389D01*
X14325Y-5398D01*
X14316Y-5389D01*
X14225Y-5352D01*
X14212Y-5339D01*
X14212Y-2700D01*
X14212Y-2404D01*
X14224Y-2374D01*
X14225Y-2275D01*
X14225Y-2075D01*
X14225Y-1525D01*
X14225Y-1325D01*
X14187Y-1233D01*
X14116Y-1163D01*
X14024Y-1125D01*
X13925Y-1124D01*
X13625Y-1124D01*
X13533Y-1162D01*
X13463Y-1233D01*
X13425Y-1325D01*
X13424Y-1424D01*
X13424Y-1624D01*
X13462Y-1716D01*
X13533Y-1786D01*
X13625Y-1824D01*
X13724Y-1825D01*
X14024Y-1825D01*
X14116Y-1787D01*
X14186Y-1716D01*
X14224Y-1624D01*
X14225Y-1525D01*
X14225Y-2075D01*
X14187Y-1983D01*
X14116Y-1913D01*
X14024Y-1875D01*
X13985Y-1875D01*
X13973Y-1866D01*
X13825Y-1837D01*
X13300Y-1837D01*
X13300Y-1600D01*
X13262Y-1508D01*
X13203Y-1450D01*
X13262Y-1391D01*
X13300Y-1299D01*
X13300Y-850D01*
X13262Y-758D01*
X13191Y-688D01*
X13099Y-650D01*
X13000Y-649D01*
X12887Y-650D01*
X12825Y-712D01*
X12825Y-1025D01*
X13237Y-1025D01*
X13300Y-962D01*
X13300Y-850D01*
X13300Y-1299D01*
X13300Y-1187D01*
X13237Y-1125D01*
X12825Y-1125D01*
X12825Y-1132D01*
X12725Y-1132D01*
X12725Y-1125D01*
X12725Y-1025D01*
X12725Y-712D01*
X12662Y-650D01*
X12549Y-649D01*
X12450Y-650D01*
X12358Y-688D01*
X12287Y-758D01*
X12249Y-850D01*
X12250Y-962D01*
X12312Y-1025D01*
X12725Y-1025D01*
X12725Y-1125D01*
X12312Y-1125D01*
X12250Y-1187D01*
X12249Y-1299D01*
X12287Y-1391D01*
X12346Y-1450D01*
X12288Y-1508D01*
X12250Y-1600D01*
X12249Y-1699D01*
X12249Y-2049D01*
X12287Y-2141D01*
X12358Y-2211D01*
X12450Y-2249D01*
X12484Y-2249D01*
X12500Y-2274D01*
X12725Y-2499D01*
X12851Y-2583D01*
X13000Y-2612D01*
X13437Y-2612D01*
X13437Y-2700D01*
X13437Y-5500D01*
X13466Y-5648D01*
X13550Y-5774D01*
X13677Y-5900D01*
X13714Y-5990D01*
X13833Y-6110D01*
X13924Y-6147D01*
X14005Y-6228D01*
X13983Y-6237D01*
X13913Y-6308D01*
X13875Y-6400D01*
X13874Y-6499D01*
X13874Y-6516D01*
X13375Y-6516D01*
X13375Y-6410D01*
X13363Y-6382D01*
X13374Y-6354D01*
X13375Y-6255D01*
X13375Y-6095D01*
X13337Y-6003D01*
X13266Y-5933D01*
X13174Y-5895D01*
X13163Y-5895D01*
X13163Y-5887D01*
X13185Y-5866D01*
X13249Y-5709D01*
X13250Y-5540D01*
X13185Y-5384D01*
X13066Y-5264D01*
X12909Y-5200D01*
X12875Y-5200D01*
X12935Y-5141D01*
X12999Y-4984D01*
X13000Y-4815D01*
X12935Y-4659D01*
X12816Y-4539D01*
X12659Y-4475D01*
X12490Y-4474D01*
X12334Y-4539D01*
X12214Y-4658D01*
X12150Y-4815D01*
X12150Y-4846D01*
X11986Y-5009D01*
X11964Y-5000D01*
X11865Y-4999D01*
X11858Y-4999D01*
X11858Y-3045D01*
X11832Y-2915D01*
X11759Y-2805D01*
X11759Y-2805D01*
X10289Y-1335D01*
X10179Y-1262D01*
X10050Y-1236D01*
X3665Y-1236D01*
X3000Y-571D01*
X3000Y-325D01*
X2987Y-294D01*
X20730Y-294D01*
X20730Y-2375D01*
X20642Y-2352D01*
X20572Y-2423D01*
X20572Y-2282D01*
X20547Y-2189D01*
X20350Y-2120D01*
X20142Y-2131D01*
X20002Y-2189D01*
X19977Y-2282D01*
X20275Y-2579D01*
X20572Y-2282D01*
X20572Y-2423D01*
X20345Y-2650D01*
X20642Y-2947D01*
X20730Y-2924D01*
X20730Y-3337D01*
X20585Y-3192D01*
X20467Y-3143D01*
X20547Y-3110D01*
X20572Y-3017D01*
X20275Y-2720D01*
X20204Y-2791D01*
X20204Y-2650D01*
X19907Y-2352D01*
X19814Y-2377D01*
X19745Y-2574D01*
X19756Y-2782D01*
X19814Y-2922D01*
X19907Y-2947D01*
X20204Y-2650D01*
X20204Y-2791D01*
X19977Y-3017D01*
X20002Y-3110D01*
X20102Y-3145D01*
X19990Y-3192D01*
X19842Y-3339D01*
X19762Y-3532D01*
X19762Y-3741D01*
X19842Y-3934D01*
X19989Y-4082D01*
X20122Y-4137D01*
X19990Y-4192D01*
X19932Y-4249D01*
X19262Y-4249D01*
X19114Y-4279D01*
X18988Y-4363D01*
X18837Y-4514D01*
X18499Y-4175D01*
X18373Y-4091D01*
X18225Y-4062D01*
X17125Y-4062D01*
X17001Y-4086D01*
X16976Y-4091D01*
X16850Y-4175D01*
X16600Y-4425D01*
X16516Y-4551D01*
X16487Y-4700D01*
X16487Y-5075D01*
X16516Y-5223D01*
X16524Y-5235D01*
X16524Y-5274D01*
X16562Y-5366D01*
X16633Y-5436D01*
X16725Y-5474D01*
X16824Y-5475D01*
X17024Y-5475D01*
X17116Y-5437D01*
X17186Y-5366D01*
X17224Y-5274D01*
X17224Y-5235D01*
X17233Y-5223D01*
X17262Y-5075D01*
X17262Y-4860D01*
X17285Y-4837D01*
X17290Y-4837D01*
X17275Y-4875D01*
X17274Y-4974D01*
X17274Y-5274D01*
X17312Y-5366D01*
X17383Y-5436D01*
X17475Y-5474D01*
X17574Y-5475D01*
X17774Y-5475D01*
X17866Y-5437D01*
X17936Y-5366D01*
X17974Y-5274D01*
X17975Y-5175D01*
X17975Y-4875D01*
X17959Y-4837D01*
X18064Y-4837D01*
X18254Y-5028D01*
X18225Y-5100D01*
X18224Y-5199D01*
X18224Y-5549D01*
X18262Y-5641D01*
X18321Y-5700D01*
X18262Y-5758D01*
X18224Y-5850D01*
X18225Y-5962D01*
X18287Y-6025D01*
X18700Y-6025D01*
X18700Y-6017D01*
X18800Y-6017D01*
X18800Y-6025D01*
X19212Y-6025D01*
X19275Y-5962D01*
X19275Y-5850D01*
X19237Y-5758D01*
X19178Y-5699D01*
X19236Y-5641D01*
X19274Y-5549D01*
X19275Y-5450D01*
X19275Y-5173D01*
X19423Y-5025D01*
X19932Y-5025D01*
X19989Y-5082D01*
X20122Y-5137D01*
X19990Y-5192D01*
X19842Y-5339D01*
X19762Y-5532D01*
X19762Y-5741D01*
X19842Y-5934D01*
X19989Y-6082D01*
X20122Y-6137D01*
X19990Y-6192D01*
X19842Y-6339D01*
X19762Y-6532D01*
X19762Y-6741D01*
X19842Y-6934D01*
X19989Y-7082D01*
X20122Y-7137D01*
X19990Y-7192D01*
X19842Y-7339D01*
X19762Y-7532D01*
X19762Y-7741D01*
X19842Y-7934D01*
X19989Y-8082D01*
X20122Y-8137D01*
X19990Y-8192D01*
X19842Y-8339D01*
X19762Y-8532D01*
X19762Y-8741D01*
X19842Y-8934D01*
X19989Y-9082D01*
X20062Y-9112D01*
X19962Y-9112D01*
X19871Y-9150D01*
X19800Y-9220D01*
X19762Y-9312D01*
X19762Y-9412D01*
X19762Y-9962D01*
X19800Y-10053D01*
X19870Y-10124D01*
X19962Y-10162D01*
X20062Y-10162D01*
X20612Y-10162D01*
X20703Y-10124D01*
X20730Y-10098D01*
X20730Y-18880D01*
X20730Y-18880D01*
G37*
G54D26*
X20730Y-18880D02*
X20729Y-18880D01*
X20729Y-13225D01*
X20725Y-13137D01*
X20725Y-12046D01*
X20645Y-11853D01*
X20497Y-11705D01*
X20425Y-11675D01*
X20524Y-11675D01*
X20616Y-11637D01*
X20686Y-11566D01*
X20724Y-11474D01*
X20725Y-11375D01*
X20725Y-10825D01*
X20687Y-10733D01*
X20616Y-10663D01*
X20524Y-10625D01*
X20425Y-10624D01*
X19875Y-10624D01*
X19783Y-10662D01*
X19713Y-10733D01*
X19675Y-10825D01*
X19674Y-10924D01*
X19674Y-11474D01*
X19712Y-11566D01*
X19783Y-11636D01*
X19875Y-11674D01*
X19974Y-11675D01*
X19974Y-11675D01*
X19903Y-11704D01*
X19755Y-11852D01*
X19675Y-12045D01*
X19674Y-12253D01*
X19754Y-12447D01*
X19902Y-12594D01*
X20028Y-12647D01*
X19927Y-12689D01*
X19902Y-12782D01*
X20200Y-13079D01*
X20497Y-12782D01*
X20472Y-12689D01*
X20362Y-12650D01*
X20497Y-12595D01*
X20644Y-12447D01*
X20724Y-12254D01*
X20725Y-12046D01*
X20725Y-13137D01*
X20718Y-13017D01*
X20660Y-12877D01*
X20567Y-12852D01*
X20270Y-13150D01*
X20567Y-13447D01*
X20660Y-13422D01*
X20729Y-13225D01*
X20729Y-18880D01*
X20497Y-18880D01*
X20497Y-13517D01*
X20200Y-13220D01*
X20129Y-13291D01*
X20129Y-13150D01*
X19832Y-12852D01*
X19739Y-12877D01*
X19670Y-13074D01*
X19681Y-13282D01*
X19739Y-13422D01*
X19832Y-13447D01*
X20129Y-13150D01*
X20129Y-13291D01*
X19902Y-13517D01*
X19927Y-13610D01*
X20124Y-13679D01*
X20332Y-13668D01*
X20472Y-13610D01*
X20497Y-13517D01*
X20497Y-18880D01*
X20000Y-18880D01*
X20000Y-16546D01*
X19920Y-16353D01*
X19862Y-16295D01*
X19862Y-14925D01*
X19862Y-14924D01*
X19833Y-14776D01*
X19833Y-14776D01*
X19805Y-14734D01*
X19749Y-14650D01*
X19749Y-14650D01*
X19275Y-14176D01*
X19275Y-6299D01*
X19275Y-6187D01*
X19212Y-6125D01*
X18800Y-6125D01*
X18800Y-6437D01*
X18862Y-6500D01*
X18975Y-6500D01*
X19074Y-6499D01*
X19166Y-6461D01*
X19237Y-6391D01*
X19275Y-6299D01*
X19275Y-14176D01*
X18700Y-13601D01*
X18700Y-6437D01*
X18700Y-6125D01*
X18287Y-6125D01*
X18225Y-6187D01*
X18224Y-6299D01*
X18262Y-6391D01*
X18333Y-6461D01*
X18425Y-6499D01*
X18524Y-6500D01*
X18637Y-6500D01*
X18700Y-6437D01*
X18700Y-13601D01*
X18200Y-13101D01*
X18200Y-6590D01*
X18135Y-6434D01*
X18016Y-6314D01*
X17983Y-6301D01*
X17983Y-6075D01*
X17975Y-6033D01*
X17975Y-5875D01*
X17937Y-5783D01*
X17866Y-5713D01*
X17774Y-5675D01*
X17675Y-5674D01*
X17475Y-5674D01*
X17437Y-5690D01*
X17399Y-5674D01*
X17362Y-5675D01*
X17300Y-5737D01*
X17300Y-5814D01*
X17275Y-5875D01*
X17274Y-5974D01*
X17274Y-6033D01*
X17266Y-6075D01*
X17266Y-6525D01*
X17294Y-6662D01*
X17349Y-6745D01*
X17349Y-6759D01*
X17414Y-6915D01*
X17533Y-7035D01*
X17690Y-7099D01*
X17859Y-7100D01*
X18015Y-7035D01*
X18135Y-6916D01*
X18199Y-6759D01*
X18200Y-6590D01*
X18200Y-13101D01*
X17112Y-12014D01*
X17112Y-6693D01*
X17128Y-6678D01*
X17205Y-6562D01*
X17233Y-6425D01*
X17233Y-6425D01*
X17233Y-6075D01*
X17225Y-6033D01*
X17225Y-5875D01*
X17200Y-5814D01*
X17200Y-5737D01*
X17137Y-5675D01*
X17100Y-5674D01*
X17062Y-5690D01*
X17024Y-5675D01*
X16925Y-5674D01*
X16725Y-5674D01*
X16633Y-5712D01*
X16632Y-5713D01*
X16500Y-5687D01*
X16385Y-5687D01*
X15962Y-5264D01*
X15962Y-4550D01*
X15962Y-3400D01*
X15962Y-3050D01*
X15962Y-3000D01*
X15962Y-2650D01*
X16149Y-2650D01*
X16239Y-2612D01*
X16435Y-2612D01*
X16525Y-2649D01*
X16624Y-2650D01*
X17174Y-2650D01*
X17266Y-2612D01*
X17336Y-2541D01*
X17374Y-2449D01*
X17375Y-2350D01*
X17375Y-2000D01*
X17337Y-1908D01*
X17278Y-1850D01*
X17337Y-1791D01*
X17375Y-1699D01*
X17375Y-1250D01*
X17337Y-1158D01*
X17266Y-1088D01*
X17174Y-1050D01*
X17075Y-1049D01*
X16962Y-1050D01*
X16900Y-1112D01*
X16900Y-1425D01*
X17312Y-1425D01*
X17375Y-1362D01*
X17375Y-1250D01*
X17375Y-1699D01*
X17375Y-1587D01*
X17312Y-1525D01*
X16900Y-1525D01*
X16900Y-1532D01*
X16800Y-1532D01*
X16800Y-1525D01*
X16792Y-1525D01*
X16792Y-1425D01*
X16800Y-1425D01*
X16800Y-1112D01*
X16737Y-1050D01*
X16624Y-1049D01*
X16525Y-1050D01*
X16433Y-1088D01*
X16362Y-1158D01*
X16337Y-1220D01*
X16312Y-1158D01*
X16241Y-1088D01*
X16149Y-1050D01*
X16050Y-1049D01*
X15500Y-1049D01*
X15408Y-1087D01*
X15379Y-1116D01*
X14825Y-1116D01*
X14783Y-1124D01*
X14625Y-1124D01*
X14533Y-1162D01*
X14463Y-1233D01*
X14425Y-1325D01*
X14424Y-1424D01*
X14424Y-1624D01*
X14440Y-1662D01*
X14424Y-1700D01*
X14425Y-1737D01*
X14487Y-1800D01*
X14564Y-1800D01*
X14625Y-1824D01*
X14724Y-1825D01*
X14783Y-1825D01*
X14825Y-1833D01*
X15379Y-1833D01*
X15396Y-1850D01*
X15379Y-1866D01*
X14825Y-1866D01*
X14783Y-1874D01*
X14625Y-1874D01*
X14564Y-1900D01*
X14487Y-1900D01*
X14425Y-1962D01*
X14424Y-1999D01*
X14440Y-2037D01*
X14425Y-2075D01*
X14424Y-2174D01*
X14424Y-2374D01*
X14448Y-2431D01*
X14466Y-2523D01*
X14550Y-2649D01*
X14625Y-2724D01*
X14625Y-2724D01*
X14709Y-2780D01*
X14751Y-2808D01*
X14751Y-2808D01*
X14855Y-2828D01*
X14855Y-2828D01*
X14877Y-2850D01*
X14908Y-2925D01*
X14850Y-3065D01*
X14849Y-3234D01*
X14914Y-3390D01*
X15033Y-3510D01*
X15124Y-3547D01*
X15187Y-3610D01*
X15187Y-4550D01*
X15187Y-5425D01*
X15216Y-5573D01*
X15300Y-5699D01*
X15950Y-6349D01*
X15950Y-6349D01*
X16076Y-6433D01*
X16225Y-6462D01*
X16337Y-6462D01*
X16337Y-6575D01*
X16337Y-12175D01*
X16366Y-12323D01*
X16450Y-12449D01*
X19087Y-15085D01*
X19087Y-16295D01*
X19030Y-16352D01*
X18950Y-16545D01*
X18949Y-16753D01*
X19029Y-16947D01*
X19177Y-17094D01*
X19249Y-17124D01*
X19249Y-17124D01*
X19150Y-17125D01*
X19058Y-17163D01*
X18987Y-17233D01*
X18949Y-17325D01*
X18950Y-17537D01*
X19012Y-17600D01*
X19425Y-17600D01*
X19425Y-17592D01*
X19525Y-17592D01*
X19525Y-17600D01*
X19937Y-17600D01*
X20000Y-17537D01*
X20000Y-17325D01*
X19962Y-17233D01*
X19891Y-17163D01*
X19799Y-17125D01*
X19700Y-17124D01*
X19700Y-17124D01*
X19772Y-17095D01*
X19919Y-16947D01*
X19999Y-16754D01*
X20000Y-16546D01*
X20000Y-18880D01*
X20000Y-18880D01*
X20000Y-17974D01*
X20000Y-17762D01*
X19937Y-17700D01*
X19525Y-17700D01*
X19525Y-18112D01*
X19587Y-18175D01*
X19700Y-18175D01*
X19799Y-18174D01*
X19891Y-18136D01*
X19962Y-18066D01*
X20000Y-17974D01*
X20000Y-18880D01*
X19425Y-18880D01*
X19425Y-18112D01*
X19425Y-17700D01*
X19012Y-17700D01*
X18950Y-17762D01*
X18949Y-17974D01*
X18987Y-18066D01*
X19058Y-18136D01*
X19150Y-18174D01*
X19249Y-18175D01*
X19362Y-18175D01*
X19425Y-18112D01*
X19425Y-18880D01*
X17979Y-18880D01*
X17979Y-18575D01*
X17975Y-18487D01*
X17975Y-16396D01*
X17895Y-16203D01*
X17747Y-16055D01*
X17554Y-15975D01*
X17346Y-15974D01*
X17153Y-16054D01*
X17005Y-16202D01*
X16925Y-16395D01*
X16924Y-16603D01*
X17004Y-16797D01*
X17152Y-16944D01*
X17345Y-17024D01*
X17553Y-17025D01*
X17747Y-16945D01*
X17894Y-16797D01*
X17974Y-16604D01*
X17975Y-16396D01*
X17975Y-18487D01*
X17968Y-18367D01*
X17910Y-18227D01*
X17817Y-18202D01*
X17747Y-18273D01*
X17747Y-18132D01*
X17722Y-18039D01*
X17525Y-17970D01*
X17317Y-17981D01*
X17177Y-18039D01*
X17152Y-18132D01*
X17450Y-18429D01*
X17747Y-18132D01*
X17747Y-18273D01*
X17520Y-18500D01*
X17817Y-18797D01*
X17910Y-18772D01*
X17979Y-18575D01*
X17979Y-18880D01*
X17743Y-18880D01*
X17747Y-18867D01*
X17450Y-18570D01*
X17379Y-18641D01*
X17379Y-18500D01*
X17082Y-18202D01*
X16989Y-18227D01*
X16920Y-18424D01*
X16931Y-18632D01*
X16989Y-18772D01*
X17082Y-18797D01*
X17379Y-18500D01*
X17379Y-18641D01*
X17152Y-18867D01*
X17156Y-18880D01*
X16573Y-18880D01*
X16637Y-18816D01*
X16675Y-18724D01*
X16675Y-18612D01*
X16612Y-18550D01*
X16200Y-18550D01*
X16200Y-18557D01*
X16100Y-18557D01*
X16100Y-18550D01*
X15687Y-18550D01*
X15625Y-18612D01*
X15624Y-18724D01*
X15662Y-18816D01*
X15726Y-18880D01*
X14979Y-18880D01*
X14979Y-18575D01*
X14968Y-18367D01*
X14910Y-18227D01*
X14817Y-18202D01*
X14520Y-18500D01*
X14817Y-18797D01*
X14910Y-18772D01*
X14979Y-18575D01*
X14979Y-18880D01*
X14743Y-18880D01*
X14747Y-18867D01*
X14450Y-18570D01*
X14152Y-18867D01*
X14156Y-18880D01*
X13709Y-18880D01*
X13768Y-18821D01*
X13829Y-18673D01*
X13928Y-18575D01*
X13931Y-18632D01*
X13989Y-18772D01*
X14082Y-18797D01*
X14379Y-18500D01*
X14373Y-18494D01*
X14444Y-18423D01*
X14450Y-18429D01*
X14747Y-18132D01*
X14722Y-18039D01*
X14525Y-17970D01*
X14317Y-17981D01*
X14238Y-18014D01*
X14238Y-16980D01*
X14345Y-17024D01*
X14553Y-17025D01*
X14747Y-16945D01*
X14804Y-16887D01*
X15074Y-16887D01*
X15074Y-17049D01*
X15112Y-17141D01*
X15183Y-17211D01*
X15275Y-17249D01*
X15374Y-17250D01*
X15724Y-17250D01*
X15816Y-17212D01*
X15862Y-17166D01*
X15862Y-17324D01*
X15825Y-17324D01*
X15733Y-17362D01*
X15663Y-17433D01*
X15625Y-17525D01*
X15624Y-17624D01*
X15624Y-17974D01*
X15662Y-18066D01*
X15721Y-18125D01*
X15662Y-18183D01*
X15624Y-18275D01*
X15625Y-18387D01*
X15687Y-18450D01*
X16100Y-18450D01*
X16100Y-18442D01*
X16200Y-18442D01*
X16200Y-18450D01*
X16612Y-18450D01*
X16675Y-18387D01*
X16675Y-18275D01*
X16637Y-18183D01*
X16578Y-18124D01*
X16636Y-18066D01*
X16674Y-17974D01*
X16675Y-17875D01*
X16675Y-17525D01*
X16637Y-17435D01*
X16637Y-17139D01*
X16674Y-17049D01*
X16675Y-16950D01*
X16675Y-16400D01*
X16637Y-16308D01*
X16566Y-16238D01*
X16481Y-16202D01*
X15738Y-15459D01*
X15738Y-14575D01*
X15738Y-12700D01*
X15738Y-11700D01*
X15712Y-11570D01*
X15712Y-11570D01*
X15639Y-11460D01*
X14925Y-10746D01*
X14925Y-7599D01*
X14925Y-7487D01*
X14862Y-7425D01*
X14450Y-7425D01*
X14450Y-7737D01*
X14512Y-7800D01*
X14625Y-7800D01*
X14724Y-7799D01*
X14816Y-7761D01*
X14887Y-7691D01*
X14925Y-7599D01*
X14925Y-10746D01*
X14564Y-10385D01*
X14454Y-10312D01*
X14350Y-10291D01*
X14350Y-7737D01*
X14350Y-7425D01*
X13937Y-7425D01*
X13875Y-7487D01*
X13874Y-7599D01*
X13912Y-7691D01*
X13983Y-7761D01*
X14075Y-7799D01*
X14174Y-7800D01*
X14287Y-7800D01*
X14350Y-7737D01*
X14350Y-10291D01*
X14325Y-10286D01*
X13565Y-10286D01*
X13163Y-9884D01*
X13163Y-9705D01*
X13174Y-9705D01*
X13266Y-9667D01*
X13336Y-9596D01*
X13374Y-9504D01*
X13375Y-9405D01*
X13375Y-9245D01*
X13363Y-9217D01*
X13374Y-9189D01*
X13375Y-9090D01*
X13375Y-8930D01*
X13363Y-8902D01*
X13374Y-8874D01*
X13375Y-8775D01*
X13375Y-8768D01*
X13517Y-8768D01*
X13533Y-8785D01*
X13690Y-8849D01*
X13859Y-8850D01*
X14015Y-8785D01*
X14135Y-8666D01*
X14199Y-8509D01*
X14200Y-8340D01*
X14135Y-8184D01*
X14016Y-8064D01*
X13859Y-8000D01*
X13690Y-7999D01*
X13534Y-8064D01*
X13507Y-8091D01*
X13375Y-8091D01*
X13375Y-7985D01*
X13363Y-7957D01*
X13374Y-7929D01*
X13375Y-7830D01*
X13375Y-7670D01*
X13363Y-7642D01*
X13374Y-7614D01*
X13375Y-7515D01*
X13375Y-7355D01*
X13363Y-7327D01*
X13374Y-7299D01*
X13374Y-7272D01*
X13322Y-7220D01*
X13375Y-7220D01*
X13375Y-7193D01*
X13874Y-7193D01*
X13875Y-7262D01*
X13937Y-7325D01*
X14350Y-7325D01*
X14350Y-7317D01*
X14450Y-7317D01*
X14450Y-7325D01*
X14862Y-7325D01*
X14925Y-7262D01*
X14925Y-7150D01*
X14887Y-7058D01*
X14828Y-6999D01*
X14886Y-6941D01*
X14924Y-6849D01*
X14925Y-6750D01*
X14925Y-6400D01*
X14887Y-6308D01*
X14816Y-6238D01*
X14787Y-6226D01*
X14787Y-6121D01*
X14815Y-6110D01*
X14935Y-5991D01*
X14999Y-5834D01*
X15000Y-5665D01*
X14935Y-5509D01*
X14816Y-5389D01*
X14659Y-5325D01*
X14490Y-5324D01*
X14334Y-5389D01*
X14325Y-5398D01*
X14316Y-5389D01*
X14225Y-5352D01*
X14212Y-5339D01*
X14212Y-2700D01*
X14212Y-2404D01*
X14224Y-2374D01*
X14225Y-2275D01*
X14225Y-2075D01*
X14225Y-1525D01*
X14225Y-1325D01*
X14187Y-1233D01*
X14116Y-1163D01*
X14024Y-1125D01*
X13925Y-1124D01*
X13625Y-1124D01*
X13533Y-1162D01*
X13463Y-1233D01*
X13425Y-1325D01*
X13424Y-1424D01*
X13424Y-1624D01*
X13462Y-1716D01*
X13533Y-1786D01*
X13625Y-1824D01*
X13724Y-1825D01*
X14024Y-1825D01*
X14116Y-1787D01*
X14186Y-1716D01*
X14224Y-1624D01*
X14225Y-1525D01*
X14225Y-2075D01*
X14187Y-1983D01*
X14116Y-1913D01*
X14024Y-1875D01*
X13985Y-1875D01*
X13973Y-1866D01*
X13825Y-1837D01*
X13300Y-1837D01*
X13300Y-1600D01*
X13262Y-1508D01*
X13203Y-1450D01*
X13262Y-1391D01*
X13300Y-1299D01*
X13300Y-850D01*
X13262Y-758D01*
X13191Y-688D01*
X13099Y-650D01*
X13000Y-649D01*
X12887Y-650D01*
X12825Y-712D01*
X12825Y-1025D01*
X13237Y-1025D01*
X13300Y-962D01*
X13300Y-850D01*
X13300Y-1299D01*
X13300Y-1187D01*
X13237Y-1125D01*
X12825Y-1125D01*
X12825Y-1132D01*
X12725Y-1132D01*
X12725Y-1125D01*
X12725Y-1025D01*
X12725Y-712D01*
X12662Y-650D01*
X12549Y-649D01*
X12450Y-650D01*
X12358Y-688D01*
X12287Y-758D01*
X12249Y-850D01*
X12250Y-962D01*
X12312Y-1025D01*
X12725Y-1025D01*
X12725Y-1125D01*
X12312Y-1125D01*
X12250Y-1187D01*
X12249Y-1299D01*
X12287Y-1391D01*
X12346Y-1450D01*
X12288Y-1508D01*
X12250Y-1600D01*
X12249Y-1699D01*
X12249Y-2049D01*
X12287Y-2141D01*
X12358Y-2211D01*
X12450Y-2249D01*
X12484Y-2249D01*
X12500Y-2274D01*
X12725Y-2499D01*
X12851Y-2583D01*
X13000Y-2612D01*
X13437Y-2612D01*
X13437Y-2700D01*
X13437Y-5500D01*
X13466Y-5648D01*
X13550Y-5774D01*
X13677Y-5900D01*
X13714Y-5990D01*
X13833Y-6110D01*
X13924Y-6147D01*
X14005Y-6228D01*
X13983Y-6237D01*
X13913Y-6308D01*
X13875Y-6400D01*
X13874Y-6499D01*
X13874Y-6516D01*
X13375Y-6516D01*
X13375Y-6410D01*
X13363Y-6382D01*
X13374Y-6354D01*
X13375Y-6255D01*
X13375Y-6095D01*
X13337Y-6003D01*
X13266Y-5933D01*
X13174Y-5895D01*
X13163Y-5895D01*
X13163Y-5887D01*
X13185Y-5866D01*
X13249Y-5709D01*
X13250Y-5540D01*
X13185Y-5384D01*
X13066Y-5264D01*
X12909Y-5200D01*
X12875Y-5200D01*
X12935Y-5141D01*
X12999Y-4984D01*
X13000Y-4815D01*
X12935Y-4659D01*
X12816Y-4539D01*
X12659Y-4475D01*
X12490Y-4474D01*
X12334Y-4539D01*
X12214Y-4658D01*
X12150Y-4815D01*
X12150Y-4846D01*
X11986Y-5009D01*
X11964Y-5000D01*
X11865Y-4999D01*
X11858Y-4999D01*
X11858Y-3045D01*
X11832Y-2915D01*
X11759Y-2805D01*
X11759Y-2805D01*
X10289Y-1335D01*
X10179Y-1262D01*
X10050Y-1236D01*
X3665Y-1236D01*
X3000Y-571D01*
X3000Y-325D01*
X2987Y-294D01*
X20730Y-294D01*
X20730Y-2375D01*
X20642Y-2352D01*
X20572Y-2423D01*
X20572Y-2282D01*
X20547Y-2189D01*
X20350Y-2120D01*
X20142Y-2131D01*
X20002Y-2189D01*
X19977Y-2282D01*
X20275Y-2579D01*
X20572Y-2282D01*
X20572Y-2423D01*
X20345Y-2650D01*
X20642Y-2947D01*
X20730Y-2924D01*
X20730Y-3337D01*
X20585Y-3192D01*
X20467Y-3143D01*
X20547Y-3110D01*
X20572Y-3017D01*
X20275Y-2720D01*
X20204Y-2791D01*
X20204Y-2650D01*
X19907Y-2352D01*
X19814Y-2377D01*
X19745Y-2574D01*
X19756Y-2782D01*
X19814Y-2922D01*
X19907Y-2947D01*
X20204Y-2650D01*
X20204Y-2791D01*
X19977Y-3017D01*
X20002Y-3110D01*
X20102Y-3145D01*
X19990Y-3192D01*
X19842Y-3339D01*
X19762Y-3532D01*
X19762Y-3741D01*
X19842Y-3934D01*
X19989Y-4082D01*
X20122Y-4137D01*
X19990Y-4192D01*
X19932Y-4249D01*
X19262Y-4249D01*
X19114Y-4279D01*
X18988Y-4363D01*
X18837Y-4514D01*
X18499Y-4175D01*
X18373Y-4091D01*
X18225Y-4062D01*
X17125Y-4062D01*
X17001Y-4086D01*
X16976Y-4091D01*
X16850Y-4175D01*
X16600Y-4425D01*
X16516Y-4551D01*
X16487Y-4700D01*
X16487Y-5075D01*
X16516Y-5223D01*
X16524Y-5235D01*
X16524Y-5274D01*
X16562Y-5366D01*
X16633Y-5436D01*
X16725Y-5474D01*
X16824Y-5475D01*
X17024Y-5475D01*
X17116Y-5437D01*
X17186Y-5366D01*
X17224Y-5274D01*
X17224Y-5235D01*
X17233Y-5223D01*
X17262Y-5075D01*
X17262Y-4860D01*
X17285Y-4837D01*
X17290Y-4837D01*
X17275Y-4875D01*
X17274Y-4974D01*
X17274Y-5274D01*
X17312Y-5366D01*
X17383Y-5436D01*
X17475Y-5474D01*
X17574Y-5475D01*
X17774Y-5475D01*
X17866Y-5437D01*
X17936Y-5366D01*
X17974Y-5274D01*
X17975Y-5175D01*
X17975Y-4875D01*
X17959Y-4837D01*
X18064Y-4837D01*
X18254Y-5028D01*
X18225Y-5100D01*
X18224Y-5199D01*
X18224Y-5549D01*
X18262Y-5641D01*
X18321Y-5700D01*
X18262Y-5758D01*
X18224Y-5850D01*
X18225Y-5962D01*
X18287Y-6025D01*
X18700Y-6025D01*
X18700Y-6017D01*
X18800Y-6017D01*
X18800Y-6025D01*
X19212Y-6025D01*
X19275Y-5962D01*
X19275Y-5850D01*
X19237Y-5758D01*
X19178Y-5699D01*
X19236Y-5641D01*
X19274Y-5549D01*
X19275Y-5450D01*
X19275Y-5173D01*
X19423Y-5025D01*
X19932Y-5025D01*
X19989Y-5082D01*
X20122Y-5137D01*
X19990Y-5192D01*
X19842Y-5339D01*
X19762Y-5532D01*
X19762Y-5741D01*
X19842Y-5934D01*
X19989Y-6082D01*
X20122Y-6137D01*
X19990Y-6192D01*
X19842Y-6339D01*
X19762Y-6532D01*
X19762Y-6741D01*
X19842Y-6934D01*
X19989Y-7082D01*
X20122Y-7137D01*
X19990Y-7192D01*
X19842Y-7339D01*
X19762Y-7532D01*
X19762Y-7741D01*
X19842Y-7934D01*
X19989Y-8082D01*
X20122Y-8137D01*
X19990Y-8192D01*
X19842Y-8339D01*
X19762Y-8532D01*
X19762Y-8741D01*
X19842Y-8934D01*
X19989Y-9082D01*
X20062Y-9112D01*
X19962Y-9112D01*
X19871Y-9150D01*
X19800Y-9220D01*
X19762Y-9312D01*
X19762Y-9412D01*
X19762Y-9962D01*
X19800Y-10053D01*
X19870Y-10124D01*
X19962Y-10162D01*
X20062Y-10162D01*
X20612Y-10162D01*
X20703Y-10124D01*
X20730Y-10098D01*
X20730Y-18880D01*
M02*
