G04 (created by PCBNEW (2013-07-07 BZR 4022)-stable) date 2015-10-06 15:27:22*
%MOIN*%
G04 Gerber Fmt 3.4, Leading zero omitted, Abs format*
%FSLAX34Y34*%
G01*
G70*
G90*
G04 APERTURE LIST*
%ADD10C,0.005*%
%ADD11C,0.00393701*%
%ADD12C,0.00787402*%
%ADD13C,0.011811*%
G04 APERTURE END LIST*
G54D10*
G54D11*
X21000Y-25D02*
X21000Y-3700D01*
X25Y-25D02*
X21000Y-25D01*
X25Y-3700D02*
X25Y-25D01*
X25Y-19150D02*
X25Y-3700D01*
X21000Y-19150D02*
X25Y-19150D01*
X21000Y-3700D02*
X21000Y-19150D01*
G54D12*
X3650Y-13175D02*
X3900Y-13425D01*
X3900Y-13175D02*
X3650Y-13425D01*
X4625Y-12875D02*
X4875Y-13125D01*
X4875Y-12875D02*
X4625Y-13125D01*
X9300Y-8900D02*
X9550Y-9150D01*
X9550Y-8900D02*
X9300Y-9150D01*
X9675Y-6325D02*
X9925Y-6575D01*
X9925Y-6325D02*
X9675Y-6575D01*
X11750Y-7675D02*
X12000Y-7925D01*
X12000Y-7675D02*
X11750Y-7925D01*
X12450Y-4775D02*
X12700Y-5025D01*
X12700Y-4775D02*
X12450Y-5025D01*
X12700Y-5500D02*
X12950Y-5750D01*
X12950Y-5500D02*
X12700Y-5750D01*
X13000Y-14150D02*
X13250Y-14400D01*
X13250Y-14150D02*
X13000Y-14400D01*
X13650Y-8300D02*
X13900Y-8550D01*
X13900Y-8300D02*
X13650Y-8550D01*
X13950Y-5625D02*
X14200Y-5875D01*
X14200Y-5625D02*
X13950Y-5875D01*
X14450Y-5625D02*
X14700Y-5875D01*
X14700Y-5625D02*
X14450Y-5875D01*
X15150Y-2575D02*
X15400Y-2825D01*
X15400Y-2575D02*
X15150Y-2825D01*
X15150Y-3025D02*
X15400Y-3275D01*
X15400Y-3025D02*
X15150Y-3275D01*
X17650Y-6550D02*
X17900Y-6800D01*
X17900Y-6550D02*
X17650Y-6800D01*
X9350Y-11575D02*
G75*
G03X9350Y-11575I-150J0D01*
G74*
G01*
X10150Y-11575D02*
G75*
G03X10150Y-11575I-150J0D01*
G74*
G01*
X662Y-477D02*
X662Y-797D01*
X502Y-637D02*
X822Y-637D01*
X662Y-1477D02*
X662Y-1797D01*
X502Y-1637D02*
X822Y-1637D01*
X662Y-2477D02*
X662Y-2797D01*
X502Y-2637D02*
X822Y-2637D01*
X662Y-3477D02*
X662Y-3797D01*
X502Y-3637D02*
X822Y-3637D01*
X662Y-4477D02*
X662Y-4797D01*
X502Y-4637D02*
X822Y-4637D01*
X662Y-5477D02*
X662Y-5797D01*
X502Y-5637D02*
X822Y-5637D01*
X662Y-6477D02*
X662Y-6797D01*
X502Y-6637D02*
X822Y-6637D01*
X662Y-7477D02*
X662Y-7797D01*
X502Y-7637D02*
X822Y-7637D01*
X662Y-8477D02*
X662Y-8797D01*
X502Y-8637D02*
X822Y-8637D01*
X662Y-9477D02*
X662Y-9797D01*
X502Y-9637D02*
X822Y-9637D01*
X662Y-10477D02*
X662Y-10797D01*
X502Y-10637D02*
X822Y-10637D01*
X662Y-11477D02*
X662Y-11797D01*
X502Y-11637D02*
X822Y-11637D01*
X662Y-12477D02*
X662Y-12797D01*
X502Y-12637D02*
X822Y-12637D01*
X662Y-13477D02*
X662Y-13797D01*
X502Y-13637D02*
X822Y-13637D01*
X1550Y-14965D02*
X1550Y-15285D01*
X1390Y-15125D02*
X1710Y-15125D01*
X1550Y-15965D02*
X1550Y-16285D01*
X1390Y-16125D02*
X1710Y-16125D01*
X1550Y-17165D02*
X1550Y-17485D01*
X1390Y-17325D02*
X1710Y-17325D01*
X1550Y-18165D02*
X1550Y-18485D01*
X1390Y-18325D02*
X1710Y-18325D01*
X3475Y-16315D02*
X3475Y-16635D01*
X3315Y-16475D02*
X3635Y-16475D01*
X3475Y-18315D02*
X3475Y-18635D01*
X3315Y-18475D02*
X3635Y-18475D01*
X4900Y-3965D02*
X4900Y-4285D01*
X4740Y-4125D02*
X5060Y-4125D01*
X5900Y-3965D02*
X5900Y-4285D01*
X5740Y-4125D02*
X6060Y-4125D01*
X6200Y-12840D02*
X6200Y-13160D01*
X6040Y-13000D02*
X6360Y-13000D01*
X6475Y-16315D02*
X6475Y-16635D01*
X6315Y-16475D02*
X6635Y-16475D01*
X6475Y-18315D02*
X6475Y-18635D01*
X6315Y-18475D02*
X6635Y-18475D01*
X6900Y-3965D02*
X6900Y-4285D01*
X6740Y-4125D02*
X7060Y-4125D01*
X7200Y-12840D02*
X7200Y-13160D01*
X7040Y-13000D02*
X7360Y-13000D01*
X7900Y-3965D02*
X7900Y-4285D01*
X7740Y-4125D02*
X8060Y-4125D01*
X8200Y-12840D02*
X8200Y-13160D01*
X8040Y-13000D02*
X8360Y-13000D01*
X9200Y-12840D02*
X9200Y-13160D01*
X9040Y-13000D02*
X9360Y-13000D01*
X14450Y-16340D02*
X14450Y-16660D01*
X14290Y-16500D02*
X14610Y-16500D01*
X14450Y-18340D02*
X14450Y-18660D01*
X14290Y-18500D02*
X14610Y-18500D01*
X17450Y-16340D02*
X17450Y-16660D01*
X17290Y-16500D02*
X17610Y-16500D01*
X17450Y-18340D02*
X17450Y-18660D01*
X17290Y-18500D02*
X17610Y-18500D01*
X19475Y-16490D02*
X19475Y-16810D01*
X19315Y-16650D02*
X19635Y-16650D01*
X19475Y-17490D02*
X19475Y-17810D01*
X19315Y-17650D02*
X19635Y-17650D01*
X20200Y-10990D02*
X20200Y-11310D01*
X20040Y-11150D02*
X20360Y-11150D01*
X20200Y-11990D02*
X20200Y-12310D01*
X20040Y-12150D02*
X20360Y-12150D01*
X20200Y-12990D02*
X20200Y-13310D01*
X20040Y-13150D02*
X20360Y-13150D01*
X20275Y-2490D02*
X20275Y-2810D01*
X20115Y-2650D02*
X20435Y-2650D01*
X20287Y-3477D02*
X20287Y-3797D01*
X20127Y-3637D02*
X20447Y-3637D01*
X20287Y-4477D02*
X20287Y-4797D01*
X20127Y-4637D02*
X20447Y-4637D01*
X20287Y-5477D02*
X20287Y-5797D01*
X20127Y-5637D02*
X20447Y-5637D01*
X20287Y-6477D02*
X20287Y-6797D01*
X20127Y-6637D02*
X20447Y-6637D01*
X20287Y-7477D02*
X20287Y-7797D01*
X20127Y-7637D02*
X20447Y-7637D01*
X20287Y-8477D02*
X20287Y-8797D01*
X20127Y-8637D02*
X20447Y-8637D01*
X20287Y-9477D02*
X20287Y-9797D01*
X20127Y-9637D02*
X20447Y-9637D01*
X7735Y-16682D02*
X7735Y-16399D01*
X7452Y-16399D01*
X7452Y-16682D01*
X7735Y-16682D01*
X7735Y-18650D02*
X7735Y-18367D01*
X7452Y-18367D01*
X7452Y-18650D01*
X7735Y-18650D01*
X13444Y-16682D02*
X13444Y-16399D01*
X13161Y-16399D01*
X13161Y-16682D01*
X13444Y-16682D01*
X13444Y-17666D02*
X13444Y-17383D01*
X13161Y-17383D01*
X13161Y-17666D01*
X13444Y-17666D01*
X13444Y-18650D02*
X13444Y-18367D01*
X13161Y-18367D01*
X13161Y-18650D01*
X13444Y-18650D01*
X10350Y-15792D02*
X10861Y-15280D01*
X10350Y-14769D01*
X9838Y-15280D01*
X10350Y-15792D01*
G54D13*
X1073Y-20946D02*
X1073Y-19765D01*
X1355Y-19765D01*
X1523Y-19822D01*
X1636Y-19934D01*
X1692Y-20047D01*
X1748Y-20272D01*
X1748Y-20440D01*
X1692Y-20665D01*
X1636Y-20778D01*
X1523Y-20890D01*
X1355Y-20946D01*
X1073Y-20946D01*
X2255Y-20946D02*
X2255Y-20159D01*
X2255Y-20384D02*
X2311Y-20272D01*
X2367Y-20215D01*
X2480Y-20159D01*
X2592Y-20159D01*
X2986Y-20946D02*
X2986Y-20159D01*
X2986Y-19765D02*
X2929Y-19822D01*
X2986Y-19878D01*
X3042Y-19822D01*
X2986Y-19765D01*
X2986Y-19878D01*
X3717Y-20946D02*
X3604Y-20890D01*
X3548Y-20778D01*
X3548Y-19765D01*
X4336Y-20946D02*
X4223Y-20890D01*
X4167Y-20778D01*
X4167Y-19765D01*
X5685Y-20946D02*
X5685Y-19765D01*
X6079Y-20609D01*
X6473Y-19765D01*
X6473Y-20946D01*
X7541Y-20946D02*
X7541Y-20328D01*
X7485Y-20215D01*
X7373Y-20159D01*
X7148Y-20159D01*
X7035Y-20215D01*
X7541Y-20890D02*
X7429Y-20946D01*
X7148Y-20946D01*
X7035Y-20890D01*
X6979Y-20778D01*
X6979Y-20665D01*
X7035Y-20553D01*
X7148Y-20497D01*
X7429Y-20497D01*
X7541Y-20440D01*
X8104Y-20159D02*
X8104Y-21340D01*
X8104Y-20215D02*
X8216Y-20159D01*
X8441Y-20159D01*
X8554Y-20215D01*
X8610Y-20272D01*
X8666Y-20384D01*
X8666Y-20721D01*
X8610Y-20834D01*
X8554Y-20890D01*
X8441Y-20946D01*
X8216Y-20946D01*
X8104Y-20890D01*
X9172Y-20834D02*
X9229Y-20890D01*
X9172Y-20946D01*
X9116Y-20890D01*
X9172Y-20834D01*
X9172Y-20946D01*
X9172Y-20215D02*
X9229Y-20272D01*
X9172Y-20328D01*
X9116Y-20272D01*
X9172Y-20215D01*
X9172Y-20328D01*
X-244Y-22824D02*
X5Y-23074D01*
X5Y-22824D02*
X-244Y-23074D01*
X1298Y-22246D02*
X1411Y-22246D01*
X1523Y-22302D01*
X1580Y-22358D01*
X1636Y-22471D01*
X1692Y-22696D01*
X1692Y-22977D01*
X1636Y-23202D01*
X1580Y-23314D01*
X1523Y-23371D01*
X1411Y-23427D01*
X1298Y-23427D01*
X1186Y-23371D01*
X1130Y-23314D01*
X1073Y-23202D01*
X1017Y-22977D01*
X1017Y-22696D01*
X1073Y-22471D01*
X1130Y-22358D01*
X1186Y-22302D01*
X1298Y-22246D01*
X2198Y-23314D02*
X2255Y-23371D01*
X2198Y-23427D01*
X2142Y-23371D01*
X2198Y-23314D01*
X2198Y-23427D01*
X3267Y-22246D02*
X3042Y-22246D01*
X2929Y-22302D01*
X2873Y-22358D01*
X2761Y-22527D01*
X2704Y-22752D01*
X2704Y-23202D01*
X2761Y-23314D01*
X2817Y-23371D01*
X2929Y-23427D01*
X3154Y-23427D01*
X3267Y-23371D01*
X3323Y-23314D01*
X3379Y-23202D01*
X3379Y-22921D01*
X3323Y-22808D01*
X3267Y-22752D01*
X3154Y-22696D01*
X2929Y-22696D01*
X2817Y-22752D01*
X2761Y-22808D01*
X2704Y-22921D01*
X4392Y-22639D02*
X4392Y-23427D01*
X4111Y-22189D02*
X3829Y-23033D01*
X4560Y-23033D01*
X5010Y-23427D02*
X5010Y-22639D01*
X5010Y-22752D02*
X5067Y-22696D01*
X5179Y-22639D01*
X5348Y-22639D01*
X5460Y-22696D01*
X5517Y-22808D01*
X5517Y-23427D01*
X5517Y-22808D02*
X5573Y-22696D01*
X5685Y-22639D01*
X5854Y-22639D01*
X5967Y-22696D01*
X6023Y-22808D01*
X6023Y-23427D01*
X6585Y-23427D02*
X6585Y-22639D01*
X6585Y-22752D02*
X6641Y-22696D01*
X6754Y-22639D01*
X6923Y-22639D01*
X7035Y-22696D01*
X7091Y-22808D01*
X7091Y-23427D01*
X7091Y-22808D02*
X7148Y-22696D01*
X7260Y-22639D01*
X7429Y-22639D01*
X7541Y-22696D01*
X7598Y-22808D01*
X7598Y-23427D01*
X9904Y-22189D02*
X8891Y-23708D01*
X11422Y-22246D02*
X11535Y-22246D01*
X11647Y-22302D01*
X11703Y-22358D01*
X11760Y-22471D01*
X11816Y-22696D01*
X11816Y-22977D01*
X11760Y-23202D01*
X11703Y-23314D01*
X11647Y-23371D01*
X11535Y-23427D01*
X11422Y-23427D01*
X11310Y-23371D01*
X11253Y-23314D01*
X11197Y-23202D01*
X11141Y-22977D01*
X11141Y-22696D01*
X11197Y-22471D01*
X11253Y-22358D01*
X11310Y-22302D01*
X11422Y-22246D01*
X12322Y-23314D02*
X12378Y-23371D01*
X12322Y-23427D01*
X12266Y-23371D01*
X12322Y-23314D01*
X12322Y-23427D01*
X13109Y-22246D02*
X13222Y-22246D01*
X13334Y-22302D01*
X13391Y-22358D01*
X13447Y-22471D01*
X13503Y-22696D01*
X13503Y-22977D01*
X13447Y-23202D01*
X13391Y-23314D01*
X13334Y-23371D01*
X13222Y-23427D01*
X13109Y-23427D01*
X12997Y-23371D01*
X12941Y-23314D01*
X12884Y-23202D01*
X12828Y-22977D01*
X12828Y-22696D01*
X12884Y-22471D01*
X12941Y-22358D01*
X12997Y-22302D01*
X13109Y-22246D01*
X13953Y-22358D02*
X14009Y-22302D01*
X14122Y-22246D01*
X14403Y-22246D01*
X14516Y-22302D01*
X14572Y-22358D01*
X14628Y-22471D01*
X14628Y-22583D01*
X14572Y-22752D01*
X13897Y-23427D01*
X14628Y-23427D01*
X15697Y-22246D02*
X15134Y-22246D01*
X15078Y-22808D01*
X15134Y-22752D01*
X15247Y-22696D01*
X15528Y-22696D01*
X15640Y-22752D01*
X15697Y-22808D01*
X15753Y-22921D01*
X15753Y-23202D01*
X15697Y-23314D01*
X15640Y-23371D01*
X15528Y-23427D01*
X15247Y-23427D01*
X15134Y-23371D01*
X15078Y-23314D01*
X16203Y-22246D02*
X16203Y-22471D01*
X16653Y-22246D02*
X16653Y-22471D01*
X18396Y-23877D02*
X18340Y-23820D01*
X18228Y-23652D01*
X18171Y-23539D01*
X18115Y-23371D01*
X18059Y-23089D01*
X18059Y-22864D01*
X18115Y-22583D01*
X18171Y-22414D01*
X18228Y-22302D01*
X18340Y-22133D01*
X18396Y-22077D01*
X19465Y-23427D02*
X18790Y-23427D01*
X19127Y-23427D02*
X19127Y-22246D01*
X19015Y-22414D01*
X18902Y-22527D01*
X18790Y-22583D01*
X20477Y-22639D02*
X20477Y-23427D01*
X20196Y-22189D02*
X19915Y-23033D01*
X20646Y-23033D01*
X21996Y-23427D02*
X21996Y-22246D01*
X22502Y-23427D02*
X22502Y-22808D01*
X22446Y-22696D01*
X22333Y-22639D01*
X22165Y-22639D01*
X22052Y-22696D01*
X21996Y-22752D01*
X23233Y-23427D02*
X23121Y-23371D01*
X23064Y-23314D01*
X23008Y-23202D01*
X23008Y-22864D01*
X23064Y-22752D01*
X23121Y-22696D01*
X23233Y-22639D01*
X23402Y-22639D01*
X23514Y-22696D01*
X23571Y-22752D01*
X23627Y-22864D01*
X23627Y-23202D01*
X23571Y-23314D01*
X23514Y-23371D01*
X23402Y-23427D01*
X23233Y-23427D01*
X24302Y-23427D02*
X24189Y-23371D01*
X24133Y-23258D01*
X24133Y-22246D01*
X25202Y-23371D02*
X25089Y-23427D01*
X24864Y-23427D01*
X24752Y-23371D01*
X24695Y-23258D01*
X24695Y-22808D01*
X24752Y-22696D01*
X24864Y-22639D01*
X25089Y-22639D01*
X25202Y-22696D01*
X25258Y-22808D01*
X25258Y-22921D01*
X24695Y-23033D01*
X25708Y-23371D02*
X25820Y-23427D01*
X26045Y-23427D01*
X26158Y-23371D01*
X26214Y-23258D01*
X26214Y-23202D01*
X26158Y-23089D01*
X26045Y-23033D01*
X25877Y-23033D01*
X25764Y-22977D01*
X25708Y-22864D01*
X25708Y-22808D01*
X25764Y-22696D01*
X25877Y-22639D01*
X26045Y-22639D01*
X26158Y-22696D01*
X26608Y-23877D02*
X26664Y-23820D01*
X26776Y-23652D01*
X26833Y-23539D01*
X26889Y-23371D01*
X26945Y-23089D01*
X26945Y-22864D01*
X26889Y-22583D01*
X26833Y-22414D01*
X26776Y-22302D01*
X26664Y-22133D01*
X26608Y-22077D01*
G54D12*
X5Y-24508D02*
G75*
G03X5Y-24508I-150J0D01*
G74*
G01*
G54D13*
X1298Y-23805D02*
X1411Y-23805D01*
X1523Y-23861D01*
X1580Y-23917D01*
X1636Y-24030D01*
X1692Y-24255D01*
X1692Y-24536D01*
X1636Y-24761D01*
X1580Y-24873D01*
X1523Y-24930D01*
X1411Y-24986D01*
X1298Y-24986D01*
X1186Y-24930D01*
X1130Y-24873D01*
X1073Y-24761D01*
X1017Y-24536D01*
X1017Y-24255D01*
X1073Y-24030D01*
X1130Y-23917D01*
X1186Y-23861D01*
X1298Y-23805D01*
X2198Y-24873D02*
X2255Y-24930D01*
X2198Y-24986D01*
X2142Y-24930D01*
X2198Y-24873D01*
X2198Y-24986D01*
X2648Y-23805D02*
X3436Y-23805D01*
X2929Y-24986D01*
X4392Y-23805D02*
X4167Y-23805D01*
X4054Y-23861D01*
X3998Y-23917D01*
X3886Y-24086D01*
X3829Y-24311D01*
X3829Y-24761D01*
X3886Y-24873D01*
X3942Y-24930D01*
X4054Y-24986D01*
X4279Y-24986D01*
X4392Y-24930D01*
X4448Y-24873D01*
X4504Y-24761D01*
X4504Y-24480D01*
X4448Y-24367D01*
X4392Y-24311D01*
X4279Y-24255D01*
X4054Y-24255D01*
X3942Y-24311D01*
X3886Y-24367D01*
X3829Y-24480D01*
X5010Y-24986D02*
X5010Y-24198D01*
X5010Y-24311D02*
X5067Y-24255D01*
X5179Y-24198D01*
X5348Y-24198D01*
X5460Y-24255D01*
X5517Y-24367D01*
X5517Y-24986D01*
X5517Y-24367D02*
X5573Y-24255D01*
X5685Y-24198D01*
X5854Y-24198D01*
X5967Y-24255D01*
X6023Y-24367D01*
X6023Y-24986D01*
X6585Y-24986D02*
X6585Y-24198D01*
X6585Y-24311D02*
X6641Y-24255D01*
X6754Y-24198D01*
X6923Y-24198D01*
X7035Y-24255D01*
X7091Y-24367D01*
X7091Y-24986D01*
X7091Y-24367D02*
X7148Y-24255D01*
X7260Y-24198D01*
X7429Y-24198D01*
X7541Y-24255D01*
X7598Y-24367D01*
X7598Y-24986D01*
X9904Y-23748D02*
X8891Y-25267D01*
X11422Y-23805D02*
X11535Y-23805D01*
X11647Y-23861D01*
X11703Y-23917D01*
X11760Y-24030D01*
X11816Y-24255D01*
X11816Y-24536D01*
X11760Y-24761D01*
X11703Y-24873D01*
X11647Y-24930D01*
X11535Y-24986D01*
X11422Y-24986D01*
X11310Y-24930D01*
X11253Y-24873D01*
X11197Y-24761D01*
X11141Y-24536D01*
X11141Y-24255D01*
X11197Y-24030D01*
X11253Y-23917D01*
X11310Y-23861D01*
X11422Y-23805D01*
X12322Y-24873D02*
X12378Y-24930D01*
X12322Y-24986D01*
X12266Y-24930D01*
X12322Y-24873D01*
X12322Y-24986D01*
X13109Y-23805D02*
X13222Y-23805D01*
X13334Y-23861D01*
X13391Y-23917D01*
X13447Y-24030D01*
X13503Y-24255D01*
X13503Y-24536D01*
X13447Y-24761D01*
X13391Y-24873D01*
X13334Y-24930D01*
X13222Y-24986D01*
X13109Y-24986D01*
X12997Y-24930D01*
X12941Y-24873D01*
X12884Y-24761D01*
X12828Y-24536D01*
X12828Y-24255D01*
X12884Y-24030D01*
X12941Y-23917D01*
X12997Y-23861D01*
X13109Y-23805D01*
X13897Y-23805D02*
X14628Y-23805D01*
X14234Y-24255D01*
X14403Y-24255D01*
X14516Y-24311D01*
X14572Y-24367D01*
X14628Y-24480D01*
X14628Y-24761D01*
X14572Y-24873D01*
X14516Y-24930D01*
X14403Y-24986D01*
X14066Y-24986D01*
X13953Y-24930D01*
X13897Y-24873D01*
X15359Y-23805D02*
X15472Y-23805D01*
X15584Y-23861D01*
X15640Y-23917D01*
X15697Y-24030D01*
X15753Y-24255D01*
X15753Y-24536D01*
X15697Y-24761D01*
X15640Y-24873D01*
X15584Y-24930D01*
X15472Y-24986D01*
X15359Y-24986D01*
X15247Y-24930D01*
X15190Y-24873D01*
X15134Y-24761D01*
X15078Y-24536D01*
X15078Y-24255D01*
X15134Y-24030D01*
X15190Y-23917D01*
X15247Y-23861D01*
X15359Y-23805D01*
X16203Y-23805D02*
X16203Y-24030D01*
X16653Y-23805D02*
X16653Y-24030D01*
X18396Y-25436D02*
X18340Y-25380D01*
X18228Y-25211D01*
X18171Y-25098D01*
X18115Y-24930D01*
X18059Y-24648D01*
X18059Y-24423D01*
X18115Y-24142D01*
X18171Y-23973D01*
X18228Y-23861D01*
X18340Y-23692D01*
X18396Y-23636D01*
X18790Y-23917D02*
X18846Y-23861D01*
X18959Y-23805D01*
X19240Y-23805D01*
X19352Y-23861D01*
X19409Y-23917D01*
X19465Y-24030D01*
X19465Y-24142D01*
X19409Y-24311D01*
X18734Y-24986D01*
X19465Y-24986D01*
X20871Y-24986D02*
X20871Y-23805D01*
X21377Y-24986D02*
X21377Y-24367D01*
X21321Y-24255D01*
X21208Y-24198D01*
X21040Y-24198D01*
X20927Y-24255D01*
X20871Y-24311D01*
X22108Y-24986D02*
X21996Y-24930D01*
X21940Y-24873D01*
X21883Y-24761D01*
X21883Y-24423D01*
X21940Y-24311D01*
X21996Y-24255D01*
X22108Y-24198D01*
X22277Y-24198D01*
X22390Y-24255D01*
X22446Y-24311D01*
X22502Y-24423D01*
X22502Y-24761D01*
X22446Y-24873D01*
X22390Y-24930D01*
X22277Y-24986D01*
X22108Y-24986D01*
X23177Y-24986D02*
X23064Y-24930D01*
X23008Y-24817D01*
X23008Y-23805D01*
X24077Y-24930D02*
X23964Y-24986D01*
X23739Y-24986D01*
X23627Y-24930D01*
X23571Y-24817D01*
X23571Y-24367D01*
X23627Y-24255D01*
X23739Y-24198D01*
X23964Y-24198D01*
X24077Y-24255D01*
X24133Y-24367D01*
X24133Y-24480D01*
X23571Y-24592D01*
X24583Y-24930D02*
X24695Y-24986D01*
X24920Y-24986D01*
X25033Y-24930D01*
X25089Y-24817D01*
X25089Y-24761D01*
X25033Y-24648D01*
X24920Y-24592D01*
X24752Y-24592D01*
X24639Y-24536D01*
X24583Y-24423D01*
X24583Y-24367D01*
X24639Y-24255D01*
X24752Y-24198D01*
X24920Y-24198D01*
X25033Y-24255D01*
X25483Y-25436D02*
X25539Y-25380D01*
X25652Y-25211D01*
X25708Y-25098D01*
X25764Y-24930D01*
X25820Y-24648D01*
X25820Y-24423D01*
X25764Y-24142D01*
X25708Y-23973D01*
X25652Y-23861D01*
X25539Y-23692D01*
X25483Y-23636D01*
X-154Y-25907D02*
X-154Y-26227D01*
X-314Y-26067D02*
X5Y-26067D01*
X1298Y-25364D02*
X1411Y-25364D01*
X1523Y-25420D01*
X1580Y-25476D01*
X1636Y-25589D01*
X1692Y-25814D01*
X1692Y-26095D01*
X1636Y-26320D01*
X1580Y-26432D01*
X1523Y-26489D01*
X1411Y-26545D01*
X1298Y-26545D01*
X1186Y-26489D01*
X1130Y-26432D01*
X1073Y-26320D01*
X1017Y-26095D01*
X1017Y-25814D01*
X1073Y-25589D01*
X1130Y-25476D01*
X1186Y-25420D01*
X1298Y-25364D01*
X2198Y-26432D02*
X2255Y-26489D01*
X2198Y-26545D01*
X2142Y-26489D01*
X2198Y-26432D01*
X2198Y-26545D01*
X2929Y-25870D02*
X2817Y-25814D01*
X2761Y-25757D01*
X2704Y-25645D01*
X2704Y-25589D01*
X2761Y-25476D01*
X2817Y-25420D01*
X2929Y-25364D01*
X3154Y-25364D01*
X3267Y-25420D01*
X3323Y-25476D01*
X3379Y-25589D01*
X3379Y-25645D01*
X3323Y-25757D01*
X3267Y-25814D01*
X3154Y-25870D01*
X2929Y-25870D01*
X2817Y-25926D01*
X2761Y-25982D01*
X2704Y-26095D01*
X2704Y-26320D01*
X2761Y-26432D01*
X2817Y-26489D01*
X2929Y-26545D01*
X3154Y-26545D01*
X3267Y-26489D01*
X3323Y-26432D01*
X3379Y-26320D01*
X3379Y-26095D01*
X3323Y-25982D01*
X3267Y-25926D01*
X3154Y-25870D01*
X4504Y-26545D02*
X3829Y-26545D01*
X4167Y-26545D02*
X4167Y-25364D01*
X4054Y-25533D01*
X3942Y-25645D01*
X3829Y-25701D01*
X5010Y-26545D02*
X5010Y-25757D01*
X5010Y-25870D02*
X5067Y-25814D01*
X5179Y-25757D01*
X5348Y-25757D01*
X5460Y-25814D01*
X5517Y-25926D01*
X5517Y-26545D01*
X5517Y-25926D02*
X5573Y-25814D01*
X5685Y-25757D01*
X5854Y-25757D01*
X5967Y-25814D01*
X6023Y-25926D01*
X6023Y-26545D01*
X6585Y-26545D02*
X6585Y-25757D01*
X6585Y-25870D02*
X6641Y-25814D01*
X6754Y-25757D01*
X6923Y-25757D01*
X7035Y-25814D01*
X7091Y-25926D01*
X7091Y-26545D01*
X7091Y-25926D02*
X7148Y-25814D01*
X7260Y-25757D01*
X7429Y-25757D01*
X7541Y-25814D01*
X7598Y-25926D01*
X7598Y-26545D01*
X9904Y-25308D02*
X8891Y-26826D01*
X11422Y-25364D02*
X11535Y-25364D01*
X11647Y-25420D01*
X11703Y-25476D01*
X11760Y-25589D01*
X11816Y-25814D01*
X11816Y-26095D01*
X11760Y-26320D01*
X11703Y-26432D01*
X11647Y-26489D01*
X11535Y-26545D01*
X11422Y-26545D01*
X11310Y-26489D01*
X11253Y-26432D01*
X11197Y-26320D01*
X11141Y-26095D01*
X11141Y-25814D01*
X11197Y-25589D01*
X11253Y-25476D01*
X11310Y-25420D01*
X11422Y-25364D01*
X12322Y-26432D02*
X12378Y-26489D01*
X12322Y-26545D01*
X12266Y-26489D01*
X12322Y-26432D01*
X12322Y-26545D01*
X13109Y-25364D02*
X13222Y-25364D01*
X13334Y-25420D01*
X13391Y-25476D01*
X13447Y-25589D01*
X13503Y-25814D01*
X13503Y-26095D01*
X13447Y-26320D01*
X13391Y-26432D01*
X13334Y-26489D01*
X13222Y-26545D01*
X13109Y-26545D01*
X12997Y-26489D01*
X12941Y-26432D01*
X12884Y-26320D01*
X12828Y-26095D01*
X12828Y-25814D01*
X12884Y-25589D01*
X12941Y-25476D01*
X12997Y-25420D01*
X13109Y-25364D01*
X13897Y-25364D02*
X14628Y-25364D01*
X14234Y-25814D01*
X14403Y-25814D01*
X14516Y-25870D01*
X14572Y-25926D01*
X14628Y-26039D01*
X14628Y-26320D01*
X14572Y-26432D01*
X14516Y-26489D01*
X14403Y-26545D01*
X14066Y-26545D01*
X13953Y-26489D01*
X13897Y-26432D01*
X15078Y-25476D02*
X15134Y-25420D01*
X15247Y-25364D01*
X15528Y-25364D01*
X15640Y-25420D01*
X15697Y-25476D01*
X15753Y-25589D01*
X15753Y-25701D01*
X15697Y-25870D01*
X15022Y-26545D01*
X15753Y-26545D01*
X16203Y-25364D02*
X16203Y-25589D01*
X16653Y-25364D02*
X16653Y-25589D01*
X18396Y-26995D02*
X18340Y-26939D01*
X18228Y-26770D01*
X18171Y-26657D01*
X18115Y-26489D01*
X18059Y-26207D01*
X18059Y-25982D01*
X18115Y-25701D01*
X18171Y-25533D01*
X18228Y-25420D01*
X18340Y-25251D01*
X18396Y-25195D01*
X19352Y-25757D02*
X19352Y-26545D01*
X19071Y-25308D02*
X18790Y-26151D01*
X19521Y-26151D01*
X19859Y-25364D02*
X20646Y-25364D01*
X20140Y-26545D01*
X21996Y-26545D02*
X21996Y-25364D01*
X22502Y-26545D02*
X22502Y-25926D01*
X22446Y-25814D01*
X22333Y-25757D01*
X22165Y-25757D01*
X22052Y-25814D01*
X21996Y-25870D01*
X23233Y-26545D02*
X23121Y-26489D01*
X23064Y-26432D01*
X23008Y-26320D01*
X23008Y-25982D01*
X23064Y-25870D01*
X23121Y-25814D01*
X23233Y-25757D01*
X23402Y-25757D01*
X23514Y-25814D01*
X23571Y-25870D01*
X23627Y-25982D01*
X23627Y-26320D01*
X23571Y-26432D01*
X23514Y-26489D01*
X23402Y-26545D01*
X23233Y-26545D01*
X24302Y-26545D02*
X24189Y-26489D01*
X24133Y-26376D01*
X24133Y-25364D01*
X25202Y-26489D02*
X25089Y-26545D01*
X24864Y-26545D01*
X24752Y-26489D01*
X24695Y-26376D01*
X24695Y-25926D01*
X24752Y-25814D01*
X24864Y-25757D01*
X25089Y-25757D01*
X25202Y-25814D01*
X25258Y-25926D01*
X25258Y-26039D01*
X24695Y-26151D01*
X25708Y-26489D02*
X25820Y-26545D01*
X26045Y-26545D01*
X26158Y-26489D01*
X26214Y-26376D01*
X26214Y-26320D01*
X26158Y-26207D01*
X26045Y-26151D01*
X25877Y-26151D01*
X25764Y-26095D01*
X25708Y-25982D01*
X25708Y-25926D01*
X25764Y-25814D01*
X25877Y-25757D01*
X26045Y-25757D01*
X26158Y-25814D01*
X26608Y-26995D02*
X26664Y-26939D01*
X26776Y-26770D01*
X26833Y-26657D01*
X26889Y-26489D01*
X26945Y-26207D01*
X26945Y-25982D01*
X26889Y-25701D01*
X26833Y-25533D01*
X26776Y-25420D01*
X26664Y-25251D01*
X26608Y-25195D01*
G54D12*
X-53Y-27767D02*
X-53Y-27484D01*
X-336Y-27484D01*
X-336Y-27767D01*
X-53Y-27767D01*
G54D13*
X1692Y-28104D02*
X1017Y-28104D01*
X1355Y-28104D02*
X1355Y-26923D01*
X1242Y-27092D01*
X1130Y-27204D01*
X1017Y-27260D01*
X2198Y-27991D02*
X2255Y-28048D01*
X2198Y-28104D01*
X2142Y-28048D01*
X2198Y-27991D01*
X2198Y-28104D01*
X2986Y-26923D02*
X3098Y-26923D01*
X3211Y-26979D01*
X3267Y-27035D01*
X3323Y-27148D01*
X3379Y-27373D01*
X3379Y-27654D01*
X3323Y-27879D01*
X3267Y-27991D01*
X3211Y-28048D01*
X3098Y-28104D01*
X2986Y-28104D01*
X2873Y-28048D01*
X2817Y-27991D01*
X2761Y-27879D01*
X2704Y-27654D01*
X2704Y-27373D01*
X2761Y-27148D01*
X2817Y-27035D01*
X2873Y-26979D01*
X2986Y-26923D01*
X3829Y-27035D02*
X3886Y-26979D01*
X3998Y-26923D01*
X4279Y-26923D01*
X4392Y-26979D01*
X4448Y-27035D01*
X4504Y-27148D01*
X4504Y-27260D01*
X4448Y-27429D01*
X3773Y-28104D01*
X4504Y-28104D01*
X5010Y-28104D02*
X5010Y-27317D01*
X5010Y-27429D02*
X5067Y-27373D01*
X5179Y-27317D01*
X5348Y-27317D01*
X5460Y-27373D01*
X5517Y-27485D01*
X5517Y-28104D01*
X5517Y-27485D02*
X5573Y-27373D01*
X5685Y-27317D01*
X5854Y-27317D01*
X5967Y-27373D01*
X6023Y-27485D01*
X6023Y-28104D01*
X6585Y-28104D02*
X6585Y-27317D01*
X6585Y-27429D02*
X6641Y-27373D01*
X6754Y-27317D01*
X6923Y-27317D01*
X7035Y-27373D01*
X7091Y-27485D01*
X7091Y-28104D01*
X7091Y-27485D02*
X7148Y-27373D01*
X7260Y-27317D01*
X7429Y-27317D01*
X7541Y-27373D01*
X7598Y-27485D01*
X7598Y-28104D01*
X9904Y-26867D02*
X8891Y-28385D01*
X11422Y-26923D02*
X11535Y-26923D01*
X11647Y-26979D01*
X11703Y-27035D01*
X11760Y-27148D01*
X11816Y-27373D01*
X11816Y-27654D01*
X11760Y-27879D01*
X11703Y-27991D01*
X11647Y-28048D01*
X11535Y-28104D01*
X11422Y-28104D01*
X11310Y-28048D01*
X11253Y-27991D01*
X11197Y-27879D01*
X11141Y-27654D01*
X11141Y-27373D01*
X11197Y-27148D01*
X11253Y-27035D01*
X11310Y-26979D01*
X11422Y-26923D01*
X12322Y-27991D02*
X12378Y-28048D01*
X12322Y-28104D01*
X12266Y-28048D01*
X12322Y-27991D01*
X12322Y-28104D01*
X13109Y-26923D02*
X13222Y-26923D01*
X13334Y-26979D01*
X13391Y-27035D01*
X13447Y-27148D01*
X13503Y-27373D01*
X13503Y-27654D01*
X13447Y-27879D01*
X13391Y-27991D01*
X13334Y-28048D01*
X13222Y-28104D01*
X13109Y-28104D01*
X12997Y-28048D01*
X12941Y-27991D01*
X12884Y-27879D01*
X12828Y-27654D01*
X12828Y-27373D01*
X12884Y-27148D01*
X12941Y-27035D01*
X12997Y-26979D01*
X13109Y-26923D01*
X14516Y-27317D02*
X14516Y-28104D01*
X14234Y-26867D02*
X13953Y-27710D01*
X14684Y-27710D01*
X15359Y-26923D02*
X15472Y-26923D01*
X15584Y-26979D01*
X15640Y-27035D01*
X15697Y-27148D01*
X15753Y-27373D01*
X15753Y-27654D01*
X15697Y-27879D01*
X15640Y-27991D01*
X15584Y-28048D01*
X15472Y-28104D01*
X15359Y-28104D01*
X15247Y-28048D01*
X15190Y-27991D01*
X15134Y-27879D01*
X15078Y-27654D01*
X15078Y-27373D01*
X15134Y-27148D01*
X15190Y-27035D01*
X15247Y-26979D01*
X15359Y-26923D01*
X16203Y-26923D02*
X16203Y-27148D01*
X16653Y-26923D02*
X16653Y-27148D01*
X18396Y-28554D02*
X18340Y-28498D01*
X18228Y-28329D01*
X18171Y-28216D01*
X18115Y-28048D01*
X18059Y-27766D01*
X18059Y-27542D01*
X18115Y-27260D01*
X18171Y-27092D01*
X18228Y-26979D01*
X18340Y-26810D01*
X18396Y-26754D01*
X19409Y-26923D02*
X18846Y-26923D01*
X18790Y-27485D01*
X18846Y-27429D01*
X18959Y-27373D01*
X19240Y-27373D01*
X19352Y-27429D01*
X19409Y-27485D01*
X19465Y-27598D01*
X19465Y-27879D01*
X19409Y-27991D01*
X19352Y-28048D01*
X19240Y-28104D01*
X18959Y-28104D01*
X18846Y-28048D01*
X18790Y-27991D01*
X20871Y-28104D02*
X20871Y-26923D01*
X21377Y-28104D02*
X21377Y-27485D01*
X21321Y-27373D01*
X21208Y-27317D01*
X21040Y-27317D01*
X20927Y-27373D01*
X20871Y-27429D01*
X22108Y-28104D02*
X21996Y-28048D01*
X21940Y-27991D01*
X21883Y-27879D01*
X21883Y-27542D01*
X21940Y-27429D01*
X21996Y-27373D01*
X22108Y-27317D01*
X22277Y-27317D01*
X22390Y-27373D01*
X22446Y-27429D01*
X22502Y-27542D01*
X22502Y-27879D01*
X22446Y-27991D01*
X22390Y-28048D01*
X22277Y-28104D01*
X22108Y-28104D01*
X23177Y-28104D02*
X23064Y-28048D01*
X23008Y-27935D01*
X23008Y-26923D01*
X24077Y-28048D02*
X23964Y-28104D01*
X23739Y-28104D01*
X23627Y-28048D01*
X23571Y-27935D01*
X23571Y-27485D01*
X23627Y-27373D01*
X23739Y-27317D01*
X23964Y-27317D01*
X24077Y-27373D01*
X24133Y-27485D01*
X24133Y-27598D01*
X23571Y-27710D01*
X24583Y-28048D02*
X24695Y-28104D01*
X24920Y-28104D01*
X25033Y-28048D01*
X25089Y-27935D01*
X25089Y-27879D01*
X25033Y-27766D01*
X24920Y-27710D01*
X24752Y-27710D01*
X24639Y-27654D01*
X24583Y-27542D01*
X24583Y-27485D01*
X24639Y-27373D01*
X24752Y-27317D01*
X24920Y-27317D01*
X25033Y-27373D01*
X25483Y-28554D02*
X25539Y-28498D01*
X25652Y-28329D01*
X25708Y-28216D01*
X25764Y-28048D01*
X25820Y-27766D01*
X25820Y-27542D01*
X25764Y-27260D01*
X25708Y-27092D01*
X25652Y-26979D01*
X25539Y-26810D01*
X25483Y-26754D01*
G54D12*
X-506Y-29697D02*
X5Y-29185D01*
X-506Y-28673D01*
X-1018Y-29185D01*
X-506Y-29697D01*
G54D13*
X1017Y-28594D02*
X1073Y-28538D01*
X1186Y-28482D01*
X1467Y-28482D01*
X1580Y-28538D01*
X1636Y-28594D01*
X1692Y-28707D01*
X1692Y-28819D01*
X1636Y-28988D01*
X961Y-29663D01*
X1692Y-29663D01*
X2198Y-29551D02*
X2255Y-29607D01*
X2198Y-29663D01*
X2142Y-29607D01*
X2198Y-29551D01*
X2198Y-29663D01*
X3267Y-28482D02*
X3042Y-28482D01*
X2929Y-28538D01*
X2873Y-28594D01*
X2761Y-28763D01*
X2704Y-28988D01*
X2704Y-29438D01*
X2761Y-29551D01*
X2817Y-29607D01*
X2929Y-29663D01*
X3154Y-29663D01*
X3267Y-29607D01*
X3323Y-29551D01*
X3379Y-29438D01*
X3379Y-29157D01*
X3323Y-29044D01*
X3267Y-28988D01*
X3154Y-28932D01*
X2929Y-28932D01*
X2817Y-28988D01*
X2761Y-29044D01*
X2704Y-29157D01*
X4111Y-28482D02*
X4223Y-28482D01*
X4336Y-28538D01*
X4392Y-28594D01*
X4448Y-28707D01*
X4504Y-28932D01*
X4504Y-29213D01*
X4448Y-29438D01*
X4392Y-29551D01*
X4336Y-29607D01*
X4223Y-29663D01*
X4111Y-29663D01*
X3998Y-29607D01*
X3942Y-29551D01*
X3886Y-29438D01*
X3829Y-29213D01*
X3829Y-28932D01*
X3886Y-28707D01*
X3942Y-28594D01*
X3998Y-28538D01*
X4111Y-28482D01*
X5010Y-29663D02*
X5010Y-28876D01*
X5010Y-28988D02*
X5067Y-28932D01*
X5179Y-28876D01*
X5348Y-28876D01*
X5460Y-28932D01*
X5517Y-29044D01*
X5517Y-29663D01*
X5517Y-29044D02*
X5573Y-28932D01*
X5685Y-28876D01*
X5854Y-28876D01*
X5967Y-28932D01*
X6023Y-29044D01*
X6023Y-29663D01*
X6585Y-29663D02*
X6585Y-28876D01*
X6585Y-28988D02*
X6641Y-28932D01*
X6754Y-28876D01*
X6923Y-28876D01*
X7035Y-28932D01*
X7091Y-29044D01*
X7091Y-29663D01*
X7091Y-29044D02*
X7148Y-28932D01*
X7260Y-28876D01*
X7429Y-28876D01*
X7541Y-28932D01*
X7598Y-29044D01*
X7598Y-29663D01*
X9904Y-28426D02*
X8891Y-29944D01*
X11422Y-28482D02*
X11535Y-28482D01*
X11647Y-28538D01*
X11703Y-28594D01*
X11760Y-28707D01*
X11816Y-28932D01*
X11816Y-29213D01*
X11760Y-29438D01*
X11703Y-29551D01*
X11647Y-29607D01*
X11535Y-29663D01*
X11422Y-29663D01*
X11310Y-29607D01*
X11253Y-29551D01*
X11197Y-29438D01*
X11141Y-29213D01*
X11141Y-28932D01*
X11197Y-28707D01*
X11253Y-28594D01*
X11310Y-28538D01*
X11422Y-28482D01*
X12322Y-29551D02*
X12378Y-29607D01*
X12322Y-29663D01*
X12266Y-29607D01*
X12322Y-29551D01*
X12322Y-29663D01*
X13503Y-29663D02*
X12828Y-29663D01*
X13166Y-29663D02*
X13166Y-28482D01*
X13053Y-28651D01*
X12941Y-28763D01*
X12828Y-28819D01*
X14234Y-28482D02*
X14347Y-28482D01*
X14459Y-28538D01*
X14516Y-28594D01*
X14572Y-28707D01*
X14628Y-28932D01*
X14628Y-29213D01*
X14572Y-29438D01*
X14516Y-29551D01*
X14459Y-29607D01*
X14347Y-29663D01*
X14234Y-29663D01*
X14122Y-29607D01*
X14066Y-29551D01*
X14009Y-29438D01*
X13953Y-29213D01*
X13953Y-28932D01*
X14009Y-28707D01*
X14066Y-28594D01*
X14122Y-28538D01*
X14234Y-28482D01*
X15078Y-28594D02*
X15134Y-28538D01*
X15247Y-28482D01*
X15528Y-28482D01*
X15640Y-28538D01*
X15697Y-28594D01*
X15753Y-28707D01*
X15753Y-28819D01*
X15697Y-28988D01*
X15022Y-29663D01*
X15753Y-29663D01*
X16203Y-28482D02*
X16203Y-28707D01*
X16653Y-28482D02*
X16653Y-28707D01*
X18396Y-30113D02*
X18340Y-30057D01*
X18228Y-29888D01*
X18171Y-29775D01*
X18115Y-29607D01*
X18059Y-29326D01*
X18059Y-29101D01*
X18115Y-28819D01*
X18171Y-28651D01*
X18228Y-28538D01*
X18340Y-28369D01*
X18396Y-28313D01*
X19465Y-29663D02*
X18790Y-29663D01*
X19127Y-29663D02*
X19127Y-28482D01*
X19015Y-28651D01*
X18902Y-28763D01*
X18790Y-28819D01*
X20871Y-29663D02*
X20871Y-28482D01*
X21377Y-29663D02*
X21377Y-29044D01*
X21321Y-28932D01*
X21208Y-28876D01*
X21040Y-28876D01*
X20927Y-28932D01*
X20871Y-28988D01*
X22108Y-29663D02*
X21996Y-29607D01*
X21940Y-29551D01*
X21883Y-29438D01*
X21883Y-29101D01*
X21940Y-28988D01*
X21996Y-28932D01*
X22108Y-28876D01*
X22277Y-28876D01*
X22390Y-28932D01*
X22446Y-28988D01*
X22502Y-29101D01*
X22502Y-29438D01*
X22446Y-29551D01*
X22390Y-29607D01*
X22277Y-29663D01*
X22108Y-29663D01*
X23177Y-29663D02*
X23064Y-29607D01*
X23008Y-29494D01*
X23008Y-28482D01*
X24077Y-29607D02*
X23964Y-29663D01*
X23739Y-29663D01*
X23627Y-29607D01*
X23571Y-29494D01*
X23571Y-29044D01*
X23627Y-28932D01*
X23739Y-28876D01*
X23964Y-28876D01*
X24077Y-28932D01*
X24133Y-29044D01*
X24133Y-29157D01*
X23571Y-29269D01*
X24527Y-30113D02*
X24583Y-30057D01*
X24695Y-29888D01*
X24752Y-29775D01*
X24808Y-29607D01*
X24864Y-29326D01*
X24864Y-29101D01*
X24808Y-28819D01*
X24752Y-28651D01*
X24695Y-28538D01*
X24583Y-28369D01*
X24527Y-28313D01*
M02*
