G04 (created by PCBNEW (2013-07-07 BZR 4022)-stable) date 2015-10-06 15:27:07*
%MOIN*%
G04 Gerber Fmt 3.4, Leading zero omitted, Abs format*
%FSLAX34Y34*%
G01*
G70*
G90*
G04 APERTURE LIST*
%ADD10C,0.00393701*%
%ADD11C,0.00787402*%
%ADD12C,0.005*%
%ADD13C,0.0107*%
%ADD14C,0.012*%
%ADD15C,0.008*%
%ADD16C,0.067874*%
%ADD17R,0.133858X0.133858*%
%ADD18C,0.062874*%
%ADD19R,0.062874X0.062874*%
%ADD20C,0.063874*%
G04 APERTURE END LIST*
G54D10*
G54D11*
X12850Y-19025D02*
X12850Y-15425D01*
X8050Y-19025D02*
X8050Y-15425D01*
X8100Y-19025D02*
X12850Y-19025D01*
X12850Y-15375D02*
X8050Y-15375D01*
G54D12*
X10743Y-16619D02*
X10743Y-18430D01*
X11334Y-17525D02*
G75*
G03X11334Y-17525I-984J0D01*
G74*
G01*
X9539Y-17512D02*
G75*
G03X10744Y-18233I810J-12D01*
G74*
G01*
X9539Y-17537D02*
G75*
G02X10744Y-16816I810J12D01*
G74*
G01*
X16950Y-17500D02*
G75*
G03X16950Y-17500I-1000J0D01*
G74*
G01*
X14450Y-19000D02*
X17450Y-19000D01*
X17450Y-19000D02*
X17450Y-16000D01*
X17450Y-16000D02*
X14450Y-16000D01*
X14450Y-19000D02*
X14450Y-16000D01*
X5975Y-17475D02*
G75*
G03X5975Y-17475I-1000J0D01*
G74*
G01*
X3475Y-18975D02*
X6475Y-18975D01*
X6475Y-18975D02*
X6475Y-15975D01*
X6475Y-15975D02*
X3475Y-15975D01*
X3475Y-18975D02*
X3475Y-15975D01*
G54D13*
X20551Y-969D02*
X20551Y-1520D01*
X20530Y-1585D01*
X20510Y-1618D01*
X20469Y-1650D01*
X20388Y-1650D01*
X20347Y-1618D01*
X20326Y-1585D01*
X20306Y-1520D01*
X20306Y-969D01*
X19878Y-1650D02*
X20123Y-1650D01*
X20000Y-1650D02*
X20000Y-969D01*
X20041Y-1066D01*
X20082Y-1131D01*
X20123Y-1164D01*
G54D14*
G54D15*
X16483Y-17642D02*
X16426Y-17661D01*
X16330Y-17661D01*
X16292Y-17642D01*
X16273Y-17623D01*
X16254Y-17585D01*
X16254Y-17547D01*
X16273Y-17509D01*
X16292Y-17490D01*
X16330Y-17471D01*
X16407Y-17452D01*
X16445Y-17433D01*
X16464Y-17414D01*
X16483Y-17376D01*
X16483Y-17338D01*
X16464Y-17300D01*
X16445Y-17280D01*
X16407Y-17261D01*
X16311Y-17261D01*
X16254Y-17280D01*
X16121Y-17261D02*
X16026Y-17661D01*
X15950Y-17376D01*
X15873Y-17661D01*
X15778Y-17261D01*
X15645Y-17300D02*
X15626Y-17280D01*
X15588Y-17261D01*
X15492Y-17261D01*
X15454Y-17280D01*
X15435Y-17300D01*
X15416Y-17338D01*
X15416Y-17376D01*
X15435Y-17433D01*
X15664Y-17661D01*
X15416Y-17661D01*
X5508Y-17617D02*
X5451Y-17636D01*
X5355Y-17636D01*
X5317Y-17617D01*
X5298Y-17598D01*
X5279Y-17560D01*
X5279Y-17522D01*
X5298Y-17484D01*
X5317Y-17465D01*
X5355Y-17446D01*
X5432Y-17427D01*
X5470Y-17408D01*
X5489Y-17389D01*
X5508Y-17351D01*
X5508Y-17313D01*
X5489Y-17275D01*
X5470Y-17255D01*
X5432Y-17236D01*
X5336Y-17236D01*
X5279Y-17255D01*
X5146Y-17236D02*
X5051Y-17636D01*
X4975Y-17351D01*
X4898Y-17636D01*
X4803Y-17236D01*
X4441Y-17636D02*
X4670Y-17636D01*
X4555Y-17636D02*
X4555Y-17236D01*
X4594Y-17294D01*
X4632Y-17332D01*
X4670Y-17351D01*
%LPC*%
G54D16*
X13302Y-16540D03*
X13302Y-17525D03*
X13302Y-18509D03*
X7594Y-18509D03*
X7594Y-16540D03*
G54D17*
X10350Y-15280D03*
G54D18*
X20287Y-3637D03*
X20287Y-4637D03*
X20287Y-5637D03*
X20287Y-6637D03*
X20287Y-7637D03*
X20287Y-8637D03*
G54D19*
X20287Y-9637D03*
X662Y-13637D03*
G54D18*
X662Y-12637D03*
X662Y-11637D03*
X662Y-10637D03*
X662Y-9637D03*
X662Y-8637D03*
X662Y-7637D03*
X662Y-6637D03*
X662Y-5637D03*
X662Y-4637D03*
X662Y-3637D03*
X662Y-2637D03*
X662Y-1637D03*
X662Y-637D03*
X20275Y-2650D03*
G54D20*
X9200Y-11575D03*
X10000Y-11575D03*
G54D19*
X19475Y-17650D03*
G54D18*
X19475Y-16650D03*
X17450Y-18500D03*
X17450Y-16500D03*
X14450Y-18500D03*
X14450Y-16500D03*
X6475Y-18475D03*
X6475Y-16475D03*
X3475Y-18475D03*
X3475Y-16475D03*
G54D19*
X6200Y-13000D03*
G54D18*
X7200Y-13000D03*
X8200Y-13000D03*
X9200Y-13000D03*
G54D19*
X4900Y-4125D03*
G54D18*
X5900Y-4125D03*
X6900Y-4125D03*
X7900Y-4125D03*
G54D19*
X20200Y-11150D03*
G54D18*
X20200Y-12150D03*
X20200Y-13150D03*
G54D19*
X1550Y-15125D03*
G54D18*
X1550Y-16125D03*
G54D19*
X1550Y-17325D03*
G54D18*
X1550Y-18325D03*
M02*
