M48
;DRILL file {Pcbnew (2013-07-07 BZR 4022)-stable} date 2015-09-27 16:40:43
;FORMAT={-:-/ absolute / metric / decimal}
FMAT,2
METRIC,TZ
T1C0.635
T2C0.762
T3C0.813
T4C1.016
T5C2.600
%
G90
G05
M71
T1
X9.588Y-33.782
X12.065Y-33.02
X23.939Y-22.924
X24.892Y-16.383
X30.162Y-19.812
X31.941Y-12.446
X32.575Y-14.287
X33.337Y-36.258
X34.989Y-21.399
X35.75Y-14.605
X37.02Y-14.605
X38.798Y-6.858
X38.798Y-8.001
X45.148Y-16.954
T2
X23.368Y-29.4
X25.4Y-29.4
T3
X1.683Y-1.619
X1.683Y-4.159
X1.683Y-6.699
X1.683Y-9.239
X1.683Y-11.779
X1.683Y-14.319
X1.683Y-16.859
X1.683Y-19.399
X1.683Y-21.939
X1.683Y-24.479
X1.683Y-27.019
X1.683Y-29.559
X1.683Y-32.099
X1.683Y-34.639
X3.937Y-38.417
X3.937Y-40.957
X3.937Y-44.005
X3.937Y-46.545
X8.826Y-41.846
X8.826Y-46.926
X12.446Y-10.477
X14.986Y-10.477
X15.748Y-33.02
X16.447Y-41.846
X16.447Y-46.926
X17.526Y-10.477
X18.288Y-33.02
X20.066Y-10.477
X20.828Y-33.02
X23.368Y-33.02
X36.703Y-41.91
X36.703Y-46.99
X44.323Y-41.91
X44.323Y-46.99
X49.466Y-42.291
X49.466Y-44.831
X51.308Y-28.321
X51.308Y-30.861
X51.308Y-33.401
X51.498Y-6.731
X51.53Y-9.239
X51.53Y-11.779
X51.53Y-14.319
X51.53Y-16.859
X51.53Y-19.399
X51.53Y-21.939
X51.53Y-24.479
T4
X19.289Y-42.014
X19.289Y-47.014
X33.789Y-42.014
X33.789Y-44.514
X33.789Y-47.014
T5
X26.289Y-38.813
T0
M30
